/* XPM */
static char *result[] = {
/* columns rows colors chars-per-pixel */
"60 60 206 2 ",
"   c #272433",
".  c #2C2933",
"X  c #322E3A",
"o  c #38343A",
"O  c #432E3A",
"+  c #572C3B",
"@  c #433F39",
"#  c #57343C",
"$  c #612D3E",
"%  c #6A303F",
"&  c #464439",
"*  c #4E4B3C",
"=  c #554B3E",
"-  c #5C593B",
";  c #4F3347",
":  c #6A3742",
">  c #763343",
",  c #494243",
"<  c #4E4A49",
"1  c #564D48",
"2  c #555547",
"3  c #5B5753",
"4  c #734346",
"5  c #695442",
"6  c #635A42",
"7  c #755B4D",
"8  c #794957",
"9  c #645551",
"0  c #655C52",
"q  c #6B5B56",
"w  c #6B6546",
"e  c #766C4A",
"r  c #7A7645",
"t  c #7C794A",
"y  c #6E6850",
"u  c #786A59",
"i  c #7D7556",
"p  c #777167",
"a  c #823746",
"s  c #983D4A",
"d  c #A43F4D",
"f  c #A83F4D",
"g  c #93454C",
"h  c #8C455A",
"j  c #8B5353",
"k  c #A54254",
"l  c #B94957",
"z  c #BF525C",
"x  c #807949",
"c  c #847A4D",
"v  c #817450",
"b  c #915C69",
"n  c #B74C6C",
"m  c #B74F74",
"M  c #B55076",
"N  c #BA5375",
"B  c #BE5D77",
"V  c #8C7965",
"C  c #917668",
"Z  c #BE7461",
"A  c #C74956",
"S  c #D74B57",
"D  c #DC565B",
"F  c #EC4F5C",
"G  c #ED515D",
"H  c #E25C5E",
"J  c #F1525C",
"K  c #F25A5E",
"L  c #D5605E",
"P  c #C14E6C",
"I  c #CB4F69",
"U  c #C6506E",
"Y  c #CB526C",
"T  c #D65067",
"R  c #DC5064",
"E  c #D6576A",
"W  c #C04F70",
"Q  c #C65571",
"!  c #E45162",
"~  c #E85E64",
"^  c #DB6B62",
"/  c #D46B74",
"(  c #EE6F66",
")  c #E5676A",
"_  c #F26362",
"`  c #F56C66",
"'  c #EB7A6C",
"]  c #F57367",
"[  c #F67568",
"{  c #F87C69",
"}  c #8A8649",
"|  c #99964D",
" . c #8B825B",
".. c #958957",
"X. c #989151",
"o. c #A89C5C",
"O. c #AAA55B",
"+. c #B2AC58",
"@. c #B9B35A",
"#. c #9B8B66",
"$. c #9F9264",
"%. c #989177",
"&. c #A28B6D",
"*. c #A79965",
"=. c #A88972",
"-. c #AF8F72",
";. c #B79B7A",
":. c #B2A664",
">. c #BDAB6A",
",. c #BDB961",
"<. c #BCB368",
"1. c #B9A472",
"2. c #BEA47A",
"3. c #C3BF5C",
"4. c #DB857D",
"5. c #F7816E",
"6. c #E88471",
"7. c #F78571",
"8. c #F99879",
"9. c #C0AE6C",
"0. c #C4B26D",
"q. c #CBBD6C",
"w. c #C3AD77",
"e. c #C0A57A",
"r. c #C5AC7A",
"t. c #C8AF7B",
"y. c #C7B473",
"u. c #CAB573",
"i. c #CDBB75",
"p. c #CCB37B",
"a. c #CFBB79",
"s. c #D0BD76",
"d. c #D0B77D",
"f. c #D3BC7C",
"g. c #D8BF7F",
"h. c #FDA47D",
"j. c #CAC466",
"k. c #D2CC65",
"l. c #D5C96D",
"z. c #D7D168",
"x. c #DDD66A",
"c. c #CDCA7A",
"v. c #D5C375",
"b. c #D8C776",
"n. c #D4CA75",
"m. c #DBCB75",
"M. c #D6C27A",
"N. c #DBC47D",
"B. c #DEC97D",
"V. c #DFD174",
"C. c #D9D37F",
"Z. c #E4DD6D",
"A. c #E0CF77",
"S. c #E2CC7E",
"D. c #E2D475",
"F. c #E5D974",
"G. c #EADE76",
"H. c #E5D27C",
"J. c #E9D57D",
"K. c #E6DA7B",
"L. c #EBDB7B",
"P. c #F1DE7F",
"I. c #E7E06D",
"U. c #EEE376",
"Y. c #EEE17A",
"T. c #F1E676",
"R. c #F5EC75",
"E. c #F9EF76",
"W. c #F3E47C",
"Q. c #F5EA7A",
"!. c #F9EF7C",
"~. c #F7F173",
"^. c #F8F273",
"/. c #F9F37C",
"(. c #91949C",
"). c #B49A81",
"_. c #B4AA88",
"`. c #CEB384",
"'. c #D8B986",
"]. c #C7BC92",
"[. c #F0A583",
"{. c #DDC580",
"}. c #DCC885",
"|. c #E4CD80",
" X c #E7D081",
".X c #EBD482",
"XX c #EFD982",
"oX c #ECDB88",
"OX c #F1DB83",
"+X c #F3DF88",
"@X c #EEE281",
"#X c #EEE08C",
"$X c #F4E283",
"%X c #F6EC83",
"&X c #F8EE84",
"*X c #F4E38A",
"=X c #F6EA8B",
"-X c #F8ED8D",
";X c #F7F083",
":X c #F9F383",
">X c #FAF38B",
",X c #F7EB90",
"<X c #F9EE90",
"1X c #FAF191",
"2X c #EADBA6",
"3X c #DCDAD7",
/* pixels */
"oXXX XXXW.L.d.d.g.N.N.|.|.XX$Xf.r. XOXW.W.*X&XOXOX X2.d.OXR.^.G.1.i.:X-XOXXXOXOXXXOXXXM.*Xc.y  .W.W.+XW.%XR.,.t & ,.^.>X",
"b.H.|.S..XOXXX.X'.f.|. X.X XH.XX|.B.L. XXXOXXX.X'.t.a. XXXOXL.m.S.W.OX|.'.f. XJ.J..X|.f.1.&.>.S..X X XXX$X X$.O.b.P.Y.oX",
"K.Y.J.S.S.S.|..XOXXXXXS.J.T.R.%X!.R.E.R.R.L.s.p.s.B.{.B.|.|.|.|.|.g.p.u.D.L.W.Q.R.R.G.n.f.B..X XS.B.B.{.g.|.oXK.{.M.T.R.",
"T.T.L.T.T.T.K. X.X.X XL.Q.-X-X=X=X!.R.R.^.^.T.Y.@XXXY.R.G.J. X|.d.g.F.T.Q.=X-X;X~.R.~.~.^.T.$XXXW.R.T.Y.f.r.p.t.b.G.R.Q.",
":X-X%X=X%XQ.R.OXOXXXXX.XOXOXOXXXOXW.W.OXW.R.!.-X,X-X=XQ.R.Q.XXXXXXXXOXOXOXOXXXP.Q.P.OXW.Q.&X<X<X-X%XR.R.XX.XXXL.P.OXP.R.",
"|..XXXXXXX.X.X.X X|.|.|..X.X XH.H.J.XXOXOXOXOXOXOXOXOX.XOXXX.X|.|.S.S..X|.S.H.J..XXXXXXXOXOXXXXXXXXXOXXXXX X|.S.S. X|.g.",
"v.s.m.W.J.p.t.f.f.{.f.p.S.P.T.T.R.R.T.J. X.X XL.Q.Q.W.H.S.S..X|.B.d.d.r.s.G.~.R.R.L. XXX.XJ.W.Q.W.J.H.|. XH.|.B.f.w.s.m.",
"Q.R.~.:X>X!.T.F.b.s.u.b.R.^./.:X>X>X/.T.J..XP.R.~.!.:X:XR.T.J.S.i.u.A.T.E./.>X>X/.R.L. X.XQ.~.~.:X>X!.T.G.H.H.H.F.U.~./.",
"J.W.$X+X+X*XR.~.~.~.R.^.^.E.%X*X+X+XOXP.XX|.S.P.$XOX+X*XW.E.~.^.R.E.^.E.R.*X+X+XOXP.P.J.|.J.W.OXOX+X$XR.E.~.~.~.^./.>X-X",
" XOXOXOXOXOXOXW.~.Q.R.E.T.W.OXXXXXOXXXH.|.S. X.XOXOXXXXXOXOXR.E.Q.R.R.Q.OXOXOXOXXX.X|.S.S..XOXXX+XOXOXOXW.E.T.E.Q.OXOXOX",
"w.'. XOX.X X|.W.Q.OXOXOXOXP. X.XXXOXJ.J.H.S.H.S.XXOXOXXXXXOXQ.P.OXOXOXP.XX.XJ.OXOXJ.J.S.|.|. XOXXXOXXXOXW.Q.OXXXOXOXXX.X",
"s.r.e.t.t.e.t.{..X.X.X XJ.S.L.T.~.~.~.R.R.T.L.P..X X|.H.S.|. X.X.X.XH.H.L.G.T.~.E.R.~.T.L.L.P.J.|.H.S.B.p.d.'.|.J.H.H.W.",
"^.R.G.F.U.T.Q.U.G.J..X.XW.R.~.~.!.:X>X:X~.^.^.^.T.T.U.R.E.T.U.J..X.XP.T.~.^.E.:X>X>X/.~.^.^.~.T.L.T.Q.Q.F.m.f.p.t.M.j.:.",
"W.W.R.Q.-X>X-XQ.W.XXXX.XJ.P.P.OXOX*X*X*X$XQ.~.^.^.~.:X1X-X&XQ.OXOX.X.XP.P.OXOX*X*XOX*XQ.R.~.~.^./.>X1X-X!.W.XXXX|.S.b.s.",
"d.B.f.a.}. XOXOX.X|.|.|.S.XX.XXXXXXXOXOXOXW.W.Q.Q.$X,X+XOXOX.XS.S.S.S.J.XXXXXXOXXXOXOXOXQ.W.Q.W.&X*XOXOXXX X|.|.S.|.XXOX",
"H.T.XX.XXXXXXXXXXX X X|.S.g.f.L. X.XXXXXOX.X.XP.OXOXXXOXXXXXOX.XS..XN.g.f.P.J. XXX.XP.OX.XXXOXOXOXOXOXXXXXXX X XS.|.S.J.",
"OXOXOXOX.X|.S.H.{.a.p.r.w.D.T.E.T.L.J.G.R.G.J.S.J.XXXX.XS.S.J.|.S.p.e.s.F.^.~.U.K.H.R.U.K.J.S..XOX.XS.H.J. XS.B.S.H..XXX",
"Q.Q.Q.Q.T.T.E.Q.K.f.M.J.=X>X>X&XQ.Q.R.~.^.^.~.T.L.L.T.T.R.E.W.W.W.L.Y.>X>X>X%XQ.R.~.^.^.^.R.W.K.Y.T.T.R.Q.W.Y.W.Q.>X#X{.",
"Q.&X-X/.^./.-X-X*X=X<X<X*X+XOXXXOXOXP.W.Q.E.R.%X-X:X~./.>X=X$X=X<X<X*X+X+XXXXXXXOXW.W.R.E.Q.-X>X/.^.;X-X=X$X=X-X-X*XOXOX",
"OXXXOX*XW.$XOXOXXXOXXX.XJ.H.H.L.P.OX.XOXP.Q.OXOXXX+X*XW.OXOXOXOXOXXX.XH.H.J.XXXX.XXXOXQ.OXXXXXOX*XW.$X+XOXXXOXOX XN.p.S.",
"OXP.L..X X.X.X X|. XH.H.G.T.R.~.~.R.K.H. X.XJ.W.K..X.X.XXX X X XH.H.J.T.R.~.~.~.T.H.S. XJ.P.P.J..X.X.X.X X X Xg.t.v.D.U.",
"~.R.P..X.X X XL.T.T.T.R.~.~.^.~.E.:X:XW.L.L.R.E.Q.OX.X X|. XP.R.T.R.~.~.~.~.~./.>X!.W.K.T.^.R.P..X.X XH.L.T.T.G.U.~.W.W.",
"E.W.OX.X.XOXW.^.^.^.^.E.Q.R.W.P.OX*X*X,X:X:X/.!.OXXX XOXOXE.^.^./.~.Q.R.Q.W.OX*X*X*X>X:X/.!.W.OX X XOXW.^.^.^.^.-XW.Q.Q.",
"$XOX.X.XS.XXOXT.R.R.Q.OXQ.R.P.P.OXXXXXXXOX+X$XOX.X XS. XOXW.R.R.R.W.P.R.W.OXXXXX.XOXOX+X*X$X.X.X.X|.XXW.Q.R.E.*X+XQ.R.OX",
"XX.X|.N.B.S..XOXOXOXOXXXJ.J.J.P.P.L.G.L.P..X.XXX.XS.m.|. XXXOXOXOXXX.XJ.J.K.P.L.L.G.L.P. XXXXX|.|.N. X.XOXOXOXOX.XS.S.b.",
"y i &.2.e.p.{. XXX.X XS.G.~.!.>X:X~.~.~.~.R.K.J.H.H.H.H.S.S. X.X X|.J.R.E./.>X/.^.^.R.R.Y.J.H.H.H.H.H.S.S.{.B.d.s.n.T.U.",
"*.c.C.Y.U.G.m.S.XXXX.XP.Q.OXOX+X$XQ.R.W.R.^.~.:X=X-X/.^.R.W.XXXX.XXXQ.W.OX+X+XW.R.Q.Q.E.^./.-X&X:X~.R.T.S.f.d.N.U.>X>X:X",
"=X*X*X$X$XW.Q.OXXX.X XJ..XOXOXXX.XOXOXXXOXQ.Q.*X+X*X+XOXQ.P.M.9.9.9.9.0.v.J..XXXP.OXOXW.Q.$X+X*X+X+XW.W.XXXXXX X.X*X*XXX",
".XOXP.OX.X X.X XS.S.S.S. XJ.S.J.L.L.P.OXOXOXXX.XOXOX.XS.>.v =   + 4 > : = w o.D.L.OX.XOXOX.XOXOXOX.X.X.XXX|.|.B.N.p.t.w.",
"L.R.~.R.Y.G.M.r.p.f.S.S.G.R.R.~.~./.R.J.S. XJ.W.^.~.T.O.X % d A Y / { ! S k # x x.G.S.J. XG.~.~.R.Q.K.H.|.S.N.t.w.y.D.R.",
":X>X-X-X-X&XR.U.V.F.U.R.~.~./.>X<X-XQ.R.XX.XL.Q.R.&XM.o s ! P m M M ) Y I G S # = @.W..X.XP.~.%X-X<X:XR.R.U.D.D.U.~.~./.",
"-X*XOXOXOX+XW.R.^.~.~.^.R.Q.+X+XOXOXOX.X X|.|.XXOXOX..g J T I I M > b g n F G ( g 6 M. XS. XOXOXOXOXOXW.R.^.~.^.^.E.Q.$X",
"W.OXOXOXOXOXOXW.E.W.W.W.W.OXOXOXXXXXXX XS.B.J. XXXS.7 ' ` J J J a (.3Xp g ` 5.{ H + ..N. X X.XoXOXOXOXXXW.R.P.W.W.W.OXOX",
"Q.S.*.#.N.|.|..XP.OXXXXX.X XS.J.W.W.L.Y.G.H.H.S.s.v h 6.8._ ] 7.4 p ).q 7 h.5.~ ! f X.F.S. XJ.OX.XJ..X.XP.OXOXXXOXOX.X X",
"u 2 X.<.q.s.v.f.p.|.N.|.L.P.R.~.~.^./.~.^.R.x.o.5 k N Q [.' ~ ` l O , ; A E I N W d } R.T.R.W.J.S.L.L.L.S.H. X.XM.*.V ..",
"t j.~.^./.:X/.R.G..XXXXXW.R.R.T.%X1X<X-XQ.@.- : S J T ' [.B W J J A l ^ ~ n M M N d & F.~.^.~.R.R.!.&X/.~.T..XXX.Xy.O.,.",
"!.!.~.:X1X=X*X$XOX.X X|.S.XXOXOXXX+XOXOXy.. s J G G G h.4.n ! ! D T F ` [ T M M P > @ m.R.R.R.~.:X1X,X*X$XOX.X XS. X$XW.",
"Q.Q.P.+X+XXXOXXX.XS. XS.H..X.X.XXXXXOXXXc : [ { _ _ ] 5.E F T U N N H K 5.K T I $ X @ v.W.P.W.OX+XOXOXOXOX X|.|.S. X.X X",
" X.XOXOXXX.X XJ.XX XS.S.S.S.T.T.H.H.J.H.e A ) [.8.{ _ K K R M N ' Q R _ 8.L D j 9 q * q. X XOXOXXXXX.XH.S.|. XS.d.p.p.i.",
"T.J.L.OXXXH.L.J.J.S.A.J.T.!./.!.~.T.G.U.r s Y N E F F ` ( n h ; 4 8 z L Z j =.;.=.9 x Z.T.G.H. XOXJ.J.J.s.w.f.b.v.D.Q./.",
"m.m.U.~.E.~./.&XQ.&X&X>X>X,X,X*X$XQ.R.T.r + l m N Y F ^ 8 ; O 1 u =.-.V 3 _.2X`.u * +.Z.^.^.&XW.T.~././.:X%X%X:X>X1X,X-X",
"{.{. X&XE.&X*X+XOX*X=X*XOXXX.XXX.XXXXXS.w   . > k B Z -.=.V C C =.'.}.2X2X2X].0 @ o.l.T.Q.P.*X-X&XE.%X*X+XOX*X*X*XOX.XJ.",
"XXXXOXOXOXOXOXXX.X.X XS.H.H.L.Y.T.W. XB.x o q , 0 ).2X`.#.0 & & < V V %.p 2 2 t o.u.S.P.OXXXXX.XOXOXOXOXOX.XXX.X XS.L.G.",
"T.W.L.XX XS.|. XJ.J.f.s.U.^.^.^.^.~.W.D.9.e o 1 &.2.%.< 6 ..:.:...c } } | @.3.k.x.D.S.H.J.T.T.P..X XH.|. XJ.J.H.G.T.G.b.",
"^.W.OX.X.X.XXXT.~.~.R.~.^.R.R.R.%X>X>X>Xx.j.| r 1 = 6 ..>.q.Z.Z.x.z.k.k.k.k.l.K.*X>X&XE.~.~.W.OX X.X.XXXQ.~.~.^.^.A.s.m.",
"!.W.XXXX XXXW.~.~.^.~.Q.R.E.W.OXOXoXOX*X=XK.l.q.9.<.9.u.m.T.E.^.R.T.F.I.Z.H. X+X+X+X=X*X&XQ.W.OX.X XXXQ.R.~.^.E.Q.T.E.W.",
"OX.X XS.S..XOXW.W.Q.P.OXW.L..X.X.X.XXX.XXX.X XB.u.0.u.m..XOXOXW.W.OXP.T.J..XXX.XJ.J..XXX+XOXXX|.S.S..XOXP.W.W.P.XXW.P.J.",
"B.}.|.d.r.t.g.'.|..XOX XH.Y.T.Q.Q.T.R.U.W.L. X X|.B.g.p.t.|..XXXXX.XH.K.U.W.Q.U.R.T.T.P.J. XXX XS.B.S. X.XXXXXXX XJ.L.G.",
"D.b.a.M.D.F.M.s.d.'.J.K.R.R.%X-X-XE.E.E.^.~.T.m.d.d.b.b.D.g.|..X XJ.T.R.Q.&X<X&X~.E.~.E.R.T.L..XY.T.U.H.S.|.f.t.a.B.D.s.",
"&X1X<X>X:XR.E.OXOXXXXXOXP.OXOXOXOXQ.W.OXW.E.E.-X<X&X&X!.R.Q.OXXXXXXXP.XXOXOXOX$XQ.P.P.R.^.&X<X<X>XQ.E.~.OXOX X{.f.B.F.L.",
"OX|..X X|.OXOXOX X XS.S..X.X.X X.XJ.XXOXOXP.P.OXOXOXOXOXP.OX.XH.|.S.|.XX.XH. X.XXXXXOXOXP.OXOXOXOXXXOXOX.X X XS.S..X.XS.",
"t.p.S.H.f.S. X X XS.S.S.H.L.L.G.T.T.T.J..XXX XP.W.W.P.H.S..X.XS.|.S.S.J.L.G.T.T.T.P.J..X.XJ.W.Q.$XJ.S. X.X|.S.|.S.H.H.M.",
"m.R././.>XQ.U.D.H.S.S.D.T.^.~./.>X:XE.T.J..X.XR./././.&XT.G.J.S.S.S.G.~.E./.:X:X/.T.L..X.XG.^./.:X:XQ.G.K.S.f.p.B.W.R.~.",
"E.^.$X$X=X%XE.^.R.E.~.~.^.~.&X-X*X*X$XP.XX X|.W.W.+X*X=XQ.~.~.~.~.~.^.E.E.-X-X*X$XP.OX.XS.P.Q.OX*X*X%XE.^.R.T.L.Q.Q./.>X",
"Q.P.W.Q.P.XXOXQ.^.R.E.E.R.W.OXOXOXOXXX X|.S.|.XXOXOXXXOXXXP.R.R.R.~.E.R.OXXXXXXXOX.X|.S.S..XXXOXOXXXOXOXQ.^.~.~.L. X{.e.",
"OXXXXXXX.XXXXXW.R.P.OXOXW.OX.X.XP.OX.XH.S.S. X|..XOXOXOXOXOXQ.P.OXP.P.P.XX.XXXOXXXJ.S.S.|..X.XOXOXXX.XJ.P.E.G.S.f.i.m.9.",
"r.p.e.d.g.N.S.B.|.|. X X|.S.J.G.T.~.R.R.R.G.H.L.P..X|.H.|. X X|.S.|.'.d.S.G.T.R.R.R.R.T.J.L.J..X|.t.t.r.r.|..XXXW.~.Q.m.",
":.H.S.H.T.R.G.b.M.d.S..XT.R.R.^.~.:X:X/./.~.~.~.G.G.L.T.T.T.L.|.t.e.r.m.~.^.E./.:X:X~.^.~.~.R.G.H.D.T.U.m.m.L.P.R.~.~.x.",
"^.~.R.R.:X1X>X/.Q.OXOX.XXXW.W.OXOX,X*X=X%XQ.~.E.^.^.!.>X>X:XQ.OX.X.XJ.P.W.OXOX*X=X*X=XQ.R.~.~.^./.:X>X>X!.Q.Q.T.W.T.R.^.",
"/.:XW.OX*X*XOXOX.X|.|.S.|.XXOXXXOXXXXXXXXXQ.Q.Q.R.&X<X*XOXOXOXJ.S.S.S..XOXOXOXOXXXOXOXP.Q.Q.R.W.=X,X+XOXOX.XS.S.S.S.P.W."
};
