/* XPM */
static char *result[] = {
/* columns rows colors chars-per-pixel */
"60 60 240 2 ",
"   c #361619",
".  c #36271C",
"X  c #1E192F",
"o  c #181833",
"O  c #1A1932",
"+  c #281A2A",
"@  c #391F21",
"#  c #231A30",
"$  c #3A2326",
"%  c #2E2738",
"&  c #3A3638",
"*  c #4F1F1C",
"=  c #4D1E2B",
"-  c #571C27",
";  c #581B25",
":  c #561D28",
">  c #472925",
",  c #422438",
"<  c #513933",
"1  c #62352E",
"2  c #693C2F",
"3  c #673737",
"4  c #56432F",
"5  c #534636",
"6  c #6F4A37",
"7  c #685537",
"8  c #74673C",
"9  c #2D2B44",
"0  c #262C4C",
"q  c #292F4E",
"w  c #392840",
"e  c #2C314F",
"r  c #3C3647",
"t  c #2D3353",
"y  c #2D3659",
"u  c #373A54",
"i  c #353D5D",
"p  c #373F60",
"a  c #4A3842",
"s  c #3B4364",
"d  c #58534A",
"f  c #4A4757",
"g  c #695550",
"h  c #7D754B",
"j  c #6F6A52",
"k  c #7B7358",
"l  c #4A4C63",
"z  c #424C6E",
"x  c #49526B",
"c  c #56596C",
"v  c #434E70",
"b  c #4B5471",
"n  c #525975",
"m  c #5D6073",
"M  c #716B6F",
"N  c #646773",
"B  c #9E614B",
"V  c #847447",
"C  c #8A6A5F",
"Z  c #967D55",
"A  c #AF6544",
"S  c #BA6D4A",
"D  c #BA7252",
"F  c #AF7D6A",
"G  c #C1714A",
"H  c #91894B",
"J  c #8B825B",
"K  c #988859",
"L  c #9D9854",
"P  c #AA935D",
"I  c #B1975F",
"U  c #B5A959",
"Y  c #B0AB5C",
"T  c #968C6E",
"R  c #A79865",
"E  c #AC916C",
"W  c #B9A766",
"Q  c #BCB764",
"!  c #B9A576",
"~  c #CE9559",
"^  c #D7AD5B",
"/  c #CA9768",
"(  c #D99666",
")  c #D79B74",
"_  c #E79C68",
"`  c #C8B96A",
"'  c #C5AB7A",
"]  c #C5AD79",
"[  c #D4AB70",
"{  c #C9B775",
"}  c #CDBB74",
"|  c #CCB47B",
" . c #D3BB7B",
".. c #D4BC7D",
"X. c #E9A771",
"o. c #CDC66C",
"O. c #D3C96A",
"+. c #DBD569",
"@. c #D3C375",
"#. c #D9C776",
"$. c #DACB75",
"%. c #D4C578",
"&. c #DAC47D",
"*. c #DEC97D",
"=. c #DBD177",
"-. c #E2DB6C",
";. c #E3CD76",
":. c #E2CC7E",
">. c #E2D476",
",. c #E6D977",
"<. c #EBDE75",
"1. c #E5D27C",
"2. c #E9D67D",
"3. c #EBDB7B",
"4. c #F1DE7F",
"5. c #EDE276",
"6. c #EEE27A",
"7. c #EFEA7E",
"8. c #F1E676",
"9. c #F5EC75",
"0. c #F3E47C",
"q. c #F5EA7A",
"w. c #F9EF78",
"e. c #F7F173",
"r. c #F8F273",
"t. c #F9F37C",
"y. c #5F6C8A",
"u. c #6A738B",
"i. c #77829D",
"p. c #7A87A1",
"a. c #8C8C8A",
"s. c #8D8E90",
"d. c #969596",
"f. c #A5908C",
"g. c #B7AC8A",
"h. c #808DA7",
"j. c #8693AB",
"k. c #979DAE",
"l. c #8E9FB8",
"z. c #919EB6",
"x. c #A39FA8",
"c. c #9DA0AD",
"v. c #93A2BA",
"b. c #99A4B8",
"n. c #A7A8AA",
"m. c #AEB1AD",
"M. c #B3B5AC",
"N. c #A4ACB4",
"B. c #AEB2B4",
"V. c #B4B5B7",
"C. c #BDBDBC",
"Z. c #C69E88",
"A. c #D8B48A",
"S. c #DBB596",
"D. c #EDB68B",
"F. c #C5BAAD",
"G. c #D5B6A5",
"H. c #C5BCB9",
"J. c #BDC4BA",
"K. c #DDC581",
"L. c #D9C885",
"P. c #CFC99D",
"I. c #D7CA99",
"U. c #D9D694",
"Y. c #E4CD81",
"T. c #E4CA87",
"R. c #E7D181",
"E. c #EBD482",
"W. c #EED983",
"Q. c #EAD78A",
"!. c #F1DB83",
"~. c #F3DE89",
"^. c #EAC69B",
"/. c #FBC99A",
"(. c #E8D797",
"). c #F3DC98",
"_. c #EBE288",
"`. c #F4E283",
"'. c #F6EC83",
"]. c #F8EE84",
"[. c #F4E38B",
"{. c #F6EA8B",
"}. c #F8ED8C",
"|. c #F7F083",
" X c #F9F383",
".X c #FAF28B",
"XX c #ECE797",
"oX c #F4E795",
"OX c #F9EE90",
"+X c #FAF292",
"@X c #DACBA8",
"#X c #C8C8B7",
"$X c #D8C9BA",
"%X c #D8D4BA",
"&X c #E5D8A8",
"*X c #E9DCB8",
"=X c #F4E8A8",
"-X c #F8F2A7",
";X c #EBE1B5",
":X c #F4E6B7",
">X c #FAF3B9",
",X c #9DABC2",
"<X c #A3AFC3",
"1X c #A8B4C8",
"2X c #AAB6C9",
"3X c #B1BAC9",
"4X c #B3BFD1",
"5X c #BEC1CB",
"6X c #B8C3D4",
"7X c #BBC4D4",
"8X c #C8CACC",
"9X c #D3CCC7",
"0X c #D5D7C8",
"qX c #C7CDD8",
"wX c #C6CEDC",
"eX c #CBD0D7",
"rX c #C9D1DE",
"tX c #E0D3D1",
"yX c #EBE3C8",
"uX c #F6ECC6",
"iX c #FBF6CA",
"pX c #EDE6D6",
"aX c #F4ECD7",
"sX c #FBF6D6",
"dX c #FAF3DD",
"fX c #C7D1E0",
"gX c #CDD5E1",
"hX c #D4DAE5",
"jX c #D8DEE7",
"kX c #DCE1EA",
"lX c #E7E9EA",
"zX c #F3EEE4",
"xX c #FCF8E9",
"cX c #E7EAF0",
"vX c #EBEEF3",
"bX c #EEF1F5",
"nX c #F2F3F4",
"mX c #FDFBF4",
"MX c #F5F7F9",
"NX c #FFFFFE",
/* pixels */
"Q.W.E.W.0.3. .| ..&.&.:.R.!.`. .' Y.!.0.0.[.].`.!.Y.! ..`.9.r.<.! {  X[.!.!.W.!.!.!.W.@._.@.j J 8.8.`.`.q.7.Q h 5 Q t.|.",
"$.1.:.:.E.!.!.R.&.A.T.:.E.R.R.W.R.*.3.R.W.W.W.E.A.' | R.E.!.3.*.1.0.4.Y.%.A.R.R.W.1.1.A.! E ! *.W.R.R.W.[.R.L Y #.3.6.W.",
"3.5.E.:.:.Y.Y.E.W.W.E.1.2.8.0.OX-X-X-X-X-X=X@X@X&X(.K.*.Y.Y.:.R.:...] { >.5.0.9.9.e.5.o. .*.E.R.Y.*.*.K.A.R.W.E.T.@.8.9.",
"8.5.6.5.8.8.3.R.E.Q.E._.q.+X.X>XmXmXmXmXNXmXmXmXmXdX_.0.6.E.E.T.A.K.<.q.0.{.OX].e.0.r.r.e.0.0.W.0.9.8.3.%.! | { #.<.9.q.",
" X.X{.}.'.q.9.!.:XdXdXdXdXdXxXxXNXNXNXNXNXNXNXNXNXmXxXdXxXdXdXdXdXdX=X!.!.!.!.0.8.!.!.0.9.'.OXOX}.'.q.9.`.E.E.3.4.!.4.9.",
"1.&X:X:X:X:X:X:XpXvXvXvXvXvXvXvXvXvXvXvXvXvXvXvXMXNXNXNXNXNXNXNXNXNXaX*X*X*X:X;XQ.!.!.!.!.!.W.W.W.W.!.!.W.Y.Y.Y.:.:.Y...",
"@.yXNXMXmXMXMXMXlXrXrXrXrXrXrXwXfXrXrXrXrXrXwXfXvXmXNXMXNXNXNXNXNXNXNXNXNXNXNXxX-X`.Q.(.E.2.0.9.0.3.1.R.R.1.Y.*. .] } $.",
"q.iXMXjXhXjXhXhXrXwXwXwXwXwXwXwXwXwXwXwXwXwXwXwXgXhXhXgXcXNXNXNXNXNXNXNXNXNXNXNXxXxXxXxX;X0.r.r. X Xq.8.<.1.1.1.,.5.e.t.",
"E.=XpXrXrXwXwX7XrXrXrXwXrXwXwXrXwXwXwXwXwXwXfXkXkXkXkXkXbXNXNXNXNXNXNXNXNXNXNXNXNXNXNXNXaXuXuXuX:X~.[.9.q.r.r.e.r.r..X}.",
"E.!.(.qX7XrXrXwXrXrXwXrXwXrXrXwXwXwXwXwXgXgXkXMXNXNXNXNXNXNXNXNXNXNXNXNXNXNXNXNXNXNXNXNXNXNXNXNXdX).).oX{.9.q.q.q.`.~.!.",
"' %.@XqXwXeXrXwXwXwXwXrXwXwXrXwXwXwXwXgXbXMXNXNXNXNXNXNXNXNXNXNXNXNXNXNXNXNXNXNXNXNXNXNXNXNXNXNXmXmXmXmXdX[.!.!.!.!.E.E.",
"} ] Z.F.7XwXwXrXwXrXwXwXrXwXwXwXwXlXcXvXNXNXNXNXNXNXNXNXNXNXNXNXNXNXNXNXNXNXNXNXNXNXNXNXNXNXNXNXNXNXNXNXmXpXaX;XR.1.1.0.",
"r.9.5.,.%XeXrXrXrXwXrXwXwXrXwXwXfXcXMXMXnXnXMXNXNXNXNXNXNXNXNXNXNXNXNXNXNXNXNXNXNXNXNXNXNXNXNXNXNXNXNXNXNXNXNXzX@X&XU.Y ",
"0.0.9.9.|.;X7XwXrXwXwXwXwXwXrXwXwXgXgXrXrXrXjXMXNXNXNXNXNXNXNXNXNXNXNXNXNXNXNXNXNXNXNXNXNXNXNXNXNXNXNXNXNXNXNXNXmXMXyX..",
"..*...| L.@X7XwXwXrXwXrXrXwXwXwXwXwXwXwXwXwXrXhXjXjXjXjXjXjXjXvXNXNXNXNXNXNXNXNXNXNXNXNXNXNXNXNXNXNXNXNXNXNXNXNXNXNXmXdX",
"1.5.W.W.E.(.0XwXwXwXwXrXrXrXrXwXwXwXwXwXwXrXwXwXwXwXwXwX7X4XwXjXrXB.8XkXjXcXvXbXNXNXNXNXNXNXNXNXNXNXNXNXNXNXNXNXNXNXNXNX",
"!.!.!.!.W.R.L.9XwXwXwXqXwXwXwXwXqXrXeXeXeXeXeXeXeXeXeXeX3Xb.7X2Xu.% u.b.,XqXwXgXMXNXNXNXNXNXNXNXNXNXNXNXNXNXNXNXNXNXNXNX",
"0.q.q.q.8.8.q.oX9X4X<X,X,X,X,XH.XXXXXXXXXXXXXXXXU.(.(.XX_.U.V.m r u.j.<X4XwXwXwXhXvXNXNXNXNXNXNXNXNXNXNXNXNXNXNXNXNXNXNX",
"w.].}.t.r.t.}.[.*X6X,Xl.j.f.f.E ` X.;.0.q.e.q.].+X Xr.t..X{.P.T n z.,X,X3XG.G.G.G.*XaXlXnXNXNXNXNXmXsXiXsXsXmXmXNXNXNXNX",
"W.!.!.[.0.`.!.!.&X5Xz.z.f.D G G G A / :.1.5.!.W.W.[.`.0.~.!.(.V.l.l.z.c.x.Z.) D.X.D.&X0XlXmXmXmXNXmX:X).).~.sXmXmXNXNXNX",
"4.4.2.E.1.E.E.E.T.I.b.f.G G G G S 2 5 8 g W 3.5.3.E.E.R.E.(.8X1Xl.z.Z._ ) x.B.9X^.$X9XU.(.oX=XxXNXmXmXmXdX(.Q.I.@XzXNXNX",
"9.9.0.W.E.E.R.2.8.7.U.#.^ G G G S g f f X h Y %X*X%X%X%X%X%X3Xb.k.g.) _ ( M s M S.&X&X3.5.t.].:XuXaXmXNXmXsXoX3.6.>XuXuX",
"r.0.!.R.E.!.0.w.r.e.e.9.<.^ ~ ~ / f.s.y.l u N 7XfXfXwX7X6X6Xb.v.x.) _ _ ~ 6 @ 3 A.oX.X'. X9.0.!.E.).dXxXxXmXiX+X.X0.q.q.",
"`.!.E.R.:.2.4.q.9.9.q.4.0.8.2.2.1.R.g.i.1X5X7XeXwXwXwX,Xv.v.v.v.v.k.Z._ _ ( ( _ /./.~.!.[.`.W.E.Y.Y.Q.[.>XmXNXdX~.q.q.0.",
"!.E.L.&.&.R.W.W.!.!.!.E.2.2.2.4.3.3.@X2XwXfXgXgX4X1X<Xu.z.jXV.b.l.v.V.S._ _ D.H.0X&X3.3.R.W.W.1.K.K.R.E.).:XxXmXdX(.R.%.",
"j k E ! ' ] K.R.!.E.R.:.<.w.w. X.XXX%XwXwXwX4X4Xj.u.u.h.1XtXC.N.b.v.2XC.S.S.H.4X4X%XXXq.0.2.1.1.1.1.1.:.:.K.yXzXaXyXXX5.",
"R %.=.6.5.5.$.*.!.E.W.4.q.4.~.~.[.0XwXwXwX1Xz.j.b y n qXkXC.C.V.V.,Xv.<X8XqX2Xb.v.3X0Xq.e.t.{.{. Xt.9.8.*...A.&.{.xXiX X",
"{.[.[.[.`.0.0.`.E.E.E.1.E.!.!.E.(.0XwXwX<X,Xh.v t t v N.tXlXvXzXlXlX2Xv.,X,X2X7X6X2XV.W.0.'.~.[.[.`.8.0.!.W.W.1.W.=X=XW.",
"E.!.4.4.R.R.R.R.1.:.:.:.1.1.1.1.R.J.6X2Xv.p.n 0 0 n k.8XlXNXNXNXNXmX8Xb.z.l.,X4XrX1Xn.Q.!.E.!.4.W.E.E.E.W.Y.:.*.#.| ' ] ",
"<.9.w.9.0.3.%.] ] &.:.:.3.9.9.t.7.M.v.l.j.n t l n k.MXMXnXnXnXnXnXbX8XM.N.b.z.b.6X1Xm.T.1.3.9.w.t.8.3.1.1.Y.K.] ] ] ,.9.",
" X.X}.{.+X X9.5.=.>.5.9.e.e.t..XoXM.v.j.x 9 c eXlXvXmX9XC.H.#X3X3XJ.U.7._.M.v.v.b.v.m.R.R.0.9.'.{..X X9.9.5.>.>.5.e.r.t.",
"OX~.~.!.!.!.0.9.r.r.e.r.9.9.!.~.~.U.J.p.i y.5XMXNXbXeXn.d.d.d.d.g.U.|.e.`.I.M.l.v.M.P.R.:.E.!.!.!.!.!.0.9.r.r.r.r.r.q.!.",
"0.!.!.!.!.!.!.0.w.0.0.0.0.!.!.W.W.*.g.u.i s.tX9X9X3Xx.d.a.a.s.f.g.5.0.q.!.W.I.m.m.P.Y.*.R.E.E.W.!.!.!.W.0.q.0.0.0.0.!.!.",
"0.:.R K &.:.T.2.2.4.E.W.W.R.1.1.,.K u y e a 3 3 < g a.n.m.m.m.I.3.!.W.E.R.;.2.W.W.3.5.2.*.R.E.W.W.E.E.E.4.!.!.!.W.W.E.R.",
"j d L W } @.@. .| :.:.Y.3.<.q.+.L l 0 0 q , *     < a.n.C.#XI.T.E.R.1.3.8.9.9.r.r.r.r.r.8.8.8.1.;.1.3.2.;.R.R.R.&.K J J ",
"h O.r.t.-.O.O.O.` ` [ ` ` ` O.U a w w w w g B 6 2 g M f.d.a.` >.E.W.!.q.q.9.q.}.+XOX Xr.r.r.r.r.w.r. Xt.w.8.E.W.E.{ Y ` ",
"t.t.e.8.P : 1 1 1 1 1 1 1 1 1 1 : : : - - F D._ _ S 3 M l # % I 1.R.R.E.W.!.W.~.~.W.!.0.q.9.r.r. XOXOX~.!.W.E.E.R.R.!.'.",
"q.0.;.K 6 : ; ; - - - - ; ; ; ; - - - - ; E /._ _ D ; w % X X d K :.Y.E.E.E.W.W.W.!.!.!.0.!.0.!.~.!.!.!.!.R.Y.1.Y.R.R.R.",
"R.E.:.I P I P P I P P P K a , , , , , w , F /.D.X.D : # o o o o d R  .;.,.9.<.1.R.E.4.3.R.R.E.!.!.!.E.1.Y.Y.1.:.| | | @.",
"8.3.3.!.2.1.,.3.2.:.;.1.` d q 9 q q q q y C S.S.) B = # o o o X O & ` 8.t.t.r.9.8.3.r.9.8.<.1.R.!.2.1.,. .] ..&.%.>.9.t.",
"$.$.5.w.w.w.t.].'. X.X{ j y q q q q q 0 q u f f r + X O O O O O O & %.OXOXOX`.`.0.w.w.w.r.w.q.'.9.9.r.t.].'.'. X.X+X}.OX",
"&.K.R.].w.].{.~.!.W.! k 0 0 q 0 q i s i s p y 0 O o O O O O O O O & } W.E.R.W.!.!.!.!.w.q.0.[.[.].w.].[.~.!.[.[.~.W.W.R.",
"!.W.E.!.4.!.!.E.Y.{ g 0 q q t y i s v v z z s q O O O O O O O O < k ` 1.3.<.8.8.3.R.!.0.4.W.W.E.!.!.W.W.!.W.E.E.R.1.3.<.",
"8.q.4.E.R.1.1.1.W f t q e e s s v s z b x n l & % O O O O O O O h @.5.9.r.w.r.r.9.3.:.1.3.0.8.3.E.R.R.R.R.1.2.1.3.8.<.#.",
"w.0.!.2.2.E.2.U h q q i s s b s v s v N { @.O.o.V $ + X o o o L +.e.e.e.9.9.q..X.X.X].9.r.e.q.!.R.E.E.4.9.w.w.r.r.$.@.*.",
"q.0.!.W.1.;.` 8 % % q p s s n s b T T g._.}.8.O.V . $ + # < H +.r.9.8.9.q.`.!.!.W.~.{.[.{.q.0.W.E.R.W.0.e.r.e.r.0.q.w.q.",
"!.E.1.Y.:.] 4 @ . $ 9 p s m N m M %.E.R.W.W.` 7 @ @ . 4 4 V ;.0.0.!.W.5.3.E.W.E.E.E.E.!.!.!.W.Y.Y.:.E.!.4.4.0.!.!.0.3.1.",
"T.K.Y.| K 4 > > @ $ e y M o.=.=.=.5.9.5.8.Q j > @ @ < P W ] R.!.W.E.1.3.5.0.q.5.9.8.8.0.E.R.W.Y.:.:.:.1.W.2.W.W.1.1.<.<.",
">.&. .@.H @ 1 Z Z P E R Q 8.'.}.}.w.9.r.r.Y .   @ 7 P o.=.&.Y.R.R.1.6.9.q.}.OX'.r.w.r.r.e.<.4.2.4.8.<.3.:.Y. .'  .*.>.} ",
"'.}.OX{.L @ 6 ` E.W.E.4.!.W.!.W.!.q.0.!.0.^ 7 $ $ H ,.9.r.0.!.!.!.!.0.!.!.!.!.0.q.4.4.q.r.t.OXOX}.q.w.r.!.!.R.K...&.<.<.",
"!.R.W.Y.H @ > 7 W :.:.:.E.E.R.1.E.1.W.!.!.3.o.4 @ > V #.!.!.E.R.Y.:.R.W.E.1.R.R.2.!.!.!.4.!.!.!.!.!.!.!.W.R.R.Y.:.E.W.R.",
"] | ;.1.W I W W } :.:.:.1.3.3.8.8.9.0.2.E.E.*.Q ` U W *.:.E.E.:.Y.K.1.1.3.<.8.9.0.3.E.E.E.E.4.q.0.2.:.R.E.Y.:.:.:.1.:...",
"*.9.w.t.].q.<.3.;.;.:.,.9.w.r.t. X Xw.4.1.E.2.9.r.t. X'.5.3.1.;.;.;.<.e.r.t. X Xt.q.3.E.2.0.r.r.t. Xq.<.3.;...| &.0.r.r.",
"w.w.0.'.[.{.9.r.e.e.w.w.e.r.{.}.[.[.0.0.!.R.R.0.0.[.[.[.q.r.e.9.9.e.r.w.w.}.}.[.[.4.4.2.R.2.q.~.[.[.{.w.9.9.6.3.0.w.t. X",
"q.4.0.q.4.W.!.0.w.q.9.w.9.0.!.!.!.!.!.1.Y.:.Y.W.W.W.!.!.!.0.9.w.w.w.w.9.!.!.W.W.!.E.R.:.:.E.W.W.W.W.!.!.0.r.r.9.3.Y.L.' ",
"4.W.W.E.W.W.!.0.w.4.4.4.4.4.E.E.!.!.E.:.:.:.R.Y.W.!.!.!.!.!.0.0.!.4.!.4.W.E.W.!.E.1.:.:.R.R.E.!.W.W.E.W.8.9.6.;. .{ &.Q ",
"] | ' | ..&.:.&.Y.T.R.R.1.:.1.<.9.9.9.9.9.<.1.3.E.R.1.R.Y.Y.R.Y.Y.K.K.| ;.3.8.9.9.9.9.8.,.3.2.E.T.] ] | ' :.E.E.0.e.q.$.",
"W ;.&.1.5.9.5.#.#. .Y.2.8.q.w.r.w. X Xt.r.w.e.r.8.3.3.8.9.5.3.Y.' ' ' #.9.r.r.t. X Xt.r.r.w.9.<.>.,.8.<.*.#.3.0.9.w.e.+.",
"r.r.q.w. X+X.Xt.0.W.W.W.W.0.0.4.[.{.[.[.'.9.r.r.r.r.t..X.X Xq.!.W.R.E.4.0.!.`.[.[.[.{.9.w.w.r.r.t. X.X.Xw.q.q.0.8.0.w.r.",
"t. Xq.!.[.[.!.!.E.Y.Y.:.R.E.!.W.W.!.!.W.!.0.9.0.w.q.+X[.!.!.!.R.Y.:.:.R.W.W.!.!.!.W.!.4.9.0.q.8.{.OX~.!.!.E.1.:.:.;.4.0."
};
