/* XPM */
static char *result[] = {
/* columns rows colors chars-per-pixel */
"60 60 235 2 ",
"   c #161630",
".  c #1A1932",
"X  c #261A2D",
"o  c #2B1D2B",
"O  c #331D23",
"+  c #391F21",
"@  c #201A32",
"#  c #392126",
"$  c #332F35",
"%  c #471928",
"&  c #571C27",
"*  c #591B25",
"=  c #521E2B",
"-  c #442423",
";  c #572828",
":  c #51342E",
">  c #492534",
",  c #62382F",
"<  c #49463B",
"1  c #574932",
"2  c #6D4736",
"3  c #645237",
"4  c #755539",
"5  c #7C703C",
"6  c #2D2C44",
"7  c #262C4C",
"8  c #292E4D",
"9  c #322B46",
"0  c #362F48",
"q  c #2A304F",
"w  c #36364C",
"e  c #2D3454",
"r  c #393D57",
"t  c #353C5B",
"y  c #3B4550",
"u  c #3B4364",
"i  c #484B59",
"p  c #5A5350",
"a  c #6D5A51",
"s  c #696553",
"d  c #787151",
"f  c #4E4F63",
"g  c #414B6D",
"h  c #505670",
"j  c #685B64",
"k  c #656571",
"l  c #975846",
"z  c #A05A45",
"x  c #887B4A",
"c  c #8E794F",
"v  c #BB6D49",
"b  c #B86E4D",
"n  c #AB7554",
"m  c #927761",
"M  c #887776",
"N  c #C2734A",
"B  c #968B4A",
"V  c #898259",
"C  c #998955",
"Z  c #9A9557",
"A  c #A18854",
"S  c #AC9454",
"D  c #A69758",
"F  c #AAA55D",
"G  c #BCB15B",
"H  c #978D6E",
"J  c #A59766",
"K  c #B3936F",
"L  c #A7A465",
"P  c #B7A666",
"I  c #BCB764",
"U  c #BAA677",
"Y  c #C3B65C",
"T  c #C7976F",
"R  c #DA9B67",
"E  c #D59D79",
"W  c #E79C68",
"Q  c #D3A76B",
"!  c #C8B36E",
"~  c #C4AD76",
"^  c #C0A57A",
"/  c #C5AC7A",
"(  c #C8AF7B",
")  c #C8B474",
"_  c #CDBB74",
"`  c #CCB37B",
"'  c #CFBB79",
"]  c #D2BB7B",
"[  c #D3BC7C",
"{  c #EBA16C",
"}  c #E6A577",
"|  c #E5B574",
" . c #CDC66F",
".. c #D4C96B",
"X. c #DED66C",
"o. c #D5C475",
"O. c #D8C776",
"+. c #D7C973",
"@. c #DACB75",
"#. c #D5C279",
"$. c #DBC47D",
"%. c #DEC97C",
"&. c #DDD177",
"*. c #E2DA6B",
"=. c #E0CF77",
"-. c #E2CC7E",
";. c #E2D575",
":. c #E5DA74",
">. c #EADD76",
",. c #E5D27C",
"<. c #E8D778",
"1. c #E9D57E",
"2. c #EBDB7B",
"3. c #F1DE7F",
"4. c #EEE375",
"5. c #EFE870",
"6. c #EEE17A",
"7. c #F1E676",
"8. c #F5EC75",
"9. c #F3E47C",
"0. c #F5EA7A",
"q. c #F9EF7A",
"w. c #F7F173",
"e. c #F8F273",
"r. c #F7F07B",
"t. c #F9F37C",
"y. c #5D6884",
"u. c #6A738C",
"i. c #6E7A94",
"p. c #777E96",
"a. c #76829A",
"s. c #7D8AA4",
"d. c #8D8D8D",
"f. c #988E8E",
"g. c #828798",
"h. c #979797",
"j. c #A38A88",
"k. c #AB9686",
"l. c #A89B97",
"z. c #B49E99",
"x. c #B8AF8B",
"c. c #9598A7",
"v. c #8D9BB3",
"b. c #8D9FB9",
"n. c #929DB3",
"m. c #909FB8",
"M. c #A29FA9",
"N. c #98A3B6",
"B. c #93A2BA",
"V. c #9CA9BD",
"C. c #A9A9AD",
"Z. c #B2B5AF",
"A. c #A5ABB4",
"S. c #B3B3B3",
"D. c #B8B9B8",
"F. c #C19B87",
"G. c #C5B892",
"H. c #E9B48C",
"J. c #CBBDAD",
"K. c #D6B6A3",
"L. c #DDC580",
"P. c #DBCB88",
"I. c #D6CB95",
"U. c #D8C896",
"Y. c #E4CD81",
"T. c #E4CF8A",
"R. c #E7D181",
"E. c #EBD482",
"W. c #EFD982",
"Q. c #EAD78A",
"!. c #F1DB83",
"~. c #F3DF89",
"^. c #F8C795",
"/. c #EBD297",
"(. c #E9D995",
"). c #EEE184",
"_. c #F4E283",
"`. c #F6EB83",
"'. c #F8EE85",
"]. c #F5E48B",
"[. c #F6EA8B",
"{. c #F8ED8D",
"}. c #F7F085",
"|. c #F9F383",
" X c #FAF38B",
".X c #EDE995",
"XX c #F5E893",
"oX c #F9EE90",
"OX c #FAF291",
"+X c #F8F39A",
"@X c #CCC6A8",
"#X c #DCD1A9",
"$X c #D6CEB6",
"%X c #D9D4B7",
"&X c #D9D4BD",
"*X c #DBDBBD",
"=X c #EFCBA6",
"-X c #E5D7A4",
";X c #DDE0BD",
":X c #ECE4A3",
">X c #EDE7A7",
",X c #F4E8A4",
"<X c #F3EDB5",
"1X c #9DABC1",
"2X c #A1AEC4",
"3X c #A5B1C6",
"4X c #ABB7C9",
"5X c #B7BCC7",
"6X c #B6BFD0",
"7X c #B9C2C8",
"8X c #B6C0D2",
"9X c #BBC4D4",
"0X c #BEC8D8",
"qX c #C6C5C5",
"wX c #CCCECC",
"eX c #D0CFCC",
"rX c #D8D7C5",
"tX c #C7CDD6",
"yX c #C6CEDC",
"uX c #CBD1D7",
"iX c #C6D0DF",
"pX c #C9D1DD",
"aX c #D8D9D9",
"sX c #F0EEC4",
"dX c #FAF6D8",
"fX c #CDD4E1",
"gX c #DADDE2",
"hX c #DCE1EA",
"jX c #E4E4E5",
"kX c #E7E9EC",
"lX c #FAF5E6",
"zX c #EAEDF2",
"xX c #F5F6F7",
"cX c #F9F9F7",
"vX c #FEFEFE",
/* pixels */
"Q.W.R.W.9.2.[ ` #.#.L.L.R._._.[ / R.!.9.9.].'._.!.Y.U ' !.8.e.>.K ' |.{.!.W.!.!.W.W.Q.#.~.o.s V 7.9.!._.|.8.I d < I e. X",
"@.,.Y.-.E.W.W.E.H.[ L.R.E.R.,.E.R.%.2.R.W.!.W.E.H.( ' R.Q.!.2.%.R.9.3.R.' H.R.R.E.2.R.[ U J U %.W.R.R.W._.R.L F +.3.6.W.",
"2.4.E.-.%.Y.Y.E.!.W.W.-.,.7.8.`.t.8.8.8.8.2.[ ` _ %.%.%.Y.-.-.Y.-.[ ( _ X.6.`.7.8.8.4.o.] -.R.1.-.%.%.L.H.Y.2.,.-.[ 7.w.",
"7.4.6.4.7.7.2.R.E.E.R.2.0. X X[.{.r.8.0.w.w.7.4.).2.6.7.4.1.R.-.[ ] >.9.0.[.[.`.w.8.w.w.w.7._.).0.7.7.6. ./ ( ) O.>.9.8.",
"|.{.[.'.`.0.q.3.!.!.E.W.!.~.!.!.!.9.9.!._.8.q.{.oXoX'.0.8.9.!.!.W.W.!.!.!.W.W.3.9.9.!.9.8.'.XX{.{._.8.q.W.Q.2.2.3.!.3.0.",
"Y.W.E.!.W.R.R.E.R.Y.Y.-.R.E.Y.,.,.1.E.!.!.!.!.!.W.W.!.E.!.!.E.-.Y.-.1.Y.-.-.1.1.E.W.!.!.!.!.!.!.!.W.W.!.W.R.Y.L.-.R.Y.[ ",
"o.' @.6.<.` ` ] [ L.[ ` ,.>.7.7.8.8.7.1.1.E.R.2.9.0.9.,.-.-.R.-.$.[ ` ( ] >.w.8.8.2.R.E.R.1.9.0.7.2.,.Y.R.-.Y.P.[ / _ @.",
"8.w.r.|. Xq.7.<.O.] ` @.8.e.e.|. X|.t.7.E.E.3.8.q.t. X|.8.4.2.,._ ) ;.7.e.t. X Xt.8.2.E.E.9.w.e.|. Xq.7.>.<.1.;.:.5.e.t.",
"1.9.~.~.~._.0.e.e.+XdXsX&X*XrXrXrXrX&X&X&XeX$X&X%X(.!.~.9.q.e.w.w.w.w.w.0.[.~.~.~.3.1.E.-.E.9.!.~.~._.q.8.w.w.w.e.e. X{.",
"R.!.!.!.W.!.!.9.q.+XlXpXyXyXyXiXpXyXpXyXpXyXiXyXaX%X-X-X-X-X,X,X'.0.9.8.!.!.!.!.!.E.Y.-.-.E.!.W.W.W.!.!.0.8.8.8.9._.~.!.",
"/ [ 1.W.E.R.R.3.9.!.Q.wXyXyXyXyXpXtXyXpXtXiXpXyXpXpXtXpXuXuXhXcX<X!.~.~.W.R.E.3.1.1.<.=.Y.Y.1.W.W.W.W.W.9.0.!.!.!.W.E.E.",
"] / ^ ( ( ^ ( $.1.E.Q.wXyXyXyXyXyXyXiXyXiXyXiXyXtXyXyXfXzXxXcXvXcXlXlXlX:X3.7.w.w.q.w.8.3.1.3.1.-.1.-.-.` ` H.Y.R.,.<.9.",
"w.8.>.<.4.7.8.7.2.1.E.#XeXyXyXyXyXyXpXyXyXiXiXyXfXhXhXzXvXvXvXvXvXvXvXvXdXsXsXOX X Xt.q.e.e.w.7.>.7.0.9.>.@.[ ` ( O. .F ",
"9.9.w.0.'. X{.`.9.W.W.E.#XtXyXyXpXyXpXyXiXyXiXpXfXzXcXxXxXxXcXvXvXvXvXvXvXvXvX<X,XXX].0.8.w.w.e.t. XoX{.q.9.W.E.Y.Y.O.' ",
"] $.[ ` P.E.W.W.E.-.-.-.T.-XtXyXpXyXyXyXyXyXyXyXiXfXfXfXfXfXhXvXvXvXvXvXvXvXvXcXcXlX~.!.0.3.0.9.'.].!.!.W.E.Y.Y.-.Y.E.W.",
",.7.3.E.E.!.W.W.W.R.E.Y.$.U.qXyXyXyXiXpXiXyXyXyXyXyXyXyXyXyXfXhXhXhXhXhXhXhXhXcXvXcXdX,XE.W.!.W.!.!.W.W.W.W.R.R.Y.Y.Y.2.",
"!.!.!.!.E.Y.-.1.L.` ` / ~ T.%XuXyXyXyXyXyXyXyXyXyXyXpXiXpXiXyXyXyXyXyXyX8X8XpXhXqXD.gX%XU.#X#XQ.W.E.R.,.,.R.-.-.%.,.E.W.",
"9.0.0.0.7.7.w.0.<.#.#.R.`. X X*XyXyXyXyXyXyXyXyXpXtXuXuXuXuXuXuXuXuXuXuXD.4X9XB.f w v.V.4XpXuX%X2.0.4.0.0.4.9.9.q. X).$.",
"0.'. Xt.e.t.{.].].[.OXoX].).!./.$XyX3X1X1X1X1X@X>X+X.X.X>X,X.X-X>X>X:X:XI.@Xn.i f a.n.4XyXyXiXpX;Xr.|.{.[.].{.{.XX]._.!.",
"!.!.!.].9._.~.!.W.W.W.W.R.R.<.<.-X9X1Xb.m.j.j.K Q | <._.~.!.!.!.W.W.R.R.R.T.x.k u.1XB.3XD.K.K.K.U._.-X-X!.!.!.!.R.$.` %.",
"3.3.1.E.R.E.E.R.R.R.R.,.2.8.8.w..XwX1Xn.j.b N v v v P o.#.=.1.1.R.R.<.7.7.0..XS.b.B.A.M.z.E } } | /.eX$XR.R.1.[ ( o.;.4.",
"w.8.9.E.E.R.R.2.7.7.7.w.e.e.w.w.q..XZ.j.b b v N v , : 1 p ! >.9.7.7.r.w.w..XtX2Xv.C.E W F.n.7X$X=XuX#XT.2.7.7.<.4.w._.9.",
"e.9.!.E.E.W.9.w.e.w.e.w.8.8.9.3.~.~.#XT.=.N N N b p h i o d P *X;X*X*X*XrXqX3XB.l.E W W n y i K =X#X/.9.e.e.e.r.'.0.7.0.",
"~.!.E.R.Y.R.9.0.0.w.0.W.9.8.3.!.W.W.1.!.W.Q Q R T k.d.u.h f p.yXiXiXyX9X8X4Xm.B.z.E R { n , : J ^.R.E.9.7.q.q.'.~.9.0.3.",
"!.E.Y.$.$.Y.E.!.!.!.!.E.1.1.<.3.2.2.4.2.9.1.E.W.1.-.x.s.6XyXtXyXyXyX6Xv.m.1XB.m.n.M.E W W W E H./.T.R.E.!.!.!.!.E.Y.-.%.",
"s d J U ^ ` [ R.W.E.R.1.>.8.q. X|.w.8.e.w.7.2.,.,.,.@X6XyXiXiX0X4X2Xv.y.5XgXA.m.m.V.qXH.W } J.eX&XR.,.-.Y.L.$.[ _ %.4.4.",
"L #.P.6.>.4.;.-.!.E.W.3.0.!.~.~.].8.8.9.8.e.w.}.[.>XaXyXiX6X6X3Xi.y.p.n.tXwXS.M.n.B.4XJ.K.K.4X4X5X;X`.7.O.H.[ #.4.|. X|.",
"'.~.[.]._.9.9.!.E.E.1.1.E.!.!.1.E.!.!.!.!.9.0.].XXwXyXyX0X1Xv.p.t e u.gXeXqXqXqX5X3Xm.4XtX6X2XV.3X9X(.9.W.W.W.R.1.].].!.",
"E.!.!.!.E.R.R.R.-.-.-.-.R.,.,.,.2.2.3.W.W.W.W.W.~.eXiX9X1XB.i.t 8 t y.S.jXcXcXcXcXhXV.m.B.1X9XyX8XN.U.Q.E.R.Y.P.$.` ( ~ ",
"2.8.e.0.9.2.#./ ` [ -.-.2.7.8.w.e.t.8.2.,.R.,.9.`.D.3X2XB.u.u 7 e p.tXjXcXvXvXvXvXzXS.n.v.B.2X9X0XN.I.<.,.%.$.) ^ ! ;.8.",
"t. X'.{.oX|.w.5.&.;.4.8.e.e.t.OXoX{.q.9.W.E.E.8.`.C.b.v.i.r t u.g.tXvXkXjXjXjXjXjXaX@XJ.C.v.m.3X4XN.(.w.8.4.;.;.7.w.e.r.",
"oX].!.!.!.!.9.0.e.e.w.e.w.8._.~.!.!.W.1.E.R.%.W.W.Z.1Xg.t e g.cXvXvXjXS.S.S.Z.S.Z.J.T.Y.I.N.B.B.N.A.I.9.8.e.w.e.e.w.0._.",
"9.!.!.!.!.!.!.9.8.9.9.9.9.!.!.W.W.!.W.1.-.$.E.R.W.Q.J.s.t c.zXvXvXjXS.f.d.d.d.d.I.P.R.%.P.U.N.B.A.U.!.!.9.q.3.9.9.9.!.!.",
"9.-.J J $.Y.Y.E.3.!.W.!.W.R.-.1.9.9.2.2.>.,.-.,.E.) H h e M z.k.f.h.h.h.h.h.l.x.&.4.4.<.,.Y.I.J.U.W.R.E.2.3.!.W.!.W.E.1.",
"d p C I _ o.o.] ` Y.$.-.2.>.8.8.w.w.r.8.e.8.7.5.o.s 7 7 8 > ; = + p h.S.D.D.@X`.w.r.e.w.7.5.4.,.-.<.2.<.-.-.R.1.#.J m V ",
"d  .w.w.e.|.r.8.>.E.W.W.9.8.7.7.`.OX[.[.q.8.w...s e q 7 7 : ; - + p f.C.C.@X6.{. XoX}.w.e.w.w.8.8.e.|.q.q.7.!.W.E._ F I ",
"7.e.w.|.OX[.]._.!.E.E.1.! A A A A A A A A B S x > > > % > m T b b l a f.k j D Y.!.!.~.!.7.8.8.e. X XXX]._.!.E.R.-.E.~._.",
"0.0._.!.~.W.W.!.E.-.-.! c * * * * * * & * * * * * = * * & T ^.{ W l > p 9   < P -.!.!.!.9._.9.!.~.!.!.!.!.E.-.Y.Y.,.E.Y.",
",.W.W.!.W.E.R.E.E.R.-.c 2 4 4 4 4 4 4 4 4 ; ; = = = = = = F.H.{ W z % @ . . . @ D Y.2.2.R.R.W.!.W.W.W.-.-.Y.R.-.` ` `  .",
"7.,.W.3.E.,.2.2.1.-.,.@...*.:.>.*.*...*...p 9 9 9 9 9 9 0 k.=XH.} z % . . . . . < Z 5.8.8.>.-.1.3.1.1.<.[ ~ [ O.o.;.0.t.",
"@.@.6.w.w.8.t.}.0.|.'. X XoXoX].).0.0.X.L i q q q q 7 7 q j H M m : X . . . . . . x 7.w.e.e.'.9.8.w.q.t.'.`.`.|. X{.{.oX",
"L.L.R.|.8.'.[.~.!.~.[.~.!.W.R.E.W.W.%.J 8 8 8 8 q e e e e q 7 7     . . . . . . . x <.q.9._.].[.'.8.`.[.~.!.~.].].~.W.E.",
"W.W.W.W.W.!.W.W.W.W.R.-.-.<.2.9.7.:.m w 8 8 8 8 e u u y.u u u 7 .   . . . . . . . d 1.9.!.!.E.W.!.!.!.!.!.E.E.E.-.,.<.>.",
"7.0.2.W.R.R.R.R.1.1.] ] 7.w.e.e.*.Z i 8 8 8 t u u u g g u h u @ .   . . . . . . Z ..-.-.,.7.8.2.E.Y.1.E.1.1.1.1.2.7.>.+.",
"w.9.3.R.E.E.W.7.w.w.8.w.w.8.q.X.L r q e t u u g g g g k H K L Z 1 X X . . . $ C &. X`.8.w.e.9.3.E.E.E.1.9.w.w.e.e.;.' @.",
"q._.!.E.E.W.0.e.w.w.w.9.8.8.:.C # 6 8 t u u h g g y.k H 1.q.r.X.d + O X . $ x %.!.~.].[.'.`.9.!.E.Y.W.9.e.w.e.w.9.7.q.0.",
"!.E.R.-.%.E.!._.9.9.3.!.3.*.x : + # 7 t u y.u g k U P.G.W.!...5 : + O O O c %.E.E.E.E.!.!.~.E.Y.-.-.E.W.3.9.9.!.3.9.>.1.",
"L.L.Y.[ ~ U H.| Y.3.!.<._ B 1 - - # 7 e k L U U U [ $.) ` P x - + + 3 F G  .0.4.8.7.7.9.1.R.E.R.-.-.-.R.E.!.W.E.1.-.3.>.",
";.%.[ #.;.<.#.[ ` H.,.2.G # - x B x B x L 5.4.%.` [ O.O.;.c + + + 3 S 7.0.{. X'.w.q.w.e.8.7.3.2.2.9.4.,.-.Y.[ / ` @.:.' ",
"'.OXOX{.q.8.w.!.!.!.W.2.Y + ; ! <.7.3.1.2.w.r. XoX'.'.0.8.D # # + D 2.W.!.!.!.9.0.3.3.8.w.'.oXoX{.q.q.8.3.!.R.$.[ $.2.>.",
"W.R.Q.R.Y.W.!.!.E.-.-.-.P + - 4 P ,.1.!.!._.W.!.!.!.!.!.3.=.D - + 3 D E.E.1.1.R.1.!.!.!.3.!.!.!.!.W.!._.E.R.R.Y.Y.E.E.Y.",
"/ ` =.;.] -.R.E.Y.-.-.-.! A D B Y 7.3.1.E.E.E.2.9.9.3.,.-.R.[ A C B D -.<.>.7.7.7.3.E.E.1.1.9.9.9.1.-.R.E.R.-.Y.Y.,.,.[ ",
"%.7.e.t.|.0.4.<.,.-.-.<.7.w.e.t.|.|.8.6.,.E.2.8.e.t.|.'.7.>.;.-.-.-.>.w.e.r.|.|.t.8.2.R.1.3.w.e.t.'.8.>.<.-.[ ` L.9.w.e.",
"e.e._.'.[.`.0.w.w.8.w.w.w.q.'.oX[.]._.9.W.R.Y.9.9.~.].[.0.w.w.w.w.w.e.w.q.{.].[._.3.!.E.1.W.0._.].].'.q.e.8.4.2.0.8.t.|.",
"9.9.9.0.9.!.!.9.w.8.w.w.w.9.!.!.!.!.!.R.R.-.Y.W.!.!.!.!.!.!.w.q.8.w.q.8.!.!.!.!.!.E.Y.-.-.E.W.W.!.W.!.!.9.w.e.q.2.Y.L.U ",
"!.!.E.E.E.W.!.9.q.3.!.!.3.3.E.1.W.!.E.,.-.L.R.Y.E.!.!.!.!.3.9.3.3.3.!.9.!.E.E.!.W.1.-.-.Y.Y.1.~.W.W.E.E.9.8.7.=.] ' O.! ",
"~ ` U ` [ $.Y.$.Y.Y.E.E.1.-.,.>.8.8.8.8.w.>.1.1.W.1.1.Y.-.R.R.Y.-.Y.H.) -.<.4.w.8.8.w.7.<.2.1.E.Y.( ( ( / Y.E.E.9.w.0.@.",
"P ,.%.1.>.8.4.O.O.` Y.R.3.8.w.w.e.|.|.t.e.e.w.w.9.>.<.7.7.7.2.Y.( ^ / +.8.e.e.t.|.|.t.e.w.8.8.>.,.;.4.4.@.O.2.9.8.e.w.X.",
"e.e.0.q.|.OX Xt.9.W.!.W.W.9.9.3._.XX].[._.8.w.q.e.e.t. X X'.0.3.W.R.E.9.9.!.!.[.[.].`.0.q.w.w.w.r.|. X Xq.0.9.0.7.9.8.e.",
"t.|.0.!.[.~.!.!.E.Y.Y.-.Y.W.W.!.W.W.W.W.!.0.7.0.q.'.oX].!.!.W.1.Y.Y.%.R.W.!.!.!.W.!.!.!.8.9.8.9.[.[.~.~.!.E.,.-.-.-.3.9."
};
