/* XPM */
static char *result[] = {
/* columns rows colors chars-per-pixel */
"60 60 231 2 ",
"   c #2D231D",
".  c #171832",
"X  c #1A1932",
"o  c #28192C",
"O  c #361E21",
"+  c #391F21",
"@  c #3B2828",
"#  c #3F3227",
"$  c #362A36",
"%  c #3C263D",
"&  c #383636",
"*  c #421B1B",
"=  c #52201C",
"-  c #571C27",
";  c #581B25",
":  c #521C2A",
">  c #462925",
",  c #4F3131",
"<  c #6D2E30",
"1  c #683A36",
"2  c #514A3B",
"3  c #6F4A37",
"4  c #704C37",
"5  c #655437",
"6  c #735737",
"7  c #77663C",
"8  c #282943",
"9  c #262C4C",
"0  c #292E4D",
"q  c #302C48",
"w  c #2B304F",
"e  c #3A394A",
"r  c #2D3353",
"t  c #2F3759",
"y  c #343A57",
"u  c #363E60",
"i  c #413E45",
"p  c #3A4262",
"a  c #3F486A",
"s  c #4F4E50",
"d  c #615A44",
"f  c #716C4D",
"g  c #7C7458",
"h  c #424966",
"j  c #424C6E",
"k  c #4C526E",
"l  c #525A72",
"z  c #58617C",
"x  c #736D6E",
"c  c #71736F",
"v  c #7B7476",
"b  c #A25D3F",
"n  c #896A4C",
"m  c #87784C",
"M  c #917B4D",
"N  c #A06F4C",
"B  c #BF6F4A",
"V  c #997971",
"C  c #C16D45",
"Z  c #C1764D",
"A  c #8B825B",
"S  c #998F53",
"D  c #A79354",
"F  c #ACA559",
"G  c #B6AC5B",
"H  c #BCB55C",
"J  c #988E68",
"K  c #A49766",
"L  c #AB9769",
"P  c #AA8779",
"I  c #B48974",
"U  c #A99B77",
"Y  c #A2A167",
"T  c #B6A766",
"R  c #BCB764",
"E  c #BBA675",
"W  c #CD885E",
"Q  c #C7B95F",
"!  c #D99365",
"~  c #D59D78",
"^  c #E89B66",
"/  c #C6B56A",
"(  c #D9B06A",
")  c #C3AC76",
"_  c #C0A57A",
"`  c #C5AC7A",
"'  c #C8AF7B",
"]  c #C5B473",
"[  c #CDBB75",
"{  c #CCB37B",
"}  c #C9B479",
"|  c #CFBC7A",
" . c #D1BD76",
".. c #D0B77D",
"X. c #D3BC7C",
"o. c #D8BF7F",
"O. c #E9A373",
"+. c #CDC465",
"@. c #DDD869",
"#. c #D4C375",
"$. c #D8C776",
"%. c #D1C873",
"&. c #D6CC75",
"*. c #DBCB75",
"=. c #D5C279",
"-. c #DBC47E",
";. c #DEC97D",
":. c #DDD278",
">. c #E3C778",
",. c #E2CC7E",
"<. c #E2D575",
"1. c #E5D974",
"2. c #EADE76",
"3. c #E5D27C",
"4. c #E9D57D",
"5. c #E5DA7A",
"6. c #EBDB7B",
"7. c #F0DE7F",
"8. c #EEE86F",
"9. c #EEE376",
"0. c #EEE17A",
"q. c #F1E676",
"w. c #F5EC75",
"e. c #F3E47C",
"r. c #F5EA7A",
"t. c #F9EF7A",
"y. c #F7F173",
"u. c #F8F273",
"i. c #F7F079",
"p. c #F9F37C",
"a. c #5B6685",
"s. c #656E89",
"d. c #69758C",
"f. c #747C91",
"g. c #7A8397",
"h. c #7986A0",
"j. c #898D9A",
"k. c #999697",
"l. c #B09386",
"z. c #B89F97",
"x. c #AAA58F",
"c. c #8693AB",
"v. c #8992A9",
"b. c #8E9EB7",
"n. c #909FB7",
"m. c #9DA0AE",
"M. c #93A2BA",
"N. c #98A4B8",
"B. c #99A6BC",
"V. c #A8AAAA",
"C. c #B4B3AF",
"Z. c #B5B6AC",
"A. c #A5A9B6",
"S. c #B8B5B5",
"D. c #BEBFBF",
"F. c #CB9C81",
"G. c #DAAB89",
"H. c #C6BA8B",
"J. c #C6A798",
"K. c #C7BD9A",
"L. c #EDB487",
"P. c #C4BDA1",
"I. c #D0BBAE",
"U. c #DDC580",
"Y. c #DECA87",
"T. c #DED686",
"R. c #CAC99B",
"E. c #DBCD97",
"W. c #D4CC9E",
"Q. c #D9D29C",
"!. c #E4CD80",
"~. c #E2CF8B",
"^. c #E7D181",
"/. c #EBD482",
"(. c #EED982",
"). c #E7D88A",
"_. c #F1DB83",
"`. c #F3DF89",
"'. c #F7C89A",
"]. c #E7D697",
"[. c #EDE481",
"{. c #EAE08B",
"}. c #F4E283",
"|. c #F5EB83",
" X c #F8EE84",
".X c #F4E38B",
"XX c #F6EA8B",
"oX c #F8ED8D",
"OX c #F6F084",
"+X c #F9F383",
"@X c #FAF38B",
"#X c #EBE596",
"$X c #F7EB90",
"%X c #F9EE90",
"&X c #FAF191",
"*X c #C3C2A3",
"=X c #C8C9A8",
"-X c #DACFAB",
";X c #DCD2A7",
":X c #CBCDB7",
">X c #CBCABC",
",X c #D8D1B8",
"<X c #E3C5A2",
"1X c #E2D4A2",
"2X c #E1D7AC",
"3X c #DFE1BB",
"4X c #E7E3AB",
"5X c #9DACC3",
"6X c #A2AFC5",
"7X c #A5B2C5",
"8X c #AAB5C8",
"9X c #ADB9CC",
"0X c #B3BDCC",
"qX c #AEBCD0",
"wX c #B2BED2",
"eX c #BAC5D6",
"rX c #BCC6D5",
"tX c #C6C7C4",
"yX c #D2C9C9",
"uX c #CCD1CB",
"iX c #D5D6C5",
"pX c #C5CBD3",
"aX c #C6CDD8",
"sX c #C5CDDB",
"dX c #CAD1DA",
"fX c #D5D5D6",
"gX c #CBD3E1",
"hX c #E5E5E7",
"jX c #EBECF0",
"kX c #F4F4F5",
"lX c #FBFBFB",
/* pixels */
"(.(./.(.e.6...{ o.o.U.!.!._.}.X.' ^._.e.q..XXX}._.^.E ..}.t.u.2.E [ +X$X_._._._.(.(.(.| .X#.f A q.e._.}. Xq.H g 2 R y.OX",
"&.^.U.!./._._./.o.o.!.!./.^.3./.!.,.4.^.(._._.^.o.' { ^./._.2.;.,.e.6.!.G.X.3.^./.6.4.H.E J E ,.(.!.^.(.XX3.Y F $.7.5.[.",
"5.9./.,.,.,.!./._.].,X~.3.q.q.|.t.w.t.w.w.6.X.} ..U.,.,.,.!.,.!.,.o.' [ 1.9.r.r.w.y.2.$. .,././.!.;.;.U.G.!.2.3.!.X.q.w.",
"q.e.2.q.w.q.5.^.^.].pX).r.@X@XXXXXt.w.w.u.y.q.e._.0.0.q.7.3.^.,...X.2.r.r.XX$X|.y.w.u.u.w.r.7._.e.q.q.0.#.` } ' $.2.w.w.",
"+XoX XXX|.r.t.7._.1XpX]._._._.(._.e.e._.e.w.t.XX%XXXXXr.y.q._._.(./._._._.(.(.7.e.7._.e.w. XoXoXXX|.r.w.}././.6.7._.7.r.",
"!./.(.(.(.^././.^.<XpX~.^./.^.,.3.4.(._._._._._._._.(.(._._./.,.!.!.!.^.,.,.4.4.4.7._._._._./.7._._.(._.(.3.^.!.,.^.!.X.",
"#. .*.e.4.{ ' ..X.W.pXH.3.6.9.w.w.y.q.3.^./.^.6.r.r.7.<.,.,./.,.>...{ '  .6.t.w.w.7.^././.4.e.r.e.4.3.3.^.^.,.Y.X.` [ &.",
"w.w.y.+X@Xr.q.2.$.K.eXZ.[.u.p.+X@X+Xp.q././.7.w.t.t.@X+Xw.q.6.,.[ ] <.q.u.p.+X@Xp.w.4.4./.e.y.p.+X+Xt.q.6.<.3.<.1.9.y.p.",
"/.e.}.`..X}.r.w.u.#XrXB.T.u. X$X`.`._.7._.!.,.7.e.`.`.`.e.t.y.y.y.y.u.y.r..X`.`.`.7.(./.,.4.e.`.`.`.}.r.y.y.y.y.u.p.+X%X",
"^._._._._._._.e.u.#XuXA.W./.(._._._._.^.!.>././._.(._._._._.w.w.r.w.r.r.7._._._.(./.^.,.,./.(._._._._._.q.t.r.w.r._.`._.",
"_ -.^._./.^.^.e.e.}.`.aX5XR./.^.(._.6.4.,.,.3.,./._._._._._.r.7._._._.7./.4.4.7.6.4.1.,.,.^.3._._.(.(.(.e.e.`._.(.(././.",
" ._ _ ' ' _ ' U.^./.~.aX5XK.2.9.w.y.w.w.y.9.6.7.(.^.,.3.>.!.3./././.3.3.4.7.w.w.w.w.y.w.4.6.7.3.!.!.^.>.{ { o.!.3.4.4.e.",
"u.w.2.2.9.q.q.q.9.^.].pX6XR.y.y.u.@X@X+Xu.u.u.y.q.9.q.w.t.w.9.3././.7.q.y.y.t.+X@X@Xp.u.u.u.w.9.9.q.r.q.2.$.X.{ ' $.+.T ",
"e.q.w.i.OX%XoXr.e._.).pX0XS.E._.}..X`..X}.r.y.y.u.u.+X&XoX Xr._./././.7.7.7.7.`..X`..Xr.t.u.u.u.p.@X&X@Xr.e._./.!.!.$. .",
"G.;.=.{ Y.~._._.^.!.~.>XaX8XZ.(._._.(._.(.e.e.e.r.|..X`._._./.!.!.!.,.4._._._._._._._.7.r.e.r.e.XX.X_._._.^.!.!.>.!./._.",
"1.9.(./.(.(./._././.3.!.>X9XV.^.^.^.(./.7._./.(._._._._._./._./.!.^.>.o...7.3./././._.(././._._.(._._./._._.^.^.!.!.^.4.",
"_._._._./.^.3.3.-.H.{ ` } :X9XC.0.9.3.2.w.6.1.,.4._._.^.,.3.^.,.;.{ )  .1.u.w.9.5.4.w.9.5.3.!./._./.3.,.^.^.,.,.,.3./.(.",
"r.r.r.w.e.q.r.r.2.| &.^.XX3XrX0XC.{.w.y.u.y.y.q.4.7.e.q.w.w.e.q.e.5.[.@X@X@X|.r.w.w.u.u.u.y.e.6.7.q.q.w.r.9.e.q.r.+X{.U.",
"r. X Xp.u.p.oXXX}.XX&X%X.X].iXeXB.~.}.e.r.t.w. XXX+Xu.u.@XoX.XXX%X%XXX.X`._._._._.e.e.w.w.r.oXXXp.y.+X@X.XXXXXoX%X.X_._.",
"_._.`..Xe._._._._._.(.(./.^.~.>X8XP.~.(.e.e._.(._.}.}.}._._._._._.(.1X,X;X<.6._./.(._.r._._._.`.XXe._._._._._._.^.U.{ ,.",
"7.7.4.4.^././.^.^.3.!.3.6.q.w.|.iX7XP.Y.^./.4.e.4././././.^.^.3.3.3.>XeXuX5.@.5.).E.1X].^.7.6.6.4./././.3.^.^.X.` #.<.9.",
"w.r.7.(./.^.^.6.e.q.q.w.u.y.u.y.OXuX6XR.2.0.w.y.e.(././.^./.e.q.q.w.*X9X0Xj.& g.N.8XdXaX].w.w._./.3.^.^.7.q.e.2.9.u.e.}.",
"t.e._././.(.e.u.u.u.u.y.w.w.r.7.{.dX7X*X+X+Xp.t.7.(././.7.t.u.u.u.u.r.=Xf.$ g.b.8XsXsXdXfX#X}._././._.e.u.u.u.p. Xe.e.w.",
"}.(./.4.!.(.7.e.w.w.w._.r.r.7.(._.].tX9XC.Z.{.`./.3.^.3.(.e.r.w.w.}.}.[.H.d.n.n.5XC.G.G.G./.2X,X^.^.(.7.q.y.t.XX`.r.e.e.",
"_./.~.-.-.^./._._._._././.4.4.7.6.5.:XV.l.l.) ( o.>.-.!.^.(._._.(.(.4.].>XM.n.z.F.z.J.<XL.<X,X-X>.U.^./._._._._./.,.,.$.",
"f n J E _ } G.^././.^.3.2.w.t.@X@Xw.H.I C C C b D / / ] ;.E.;X1X;X;X1X,X9Xn.V.~ ^ I s.v.<X,X-X3.3.3.3.,.,.U.-...| $.q.9.",
"Y %.T.0.0.9.@.3.(._./.7.r.7._.`.}.r.( Z B B B 1 , $ X i *.iXdXdXsXsXsX9Xb.n.~ ^ O.N   # G.%X XXX+Xi.y.q.,.X.X.-.9.@X@X+X",
".X.X.X.X}.e.r._./.(.4.^.(._._./.(._.(.( B B B V s.k e 8XdXdXsXsXsXB.M.B.M.n.m.~ ^ ^ ! ~ L..X.X.X.X_.e.e._./.(.^.6..X.X(.",
"(._.7._.^.^.^./.!.,.,.,.^.4.3.3.5.6.7.4.>.>.>.,.x.f.6XdXgXgXwX5XB.a.0XfXA.n.n.m._ ^ O.yXfX].(.7.(././././.!.,.!.-...' ) ",
"2.r.u.u.e.2.=.` } X.,.,.2.q.y.u.u.p.w.4.,./.4.e.W.8XgXsX9X9Xc.l s.7XjXfXA.A.n.b.S.I.I.7X7XtX4Xw.r.e.2.4.3.!.-.` ) ] <.q.",
"+X@XXXXX%X+Xw.9.<.<.9.w.u.u.p.&X%XoXt.q.(./.4.r.3XgXsXwX5Xh.k h v.fXhXfXfXyXrXB.6XwXqX7X7X9X-X|.@X@X Xw.w.9.<.<.9.y.y.p.",
"$X}._._._._.e.r.u.u.u.u.w.r._.`._._._././.,.,.(.,XpXwXn.c.j r s.hXpXI.hXlXlXlXrXB.b.B.rXsX7X*X_._.(._.e.w.u.u.u.u.y.r._.",
"e._._.`._._._.e.t.e._.e.e.e._._.(._./.^.,.-.4./.P.M.M.c.a 9 u s.0XkXlXkXkXlXkXlXrXN.M.B.eX6X*X(._._._._.e.t.7.e.e.e._._.",
"e.,.K J -.,.,.4.7._.(._./.^.,.3.e.e.6.9.9.3.,.,.P.N.c.h r t g.jXkXlXdXI.D.D.D.D.Q.R.b.M.B.M.Z.(.(.4./.^.7.7._._._./././.",
"f d S R  .#. .X.{ >.!.!.5.2.w.y.u.u.p.u.u.w.q.w.).*Xc.r 9 h.hXlXlXfXV.j.j.k.T.).i.i.R.N.M.*X0.5.,.4.6.4.,.3.^.^.$.K M A ",
"g +.y.u.p.+Xp.w.2.4./.(.e.t.w.e. X&X%XoXp.t.u.u.@.Y z r 9 V z.z.k.k.k.k.x.U.r.@X%XXXoXR.R.0.u.w.w.u.+Xp.y.q./._./.[ Y / ",
"r.r.u.+X&X$X.X}._./.^.!.3._._._._._._._._.r.u.1.K 9 0 0 9 > = * + c V.I.W.(.(.}._._._.}.i.w.y.y.+X&X$X.X}._./.^.,.^._.|.",
"r.r._.}._.(.(._.^.,.^.,.!./.!.>.>.,.,.,.,.3.<.A 0 q q q q i 1 : , x k.H.^.(././._._._._.e.}.e.(.`._._.(._.^.,.!.,.^./.^.",
"^./._._._.(.^./._.^.3.,.!.3.Q 6 4 3 4 4 4 4 4 , - : : : - V L.^ W < $ K 2.8.0.3.^./.9.6.^.^.(.(._.(./.3.!.!.^.,...{ } #.",
"q.4.6._./.3.5.6.4.,.>.4.7.Q 7 ; ; ; ; ; ; ; - - ; ; ; ; ; I L.^ ^ < o 2 T p.p.y.q.6.w.w.q.2.3./._.4.4.4. .) X.$.#.<.r.p.",
"*.$.2.y.y.t.p. Xr.+X+X@X&XT.] / / / Q +.G , % % % % % q $ I '.L.! < o X d E (.e.e.t.t.y.u.u. Xe.w.w.y.p.+X X X+X@X&XoX$X",
"-.!.^. Xy. X.X`._..X.X`._.(.^./.(.(._.,.T y 9 9 0 0 0 w 9 c l.P n , o X X 2 T 4._._.7.t.q.}..XXX Xt. X.X`._.`..X`._._./.",
"_.(./._.7._._._.(.(.^.!.,.4.6.q.q.0.U.L w w w 0 0 w t t t w 9 8 . X X X X X & &.5.^._.e._._./._._._._._.(.(././.^.,.1.2.",
"q.q.7././.,.3.,.3.3.X. .q.u.u.u.u.w.K 0 9 w w w r y a a a s i X X X X X X X & @.w.6.3.,.4.q.q.6./.^.^.!.^.3.4.4.6.q.2.#.",
"u.r._./././.(.e.y.y.y.y.y.t.w.w.|.K s 9 9 r r a a a j j j E H X . X X X X X & :.&X@X Xw.y.u.e.7./././.6.e.y.y.u.u.<. .;.",
"r.}.(.(./._.e.t.y.u.y.e.w.w.e._.].m 9 9 t u u a j j j k E 9.8.H $ X X X . 2 ] 3._._.XX.X+X|.7.(./.^.(.r.u.u.u.u.r.q.y.e.",
"(.6.3.!.>./._.7.7.r.7._.7.2.$.T T s 0 t u a a a a x U U !. .H F # X X X d T /././././._._._./.!.,.,./._.7.e.e._._.e.6.3.",
"U.L.!..._ ' o.o.!.7.6.4.4.<.F + O 8 t u j j a v J U -.{ T m + + O o f m G e.e.q.w.q.q.e.4./.(.^.,.-.,.^./.(.(.(.3.,.6.q.",
"5.$.{ $.<.1.$...{ U.!.5.9.F + + + $ p l c c c E  ...$.[ 7 @ + > 5 5 +.t.r.XX@X+Xt.y.y.y.w.q.7.6.6.e.9.3.^.!...` ..*.1. .",
"OX%X%X&X+Xw.u._._._.(._.S > > < > e r K 9.9.q.@X&XoX2.7 # O + n ,.^.6._._._._.e.w.7.7.w.y. X%X%X@Xr.y.w._._.^.-.o.-.6.2.",
"(.^.)./.!._._._.^.!.!.,.M > M  .%.#.| ;._.}.[._._._.;.3 + + M #.!.!.!.(./.^.^.^./._._._.7._._._._._._._._.^.^.!.,./.(.,.",
"' } >.<.X.,.^.^.!.!.,.;.m * 6 G 9.8.9././././.6.e.e.<.T 5 + 7 L ,.;.,.4.6.2.q.q.q.7.4.(./.4.e.e.e.4.!.^.^.!.!.,.,.3.,.o.",
"*.w.u.p.+Xr.9.6.3.>.3.5.H D D G +X+Xu.6.3.^.6.r.t.p.+Xr.G S S D >.3.2.y.u.p.+X+Xp.q.5././.q.y.u.+X@Xr.9.5.,.X.{ -.q.u.u.",
"t.y.}.XXXX|.w.w.y.w.w.y.u.u.r.$X.X.X}.e._.^.!.e.e.`..X.Xr.w.w.y.w.y.y.y.t.XXXX.X.Xe._./.!./.r.}..X.X|.w.u.y.2.6.e.t.+X+X",
"e.7.e.r.e._._.e.u.w.t.u.w.q._._._._._.3.^.-.!._._._._._.6._.w.w.w.u.w.r._._._._._.^.^.!.!.^._._./._._._.e.u.u.u.6.^.Y.` ",
"7._./.(.(./._.e.r.7._._.e.6./././._./.4.,.,.^.!./._._._._.7.r.e._._.7.e._./.(._._.3.3.;.!.^.^._._.(./.(.q.w.e.>. .{ =.R ",
") } _ ..X.-.,.-.!.!.^./.,.,.4.2.w.w.w.w.w.6.<.6./.^.^.^.!.^.^.!.,.!.L.} >.2.9.i.w.w.y.q.<.(.(./.-.' ' ' ` !././.e.y.e.*.",
"T 3.-.3.9.r.2.$.$...!./.q.w.u.u.u.+X+Xp.u.u.u.t.q.6.6.q.w.2.4.,.' _ ) &.w.u.u.p.+X+Xp.y.y.y.w.2.4.1.q.9.*.$.6.e.w.u.u.@.",
"u.u.t.t.+X@X@Xt.e._._./._.e._.e.}.$X.X.X|.w.y.u.u.u.p.@X@X+Xw._./././.0.e._.}.XX.X.XXXe.y.y.u.u.p.+X@X@Xt.r.e.q.q.e.w.u.",
"p.+Xe.7.XX`._.`./.!.,.,.,.(._._._.(._._._.e.r.e.w. X@X.X_.`.(.^.^.!.U./.(.(.(.(._._.(.e.w.e.w.e.|.$X`._._./.^.!.,.,.7.e."
};
