/* XPM */
static char *result[] = {
/* columns rows colors chars-per-pixel */
"60 60 229 2 ",
"   c #1D0D19",
".  c #151418",
"X  c #251A1C",
"o  c #341C1F",
"O  c #0C0920",
"+  c #19182B",
"@  c #1A1932",
"#  c #1B1B36",
"$  c #2A1C29",
"%  c #331D22",
"&  c #391F21",
"*  c #201F38",
"=  c #1F2137",
"-  c #3B2123",
";  c #21223D",
":  c #2F283C",
">  c #302A35",
",  c #333135",
"<  c #4A2925",
"1  c #562926",
"2  c #493127",
"3  c #523E2D",
"4  c #633532",
"5  c #534837",
"6  c #6A5938",
"7  c #785B3C",
"8  c #6E673E",
"9  c #252946",
"0  c #252947",
"q  c #292E4D",
"w  c #332F41",
"e  c #2B304F",
"r  c #3A384B",
"t  c #2D3352",
"y  c #343B5C",
"u  c #3F435B",
"i  c #3A4263",
"p  c #3D4768",
"a  c #3F496B",
"s  c #514F53",
"d  c #655C44",
"f  c #6E5C5A",
"g  c #686544",
"h  c #72684F",
"j  c #7B734B",
"k  c #6B6755",
"l  c #797356",
"z  c #474D67",
"x  c #4D596F",
"c  c #444E70",
"v  c #555C74",
"b  c #5F6276",
"n  c #676A6B",
"m  c #66687A",
"M  c #974D3B",
"N  c #81673D",
"B  c #8D5543",
"V  c #8A7956",
"C  c #A96142",
"Z  c #B46D51",
"A  c #927C6F",
"S  c #CB7246",
"D  c #8B8850",
"F  c #8B845C",
"G  c #AB9A5A",
"H  c #AAA75D",
"J  c #B4AB56",
"K  c #B5AB5D",
"L  c #BBB35A",
"P  c #998F6E",
"I  c #A79866",
"U  c #AE906B",
"Y  c #A9A162",
"T  c #B5A666",
"R  c #BBAA6C",
"E  c #BCB564",
"W  c #BBA575",
"Q  c #C8885C",
"!  c #C4BF5F",
"~  c #CC8F65",
"^  c #CF9D7F",
"/  c #E09765",
"(  c #C2AD6D",
")  c #C7B669",
"_  c #C3AD76",
"`  c #C0A57A",
"'  c #C5AC7A",
"]  c #C8AF7B",
"[  c #DDA57A",
"{  c #C9B574",
"}  c #CDBB74",
"|  c #CCB37B",
" . c #CFBB79",
".. c #D0B77D",
"X. c #D3BE7A",
"o. c #D3BC7C",
"O. c #E7A06F",
"+. c #E6A375",
"@. c #CBC566",
"#. c #D3CC67",
"$. c #D4C475",
"%. c #D9C776",
"&. c #D7C973",
"*. c #DACB75",
"=. c #D6C279",
"-. c #DBC47D",
";. c #DEC97D",
":. c #DDD377",
">. c #E4D96E",
",. c #E5CF7B",
"<. c #E2CC7E",
"1. c #E2D575",
"2. c #E5DA74",
"3. c #EADD75",
"4. c #E6D27C",
"5. c #E9D57D",
"6. c #E7D979",
"7. c #EBDB7B",
"8. c #F1DE7E",
"9. c #EEE276",
"0. c #EFEA70",
"q. c #EEE27A",
"w. c #F1E676",
"e. c #F5EC75",
"r. c #F3E47C",
"t. c #F5EA7A",
"y. c #F9EF7A",
"u. c #F7F173",
"i. c #F8F273",
"p. c #F7F079",
"a. c #F9F37C",
"s. c #5A6584",
"d. c #6D7489",
"f. c #7C8292",
"g. c #8C8A8D",
"h. c #919294",
"j. c #A69089",
"k. c #B29692",
"l. c #8795AE",
"z. c #8992A8",
"x. c #8E9FB9",
"c. c #909FB7",
"v. c #AA9FA2",
"b. c #9CA0AD",
"n. c #8FA0BA",
"m. c #94A1B6",
"M. c #99A2B5",
"N. c #93A2BA",
"B. c #99A7BE",
"V. c #9AA8BF",
"C. c #A7A6A8",
"Z. c #B4AFA9",
"A. c #B2B2AE",
"S. c #A4ACB2",
"D. c #A6ACB7",
"F. c #AAB2B8",
"G. c #B7B7B7",
"H. c #C99E85",
"J. c #D1AE8E",
"K. c #C5BC9A",
"L. c #DCB79C",
"P. c #EAB58C",
"I. c #C8BBA7",
"U. c #D8B8A5",
"Y. c #C3B9B2",
"T. c #BAC1B4",
"R. c #DDC580",
"E. c #DCC885",
"W. c #CCC59A",
"Q. c #CACA9B",
"!. c #D6CB98",
"~. c #D7D595",
"^. c #E4CD80",
"/. c #E6CF8C",
"(. c #E7D181",
"). c #EBD482",
"_. c #EED982",
"`. c #E9D78A",
"'. c #F1DB83",
"]. c #F3DE89",
"[. c #F0C89A",
"{. c #EADA98",
"}. c #F4D698",
"|. c #EDE488",
" X c #F4E284",
".X c #F6EC83",
"XX c #F8ED85",
"oX c #F5E48B",
"OX c #F6EA8B",
"+X c #F8ED8D",
"@X c #F6F084",
"#X c #F9F383",
"$X c #FAF38B",
"%X c #E8E69C",
"&X c #F1E292",
"*X c #F6EB91",
"=X c #F9EE90",
"-X c #FAF191",
";X c #C9C4A4",
":X c #D3CBAC",
">X c #D8D2B4",
",X c #DBD5B8",
"<X c #E5C7AC",
"1X c #E6D9A5",
"2X c #E0D6B2",
"3X c #E9E6AC",
"4X c #F3E3A8",
"5X c #9BABC2",
"6X c #A6B2C6",
"7X c #A9B6CA",
"8X c #B3B9C6",
"9X c #B2BCCD",
"0X c #B7C0C8",
"qX c #BAC4D5",
"wX c #BCC5D5",
"eX c #C6C7C8",
"rX c #D4C6C1",
"tX c #D5D4C8",
"yX c #CCCFD2",
"uX c #C6CEDC",
"iX c #CDD1D3",
"pX c #C9D0DD",
"aX c #D0D4D2",
"sX c #DBDBDA",
"dX c #F5ECD1",
"fX c gray89",
"gX c #FAF5E9",
"hX c #F8F7F1",
"jX c #FEFEFD",
/* pixels */
"`._.)._.r.7.....o.-.^.^.^.'. Xo.' (.'.r.w.oXXX X'.^.W o.'.e.i.3.W { #X*X'.'._.'.'.'._. . X$.k D r. X].r.XXe.E j 5 E i.$X",
"*.4.<.<.).'.'.(.%.J.R.^._.^.(.).(.;.7.(._.'._.).J.] | (._._.7.;.4. X_.,.J.o.(.).5.5.(.o.W P W 4.).^.(._. X(.Y H $.8.q._.",
"6.q.5.<.<.^.^.).'.'._.,.5.w.t.t.y.e.y.t.e.7.o.| X.;.;.;.<.^.^.(.,.o.] | >.q.t.t.e.e.9.%.X.;.).(.<.;.;.R.R.(.).4.<.=.w.u.",
"w.w.7.w.w.w.6.(.).).^.7.t.XX$X*XOXy.e.e.u.u.w.r.r._.q.e.q.4.(.^...X.3.t.t.XX*X.Xu.t.u.u.e.t.r.'.t.w.w.q. .' | _ $.q.r.e.",
"#X$X.X.X.Xt.y.8.'._.).'.'.'.'._.'.t.r.'.r.e.p.XX*X*XOXt.e.t._.'.'.).'.'.'.'.'.r.w.'.'.r.e.XX+X*X+X.Xt.e._.)._._.8.'.8.t.",
"^./._.'._.(.).).^.^.^.<.).).^.5.4.5.).'.'.'.'.'.'.'.'._.'.'.).<.^.<.,.).^.<.4.4.7.'.'.'.'.'._.8._._.'._.).(.(.;.<.^.^.o.",
"$. .;.q.5.| ] o.o.^.o.| ,.7.r.w.t.0.t.5.(.).(.7.t.w.r.4.,.^.(.<.R.o.| _ } 3.e.e.t.7.4.).).5.r.t.r.5.4.4.(.(.:.^.X.' } *.",
"e.u.u.#X$Xy.w.2.=. .{ *.e.i.i.#X$X$Xu.w.5.).'.e.i.a.@X#Xt.w.6.,.} { 1.w.i.#X$X$Xa.t.7.(.).t.e.p.#X$Xp.9.7.4.4.4.2.9.p.p.",
"5.r.'.].oX Xt.u.i.u.u.i.y.u..XoX].].'.8.'.^.,.8.'.].{.{.OXy.i.i.i.i.i.u.e.OXoX]. X'._.,.<.).t.'.'.oX Xt.u.u.u.u.i.i.$X+X",
")._.'.'.'.'.'.r.u.t.e.e.e.r._.'.'._._.5.^.^.^._.'.2XiXaX2X'.y.e.w.y.e.t.'.'.'.'.'.).^.<.<.).'.'.'.'.'.'.t.y.t.t.w. X].'.",
"' o.)._.).^.^.r.r.'.'.'.'.'.).5.'.8.5.4.4.<.^.^.'.:X9XuXtXK.J R I.I.:X2X>X1X^.'.'.5.6.,.<.^.^.'.'._.'.).r.r.'.'.'._.).).",
" .' ` ] ] ` ] ;.5.)._.(.,.,.6.w.t.u.u.u.e.q.2.8.).K.F.9XV.d.: v x.5X9XuXpX,X Xt.e.e.u.t.7.7.7.5.^.,.,.,.| ] R.^.,.5.4.r.",
"i.e.3.2.9.w.t.9.7.5.).).r.u.i.y.p.#X$X#Xi.i.i.i.w.q.~.F.b w d.l.D.9XuXuXuXiXtX*X$X$Xa.i.i.i.u.9.q.w.t.t.3.*.o...] -.@.K ",
"r.r.e.t.@X+X+X Xr._.).).8.8.8.'. XoX].oX Xr.i.i.i.i.$X~.P v l.5Xc.U.L.U.U.U.L.].1X2X&Xt.t.e.i.i.a.$X-X+Xt.t.'.).<.<.%.X.",
"o.<.o...E.(.'.'.).<.<.<.<.).)._.'._.'.'.'.r.r.t.t..X*X{.;XN.N.m.v.^ +.+.+.+.[ /.,XtX{.'.t.t.t.r.OXoX'.'.'.(.^.^.<.^._.'.",
"4.3.8.).'.'._.'.).).).^.<.o.o.8.,.).)._.8.).)._.'._.{.tX7XN.N.k.H.v.8XrXL.K.D.eX,X{.'.'.)._.'.'.'._.'.).).'.^.(.^.^.<.5.",
"'.'.'.'.).^.,.5.R.| | ' ] 1.9.u.w.8.4.7.e.3.6.^.(.1X,X9X5XM.k.[ ~ n x A L.j.n :X1X4.t.q.6.4.,.).'.).^.4.4.(.;.<.<.4.)._.",
"t.t.t.t.t.w.e.t.6.=.=.(..X$X$XXXt.t.e.i.i.i.t.|.{.>X9XB.x.b.H.O.Q 3 X 5 J.V 8 2.u.u.i.i.i.e.q._.q.w.w.e.t.q.r.t.y.@X|.-.",
"t.XXXX#Xi.a.+XOXoXOX-X=XOX].'.'.'.'.8.r.t.u.3XaXaX0XB.N.N.c.C.H./ Q S ~ P.P.~ ,.'.r.w.u.y.y.+X@Xa.i.a.+XoX XOX=X*XoX X'.",
"'.'.'. Xr.].].'._._._.).(.4.,.6.8.)._.{.,X,XtXuX9XG.Q.Q.A.x.x.D.U.+.P.U.,X<XU._._.).'.t.'.'.'.'. Xr.].'.'.].'.'.7.J.| ;.",
"7.3.7.).(.).).(.(.(.(.4.2.t.e.i..X|.{.>XuXuXuX0XD.W.^.^.I.c.m.7XeXJ.U.wXwXqXeX%Xr.4.,.).).8.q.5._.(._._.,.,.).X.{ $.1.q.",
"y.t.8._.(.(.(.7.w.w.w.u.i.i.i.i.3XaXaXpXpXuX9XF.~._./.I.A.F.N.N.5XeX8XB.5XB.6XyX3X.Xq.7.w.u.t.'.).(.(.^.8.r.w.7.9.p.r.r.",
"y.r.'.).).'.r.u.i.i.i.u.t.e. X2XtXuXpXpXuX7XT.!._.4XdXsXsXyXF.M.B.6X5XN.6X7X7X9X>XoX$X#Xa.t.r.'.(.).'.r.i.i.i.a.#Xr.w.r.",
" X_.).).^.).8.t.e.e.t._.t.t.1XyXuXuXwXwXqXF.Q.oX{.dXjXjXjXhXeXb.l.x.m.B.qXuXwXV.K._.`.]. X X_.).(.,.). Xr.i.e.XX].r.t.r.",
"'.).^.-.-.(.)._.'.'.'.'.(.2XyXpXpXwX6XB.F.!.5.4XgXjXjXjXjXhX0Xg.s.l.N.n.5X9XwX5XW.7.7.8.).).).^.^.;.^.).'.'.'.'.).<.4.%.",
"h l P W ' ] R.).'.^.^.,.9.2XuXpXwX6XN.Z.~.q.8.1XhXjXhXfXsXyXz.x y x f.5Xx.5X6XN.Q.u.u.e.q.5.5.4.4.4.4.<.<.R.-.o. .&.q.9.",
"I $.E.q.q.3.*.;.'._.).r.t.,XuXwX6XN.S.!.w.i.a.-XhXjXfXG.A.b.v t 0 # x f.x.n.N.S.~.r.t.u.i.a.XXOXXXp.u.w.<.o.o.o.9.$X$X#X",
".XoXOXoX Xr.w. X_.).(.(.).;XB.B.N.S.!.'.'.w.t.4XhXfXG.h.v.C.v q # # ; i z.N.S.!._.7.'.r.t. XoXoXoX'.r.t.'.'.).).).oXoX_.",
").'.8.'.).(.(.).^.<.<.<.:.K.m.N.A.Q._._._.'.4XdXjXsXC.g.f.d.z 9 + @ O = z h.Q.).7.'._._.'.).'.'.'.).).).).^.^.^.-.| ] _ ",
"7.e.p.t.w.7.X.' | =.<.;.7.~.S.m.Q.i.e.6.<.).dXjXjXsXD.g.m i t # @ @ # > 8 ! p.p.u.q.,.(.(.6.u.u.e.w.7.4.,.^.-.' _ { 1.e.",
"a.$XXX+X+X#Xe.9.:.1.q.e.u.e.~.F.:X=Xy.t._.).dXjXjXsXC.g.m i ; @ @ @ + 8 #.t.=X=XOXt.r.).(.r.e..X$X=Xa.e.e.9.1.1.9.u.u.a.",
"+XoX'.'.'.].r.e.i.i.u.i.e.e.].W.!.'._.(.,.<.J.j.j.k.U f s w # @ @ + D ) 7. X'.'.'._._.^.<.).'.'.'.'.'.r.t.i.p.i.u.e.t. X",
"r.'.'.'.'.'.'.r.t.r. Xr.r.r.'.'.'.'._.5.^.^.U 4 4 M C 1 % % + + + + T 8.'.'.'.'.).).<.<.^.(.).'.'.'.'.'.t.e. Xr.r.r.8.'.",
"r.<.I P -.^.^.).8.'.).'._.^.^.,.7.t.7.q.7.[.Z.g.C Z C 1 & &   . . . G 5.,.4.5.t.r.7.w.2.<.^.).'._.).).(.'.'.'.'._._._.^.",
"k d D ) } $.$. .| ^.<.,.5.8.w.u.u.i.a.u.t.}.Y.b.Z S C &     @ * + + j R >.e.i.p.p.i.i.i.w.w.r.4.,.4.7.5.,.,.(.(.=.I V F ",
"j #.i.i.i.#Xa.t.3.5.)._.r.e.e.t..X-X=X+XOX}.U.v.U Z B $ O + 9 q 9 # + 8 #.q.t.@X=X+X$Xy.i.i.i.u.u.p.#Xy.e.w.).'.).{ H ) ",
"t.p.u.#X$X*XoX X'.).(.^.,._.'.'. X]._.].`.}.<XU.v.d.r 9 9 9 q 9 # @ @ > d R _.].'.'.'.8.t.e.u.u.#X-X*XoX X'.(.(.<.).].r.",
"t.t.'. X'.'.'.'.).<.^.^.,._.).).).).'.=.U A P A d.a q q q q q ; @ @ @ @ # j R (.'.'.'.'.r.8.t.'.].'.'.'.'.(.^.^.<.(.).^.",
"(.).'.'.'._.(.)._.(.<.<.<.4.w.w.6.(.R.I t t t t q q q q q q q ; @ + @ @ @ @ d ( <.).8.7.^.,.).'.'._.'.^.^.^.,.^.| | | $.",
"9.6._.'.).4.6.6.4.,.,.6.7.y.a.y.p.2.F s a a p i q q q q q q # # + @ @ @ @ @ , 8 ) 7.u.y.w.7.,.)._.5.5.6.} _ =.%.$.1.e.a.",
"*.*.9.y.e.i.y.XX.X@X#X@X-X=X*XOX-.Y x p c a c a t 0 e e 0 ; @ + @ @ @ @ @ @ @ @ J e.y.u.i.i.XXt.e.u.u.a.#Xt.XX$X@X$X+X+X",
"-.-.(.XXy.XXOX].]. XoXoX'.'.).).T t a c c c a i t 0 u k l d , @ @ @ @ @ @ @ @ @ T '.8.e.w. XoXoXXXy.OXoX'.].oXoX].]._.5.",
"'.'.).'.'.'.'.'.)._.(.^.4.6.7.w.T t a a a c u e e e f } ^.} d @ @ @ @ @ @ @ @ @ I (.'. X_._._._.'.'.'.'.'._._.).).^.5.7.",
"w.w.8.).).,.,.5.5.4.X.} 9.u.0.) F i a c a i t q q V W <.<.<.T j @ @ @ @ @ @ @ @ L 3.4.,.5.w.t.7._.^.^.,.(.4.4.4.7.w.2.&.",
"i.t.'.).).).5.r.u.u.u.i.u.p.>.l y p p a i t 0 u k R ).).).8.e.! 8 > @ @ @ @ , g $.#XXXt.u.u.w.'.).)._.'.t.u.i.u.u.*.=.%.",
"t. X_._.)._.8.i.u.u.u.r.t.e.4.k e t t t t q q k } 4.).).8.e.i.e.#.g @ @ @ @ d } (.].OXoXXX.Xr.'.).^._.r.e.u.i.u.w.t.y.t.",
"'._.,.^.<.).'.'.8.r.8.'.r.3.%.h > : q q q q V W ;.^.E.4.).'.'.r.1.g $ $ $ j R 4.(.).(.'.].'._.^.<.;.).'.8.r.t.'.'.r.7.5.",
"R.R.^...' ..o.o.^.8._.5.4.3.@.8 - % : q r k W ).^.;.-.| ..^.).^.} 6 & o % K t.w.e.w.w.r.5.(._.^.<.<.<.^.)._.'.).,.4.7.q.",
"4.%.o.=.1.2.=.X...P.<.6.t.! N 4 < o o > h #.9.%.o...%.%.1.-.^.( 6 < & & & E +Xy.i.u.i.i.e.r.7._.q.q.q.1.,.^.o.] | *.2.$.",
"XX-X=X$XXXe.y.'.'.'.5.5.) V 1 1 & 6 G T { 0.p.$X*X+X.Xe.e.t.'.T & & - 5 G ,.'. Xr.8.8.e.y.y.-X=X@Xt.y.p.'.'.^.R.o.-.7.7.",
"'.(._.(.^.'.8.'.^.).<.( N 1 1 & 3 N 3.'.'. X'.].'.'.'.'.'.].).G & & & 6 { ^.,.(._._.'.'.8.'.'.'.].'.'.'._.(.(.^.<.).).,.",
"' | *.4.X.,.(.(.,.,.T 7 1 o & o G >.e.5.).).(.7.r.t.'.,.,.(.(.G & & - 2 6 L w.w.w.8.5.).).5.r.r.r.5.,.^.).^.^.<.^.(.,.=.",
"*.e.p.a.#Xt.q.6.,.,.) G J L L L 2.#Xe.q.5.(.7.t.i.y.#XXXw.7.4.) G G J J J >.a.#Xy.t.5.).8.r.i.p.a.#Xt.7.5.,.X.| -.r.e.i.",
"e.y.t.OXoX.Xt.u.u.u.e.y.u.u.XX+XOXoX Xr.'.^.,.r.t.].oXOXt.u.u.u.e.e.i.i.p.+XOXoXoX8.8.5.<.5.t. XoXoX.Xu.i.e.7.7.t.y.a.$X",
"r.r.r.e.8.'.'.t.i.e.y.u.t.r.'.'._._.'.(.^.;.^.'.'.'.'._.'.8.y.y.e.y.e.t.'.'.'.'.'.).^.<.<.).'.'.'.'.'.'.t.i.i.u.7.^.E.' ",
"'.'.)._.).).'.r.r.8.8.8.8.8.).5._.'.).4.<.^.(.^.).'.'.'._.8.t.r.'.8.'.r._.).).'._.5.,.<.^.<.(.'.'._.).).r.e.r.*. .} *.R ",
"' | ` ..o.<.<.;.<.^.^.).,.,.5.7.w.u.e.e.e.9.4.7.5.(.5.^.,.^.(.^.<.^.R...,.2.r.y.e.e.e.e.4.5.8.5.R.] ] ' ' ^.)._.r.u.w.*.",
"T 4.;.4.3.t.7.$.%...^.5.w.t.y.i.p.#X#Xa.i.i.u.e.w.7.7.w.w.q.6.^.' ` ' $.e.i.i.p.#X#Xp.i.u.u.e.7.4.6.w.9.*.%.7.r.t.u.u.>.",
"i.p.t.u.#X$X$Xa.r._.'.).'.r.r.8. X*XoXoX Xy.u.e.i.p.a.$X$XXXt.'.).).).8.r.'.'.OXoXoX.Xt.y.u.i.p.i.#X$X@Xy.t.t.t.w.r.e.i.",
"a.#Xr.8.OXoX'.'.).^.<.^.^.).'.'.'._.'.'.'.r.t.t.y.y.-XoX'.'.8.5.^.<.<.(.'.'.'._.'.'.'.8.e.w.t.w.OX*X].].'.(.^.^.;.,.8.r."
};
