/* XPM */
static char *result[] = {
/* columns rows colors chars-per-pixel */
"60 60 141 2 ",
"   c #27333F",
".  c #28333F",
"X  c #2A3743",
"o  c #2E3C46",
"O  c #31454F",
"+  c #3E464B",
"@  c #304451",
"#  c #344851",
"$  c #3A4B52",
"%  c #3F555A",
"&  c #3F5F68",
"*  c #425A5E",
"=  c #445D61",
"-  c #4E5F60",
";  c #486163",
":  c #43616A",
">  c #4B6668",
",  c #4E6A6B",
"<  c #566562",
"1  c #516C6C",
"2  c #52706F",
"3  c #547473",
"4  c #557479",
"5  c #587779",
"6  c #567B7B",
"7  c #5A7E7D",
"8  c #64766F",
"9  c #617D7D",
"0  c #5A807F",
"q  c #66837F",
"w  c #748B7F",
"e  c #5C7E80",
"r  c #5C8483",
"t  c #5E8887",
"y  c #5E8B8B",
"u  c #5F9090",
"i  c #618584",
"p  c #638987",
"a  c #61878B",
"s  c #638D8D",
"d  c #768D80",
"f  c #60908F",
"g  c #6B918D",
"h  c #7C9081",
"j  c #79988E",
"k  c #618F90",
"l  c #649493",
"z  c #6A9594",
"x  c #639897",
"c  c #6B9996",
"v  c #659798",
"b  c #6C969A",
"n  c #669C9C",
"m  c #6B9C9C",
"M  c #719590",
"N  c #719B96",
"B  c #799C92",
"V  c #719E9D",
"C  c #6EA19F",
"Z  c #74A39D",
"A  c #7AA39C",
"S  c #699FA0",
"D  c #719FA0",
"F  c #6DA3A3",
"G  c #6FA7A8",
"H  c #72A5A5",
"J  c #79A6A4",
"K  c #72A8A7",
"L  c #7CABA4",
"P  c #70A7A8",
"I  c #79A7A8",
"U  c #74ABAB",
"Y  c #7AADAD",
"T  c #7CB0AE",
"R  c #79AFB0",
"E  c #7CB3B4",
"W  c #7FB7B8",
"Q  c #849B8E",
"!  c #89A797",
"~  c #8DA997",
"^  c #88AC9E",
"/  c #91A995",
"(  c #95AD99",
")  c #9CB39B",
"_  c #83ADA4",
"`  c #8FAEA2",
"'  c #82AFAD",
"]  c #83B0A6",
"[  c #8EB4A4",
"{  c #84B3AC",
"}  c #89B5AB",
"|  c #8DB9AD",
" . c #91B7A7",
".. c #9EBBA5",
"X. c #93BAAB",
"o. c #9BBEAC",
"O. c #81B6B5",
"+. c #85B9B6",
"@. c #8EBCB5",
"#. c #80B7B8",
"$. c #84BBBC",
"%. c #89BEBD",
"&. c #94BEB1",
"*. c #A1BBA6",
"=. c #9DC1AE",
"-. c #8CC0BE",
";. c #95C1B5",
":. c #9BC2B2",
">. c #94C3BC",
",. c #9AC5B9",
"<. c #9DC9BE",
"1. c #A3C4AD",
"2. c #ABC5AD",
"3. c #AECAAF",
"4. c #B9C9A7",
"5. c #BACCAB",
"6. c #A2C6B3",
"7. c #A6C9B6",
"8. c #ACCBB5",
"9. c #A4CCBE",
"0. c #AACFBD",
"q. c #B3CEB3",
"w. c #AED0BC",
"e. c #B5D1B6",
"r. c #BBD4B5",
"t. c #B3D2BB",
"y. c #BBD5B9",
"u. c #BFD8B9",
"i. c #C2D7B5",
"p. c #C4D9B7",
"a. c #CBDCB6",
"s. c #C3D9B8",
"d. c #D2E0B6",
"f. c #87BFC0",
"g. c #88BFC0",
"h. c #8BC2C4",
"j. c #93C5C2",
"k. c #99C7C0",
"l. c #93C8C5",
"z. c #9CC9C0",
"x. c #A0CBC0",
/* pixels */
"6.x.j.h.h.E n n R $.h.h.h.h.h.#.m v E $.$.U U h.h.h.h.h.h.h.h.h.h.h.h.h.l.f.E U U #.$.#.F W h.h.h.h.h.h.h.U F #.$.W f.h.",
"[ r.e.:.U F U #.h.h.h.h.h.h.h.g.F #.h.h.h.#.F #.h.h.h.h.h.h.h.h.h.h.h.h.h.g.#.P h.h.h.h.U G h.h.h.h.h.h.h.h.R h.h.h.h.h.",
"E L +.#.F E h.h.h.h.h.h.h.h.h.$.F g.h.h.h.h.E U f.h.h.h.h.h.h.h.h.h.h.h.h.h.f.W h.h.h.h.%.U R g.h.h.h.h.h.h.h.f.h.h.h.h.",
"h.%.E U G #.h.h.h.h.h.j.x.x.>.E F $.h.h.h.h.h.G G $.h.h.h.h.h.h.h.l.z.x.z.%.R E h.h.h.h.h.#.F E h.f.h.h.h.h.h.h.z.9.<.%.",
"h.h.h.$.K F W h.h.g.%.,.1.[ m U E h.h.h.%.#.F F W %.#.U #.f.h.h.g.%.6...B F U $.h.h.f.U P F U W h.U Y $.h.h.h.%.6...A y ",
"h.h.h.h.#.F t f m b l x l 7 t E h.h.h.h.f.$.R U h.k.k.U l s m m l l s 6 3 F h.h.h.h.g.#.W G #.h.h.E n y c m m v l 7 1 e ",
"h.h.h.h.E U m y m H H I H s r F g.h.h.h.h.h.h.f.h.9.,.Y F y s H H L E I l P %.h.h.l.h.h.h.g.g.h.g.E U v z Z Y #.+.H 7 m ",
"h.h.h.h.h.h.%.T h.h.j.h.h.g.$.U %.z.t.j.h.h.h.h.h.h.g.h.h.U #.h.h.h.h.h.h.%.E -.w.x.j.h.h.h.h.h.h.h.h.g.h.h.h.h.h.h.O.H ",
"h.h.h.h.h.h.h.h.h.h.h.h.h.h.h.h.%.e.a.9.w.x.z.k.h.h.h.h.h.h.h.h.h.h.h.h.h.h.h.;.i.s.w.0.k.<.l.h.h.h.h.h.h.h.h.h.h.g.h.%.",
"h.h.h.h.h.h.%.f.h.h.h.h.h.h.h.h.#.I } &.X.:.X.[ O.#.%.g.h.$.h.h.h.h.h.l.h.h.h.E L | &.:.=. .} E #.$.h.h.g.h.h.h.h.E R F ",
"H E W h.E R F #.h.h.h.h.h.h.h.h.l.#.l r r v F G K E $.U U G f.h.h.h.h.h.h.l.z.h.U y 6 s F F G U #.E U P W h.h.h.h.h.h.$.",
"%.h.h.h.h.E S U h.h.h.h.j.z.t.i.u.+.U E $.%.h.h.h.h.h.%.U S W h.h.h.h.k.x.x.s.w.E R E $.h.h.h.h.h.h.#.S F h.h.h.h.h.k.<.",
"h.h.h.h.h.h.E F R $.h.j.j.9.p.i.&.E h.h.h.h.h.h.h.h.h.h.$.U F E h.h.j.k.e.a.8.{ $.h.h.h.h.h.h.h.h.h.h.#.F K $.h.j.j.9.w.",
"%.h.$.h.h.h.W G G U E <.8.e.7.Y E h.h.h.h.h.h.f.#.h.h.h.h.U F G R $.7.8.e.:.K %.h.h.h.h.h.h.W h.h.h.h.$.F P P E >.8.e.8.",
"F G F #.h.h.f.h.h.E F F U n y l ,.x.h.h.h.h.W U F #.f.h.h.R $.%.U F K F v t F 9.j.h.h.h.%.E F U f.g.h.$.R g.#.F K F F g ",
"G R E U U $.h.h.h.h.#.h.-.U 0 6 L r.9.k.k.#.F U E m t F R h.h.h.$.%.-.$.m 3 s ,.t.k.k.j.Y F E K l l K $.h.h.h.$.%.h.E a ",
"h.h.h.h.R U E $.h.h.h.h.h.h.#.0 f X.t.0.z.h.h.h.#.0 5 K E E g.h.h.h.h.h.h.V 6 Z 7.w.9.j.g.h.h.#.7 s U E $.h.h.h.h.h.h.-.",
"h.$.E R $.F n R h.h.h.h.h.h.%.i N r.y.9.k.h.h.-.U t D #.S S #.h.h.h.h.h.l.E s | w.w.9.j.h.h.E U y E E n E l.h.h.h.h.h.h.",
"U F F F E W #.$.h.l.k.9.0.w.%.5 r [ q.i.r.7.T F l H g.g.#.#.h.j.z.9.t.t.e.#.n m { r.r.r.@.U F F F E h.W #.h.h.h.h.h.h.-.",
"Y h.h.h.h.h.h.h.h.h.k.z.z.>.Y m a t m T T K F E %.h.j.h.h.h.h.9.w.y.w.z.>.R F y s U T T S U $.h.g.h.h.h.h.h.h.h.h.h.-.#.",
"#.h.h.h.h.h.h.h.h.h.h.h.h.h.h.h.K T h.h.f.R G h.h.h.h.h.h.h.h.h.h.h.h.h.h.h.W F #.h.h.g.F E h.h.h.h.h.h.h.h.l.h.h.h.h.h.",
"0 Y h.l.h.h.h.h.h.h.h.h.h.h.h.$.F #.h.h.h.f.G R h.h.h.h.h.h.h.h.h.h.h.h.h.h.R G h.h.h.h.E F %.h.h.h.h.h.h.h.h.h.h.h.h.h.",
"y b #.h.h.h.h.h.h.h.h.h.h.j.h.h.U f.h.h.h.h.h.U #.h.h.h.h.h.h.l.h.h.h.l.h.h.W R h.h.h.h.h.E U #.h.h.h.h.h.h.h.h.h.j.l.h.",
"F F E $.W h.h.l.h.h.h.9.r.8.T G U %.h.h.h.E E F P $.$.#.h.h.h.h.h.j.w.r.:.U G R h.h.h.#.#.E F E h.E %.h.h.h.h.h.<.t.8.@.",
"v $.h.h.G C m E E I H L V z n E h.h.h.h.E U F U %.h.W F F Y E E U K L N v F $.h.h.h.$.U G F E h.h.U F F E E E U I J s f ",
"E h.h.h.R n r 6 r t m I g 5 l $.h.h.h.h.h.h.#.#.h.h.$.U y 6 y l c F b t t m $.h.h.h.h.h.h.W $.h.h.E F r 6 s k c V m q v ",
"h.h.h.h.$.$.E E $.g.h.h.h.Y F U #.h.k.h.h.h.h.h.h.h.$.#.#.Y #.$.g.g.h.g.E U U h.j.j.h.h.h.h.h.h.h.$.#.E R $.%.g.h.h.%.g.",
"%.h.h.h.h.h.h.h.h.h.h.h.h.h.-.#.%.t.p.w.k.h.h.h.h.h.h.h.h.h.h.h.h.h.h.h.h.f.#.<.s.s.9.j.h.h.h.h.h.h.h.h.h.h.h.h.h.h.h.h.",
"F E h.h.h.h.z.-.f.h.h.h.h.h.h.h.$.&.8.9.e.t.7.6.%.h.h.h.h.h.h.h.h.h.h.h.h.h.h.O.6.r.p.y.8.8.>.-.h.h.h.h.h.h.h.h.g.h.h.h.",
"P W h.h.x.t.:.T h.h.h.h.h.h.h.h.-.U m c g H H H F R E W $.E h.h.h.h.h.h.h.h.h.$.F m z z K H H K E E #.E #.h.h.h.E W h.h.",
"F E W f.@.A r Y h.h.h.h.h.h.k.9.w.%.m f m Y $.$.$.%.g.E F F %.h.h.h.h.j.j.<.9.x.Y c g H E $.$.%.h.#.E F Y h.h.h.%.U E +.",
"g.h.h.h.%.E l c h.h.h.h.l.x.i.a.e.O.#.h.h.h.h.h.h.h.h.h.#.F Y h.h.h.h.j.0.t.e.,.E g.h.h.h.h.h.h.h.h.%.U S $.h.h.g.f.h.>.",
"j.h.h.h.h.h.g.n U E g.j.0.t.p.6.R $.h.h.h.h.h.h.-.h.h.h.h.R S R $.h.z.x.t.e.} E g.h.h.h.h.h.%.h.h.h.h.$.F n { 7.x.0.8.@.",
"7.@.W h.h.g.O.P #.U P O.} } L S ;.l.W $.h.h.h.R U h.h.h.E G U W G U { ! L g z z.$.E h.h.h.h.U E h.h.l.W G E Y L } { c u ",
"s D U R g.$.f.g.h.$.R R R n 3 r X.y.O.E h.$.G F F K G W W %.h.h.E E E m 7 1 v q.9.#.g.h.E F F P P Y $.$.g.h.%.R T E V 7 ",
"E g.g.c z U $.g.h.h.h.h.h.%.m 6 m 1.t.w.9.-.E $.-.m 2 n R %.h.h.h.h.h.h.E i r L q.t.0.z.#.W %.#.e k F #.g.h.h.h.h.h.h.$.",
"E h.g.g Y U F E h.h.h.h.h.h.f.t z =.w.k.h.h.h.h.%.m s E P U h.h.h.h.h.h.h.Y r L 8.9.l.h.h.h.h.I 7 Y E F E h.h.h.h.h.h.h.",
"S U s t R Y P R h.h.j.j.l.z.j.S H r.p.i.y.<.%.U F u m E U F #.h.h.h.h.h.h.#.x X.p.s.s.t.j.E c 7 7 R f.P R h.h.h.h.j.0.y.",
"H E Y E f.h.h.h.h.j.x.0.x.8.O.S y p _ :.:.| F U E E W h.h.h.h.h.h.h.h.h.h.U n y M X.&.:._ n V O.#.%.h.h.h.h.h.k.t.y.p.q.",
"$.h.h.h.g.h.h.h.h.h.h.j.l.g.$.E F m Y W E U U h.h.h.h.h.h.h.h.h.h.h.h.h.h.#.T x H E W E F E h.h.h.h.h.h.h.h.h.l.j.j.j.%.",
"E h.h.h.h.h.h.h.h.h.h.h.h.h.h.g.F #.h.h.l.$.F :.x.h.h.h.h.h.h.h.h.h.h.h.h.l.E G g.h.h.h.U P h.h.h.h.h.h.h.h.h.h.h.h.h.h.",
"F $.h.h.h.h.h.h.h.h.h.h.h.h.h.f.G $.h.h.h.h.E L i.w.<.z.j.h.h.h.h.h.h.h.h.h.E U h.h.h.h.g.U E h.h.h.h.h.h.h.h.h.h.h.h.h.",
"n P #.g.g.h.h.h.h.h.h.j.9.9.%.#.U $.h.h.h.h.f.U Y ;.9.<.j.h.h.h.h.l.<.9.k.%.E U h.h.h.h.h.W P R g.g.h.h.h.h.h.h.j.<.9.9.",
"P R E $.U E $.h.h.g.%.,.1.[ H P W h.h.h.$.U F G E %.E U E f.h.h.%.%.6.o.L F U $.h.h.f.U P F Y E h.U E #.h.h.h.%.;.=.~ L ",
"F $.h.h.R x t z m m v v a r l E h.h.h.h.f.$.U U h.h.$.G y s v m v v l r y G h.h.h.h.h.$.#.P W h.h.E n t v m m v f 0 5 v ",
"%.f.h.f.R U l l D H Y E E c n G f.h.h.h.h.h.h.h.h.h.W U F y f l J U E K v E %.h.h.h.h.h.h.h.h.h.f.E U v g C J #.$.$.J J ",
"h.h.h.h.h.h.h.h.h.h.h.h.h.h.%.U $.9.w.k.h.h.h.h.h.h.h.h.h.h.E U %.h.%.$.G U U l.0.9.h.h.h.h.h.h.h.h.h.h.h.h.h.h.h.h.h.-.",
"l.h.h.h.$.h.h.h.h.h.h.h.h.h.h.h.%.t.a.a.t.z.z.k.l.h.h.h.h.h.U n G E R Y R F R ;.i.d.u.w.z.z.k.h.h.h.h.h.h.h.h.h.h.h.%.U ",
"(  .O.U T h.h.h.h.h.h.h.h.h.h.h.$.K } =.o.o.X.[ L U U E E U F E f.h.h.h.h.h.h.U B X.o.o.X. .` E #.$.h.%.f.h.h.h.h.h.W C ",
"3 1 r _ h.h.h.h.h.h.h.h.h.h.h.h.l.#.s 7 e v G G U E m l y m %.h.h.h.h.h.h.h.h.h.s 5 7 r b P S U $.$.#.P E h.h.h.h.h.-.W ",
"s O 6 1.w.<.h.h.h.h.h.h.l.z.t.y.x.$.m E $.f.h.h.h.h.h.#.l l E h.h.h.h.h.h.h.h.h.z e E %.g.h.h.h.h.%.#.S l $.h.h.j.>.<.w.",
": : k J 1.e.8.&.R R h.l.k.t.a.a.t.A P h.h.h.h.h.h.h.h.h.%.U U f.h.h.h.h.h.h.j.9.Q L h.h.h.h.h.h.h.h.#.n @ 4 #.>.y.a.i.;.",
"l F h.$.E O.L K m E E _ 2.y.8.:.~ 0 a #.h.h.h.h.h.h.h.h.h.-.H Z %.h.h.l.k.x.y.d.4.{ l.j.l.>.h.h.g.#.E $.b 5 e a j ` A u ",
"h.$.h.h.h.h.h.h.$.H 7 w _ h.h.%.F r * 9 z.h.h.h.h.h.h.h.h.<.8.q V >.k.e.s.t.p.5.w 6 ^ 3.e.6.E $.g.g.h.h.h.h.Y s l n C C ",
"$.W #.j.l.z.<.t.*.5 q X.8.:.| { g 2 X + 5.t.j.h.h.j.h.k.<.9.a.w w q.y.e.6.1. .m , O % p L R $.h.j.j.z.z.t.3.e a U #.$.>.",
"y l m } 1.3.3./ - X z h.+.K n n n u * . < w Z J U { :.8.y.e.j $ = +.-.$.U n n v 0 $ 6 x F F U R } :.3.3.) 8 o a h.j.8.=.",
", 0 x n F u F u 6 @ u U F n n n n n 2 = 6 y u n n n n G R W x : > F F S n n n n k = 6 u n n n n n n m n u 6 $ y G G C n ",
"3 x n n n n n n t , u n n n n n n S 6 2 u u F n n n n n n n u 2 6 x S n n n n n k 6 u l u C n S n n n n F y , u F n n n ",
"u n C n F n n n r 1 0 y l x n C n n r , y C n C n n n n n n u 6 1 r u u n n m n t , 6 x n n C n n n n x l r , 3 t f F l ",
"0 u n n u C n u 3 3 K m m F F n n n y 3 0 u n n S n n n n n n 3 ; J U F n n n n l % * l n n n n n n F m 7 r 3 e V E U n "
};
