/* XPM */
static char * perso2_xpm[] = {
"60 60 471 2",
"  	c #ECDB88",
". 	c #EFD982",
"+ 	c #E7D081",
"@ 	c #F3E47C",
"# 	c #EBDB7B",
"$ 	c #D0B77D",
"% 	c #CCB37B",
"& 	c #D8BF7F",
"* 	c #DDC580",
"= 	c #E4CD80",
"- 	c #F1DB83",
"; 	c #F4E284",
"> 	c #D3BC7C",
", 	c #C5AC7A",
"' 	c #F1E676",
") 	c #F4E38A",
"! 	c #F8ED8D",
"~ 	c #BBA376",
"{ 	c #F5EC75",
"] 	c #F8F273",
"^ 	c #EADE76",
"/ 	c #B4A070",
"( 	c #D0BD76",
"_ 	c #F9F383",
": 	c #F3DF88",
"< 	c #EEE08C",
"[ 	c #CDCA7A",
"} 	c #6D694D",
"| 	c #878256",
"1 	c #F8EE84",
"2 	c #BDB961",
"3 	c #78794B",
"4 	c #44463D",
"5 	c #FAF38B",
"6 	c #D8C776",
"7 	c #E6D37C",
"8 	c #E2CC7E",
"9 	c #EBD482",
"0 	c #C8AF7B",
"a 	c #DEC97D",
"b 	c #F1DE7E",
"c 	c #E9D57D",
"d 	c #A5916C",
"e 	c #BDA873",
"f 	c #E0CF77",
"g 	c #A59A64",
"h 	c #A6A45B",
"i 	c #D7C973",
"j 	c #E7DA7A",
"k 	c #F5EA7A",
"l 	c #F9F37B",
"m 	c #CDBB75",
"n 	c #E2D575",
"o 	c #EEE376",
"p 	c #D4C475",
"q 	c #F6EA8B",
"r 	c #F7F079",
"s 	c #F9EF76",
"t 	c #F7F173",
"u 	c #EEE17A",
"v 	c #C7B473",
"w 	c #F6EC83",
"x 	c #F7EB90",
"y 	c #DACB75",
"z 	c #CBB577",
"A 	c #C3AD77",
"B 	c #F9EF7C",
"C 	c #E5D975",
"D 	c #C0A57A",
"E 	c #DBC47E",
"F 	c #CCC569",
"G 	c #AEAB5D",
"H 	c #F7F083",
"I 	c #FAF191",
"J 	c #F8EE90",
"K 	c #DCC885",
"L 	c #E3CF7C",
"M 	c #DFCB79",
"N 	c #E1CC7A",
"O 	c #E0CB7A",
"P 	c #B3A264",
"Q 	c #807545",
"R 	c #D2BF73",
"S 	c #A6965C",
"T 	c #897E4A",
"U 	c #DCC67B",
"V 	c #CFBB79",
"W 	c #D6CE67",
"X 	c #64603E",
"Y 	c #111D28",
"Z 	c #90874D",
"` 	c #E5DB71",
" .	c #CFC666",
"..	c #56552C",
"+.	c #988F50",
"@.	c #E5DB70",
"#.	c #D8CF7E",
"$.	c #6D6E47",
"%.	c #B0AC54",
"&.	c #B8B068",
"*.	c #0D131D",
"=.	c #BAB16B",
"-.	c #C0B170",
";.	c #172732",
">.	c #928852",
",.	c #978952",
"'.	c #B6A665",
").	c #B9A869",
"!.	c #121F29",
"~.	c #0E1924",
"{.	c #0F1D26",
"].	c #111D25",
"^.	c #0E1821",
"/.	c #AE9D62",
"(.	c #BCAA65",
"_.	c #080F17",
":.	c #0D1922",
"<.	c #2E2B53",
"[.	c #373861",
"}.	c #302F57",
"|.	c #BBB077",
"1.	c #EAE575",
"2.	c #CAC365",
"3.	c #C8B771",
"4.	c #9B8D56",
"5.	c #0B131C",
"6.	c #0C1920",
"7.	c #412F6E",
"8.	c #493C7B",
"9.	c #433672",
"0.	c #C8BA96",
"a.	c #E6D381",
"b.	c #9F945E",
"c.	c #192A35",
"d.	c #1D313C",
"e.	c #1A2B36",
"f.	c #101B25",
"g.	c #0C151F",
"h.	c #14242D",
"i.	c #1C313A",
"j.	c #727043",
"k.	c #D8D066",
"l.	c #DECF75",
"m.	c #9B8E58",
"n.	c #14232E",
"o.	c #15242F",
"p.	c #1B2E39",
"q.	c #111C26",
"r.	c #15242E",
"s.	c #B3A466",
"t.	c #6E6850",
"u.	c #7C7158",
"v.	c #A38F6D",
"w.	c #D0CB62",
"x.	c #0F1A23",
"y.	c #121E28",
"z.	c #0C1620",
"A.	c #080E16",
"B.	c #091018",
"C.	c #AB9A60",
"D.	c #D9D37F",
"E.	c #EEE281",
"F.	c #E7DC73",
"G.	c #BDB263",
"H.	c #A09B58",
"I.	c #162530",
"J.	c #090F18",
"K.	c #091119",
"L.	c #0A121A",
"M.	c #0D1620",
"N.	c #85794A",
"O.	c #DAC677",
"P.	c #D5C279",
"Q.	c #E4D07D",
"R.	c #9C9159",
"S.	c #182833",
"T.	c #1E313C",
"U.	c #0A111A",
"V.	c #060A11",
"W.	c #0B141E",
"X.	c #0B141C",
"Y.	c #091017",
"Z.	c #837648",
"`.	c #DAC676",
" +	c #CBBD6C",
".+	c #182934",
"++	c #6B6342",
"@+	c #B1A267",
"#+	c #AD9F65",
"$+	c #AFA063",
"%+	c #8A7E4F",
"&+	c #101C24",
"*+	c #121F2A",
"=+	c #84794F",
"-+	c #847847",
";+	c #04070B",
">+	c #010306",
",+	c #817446",
"'+	c #A49856",
")+	c #CFBA74",
"!+	c #EAE56D",
"~+	c #9C984F",
"{+	c #12202B",
"]+	c #646047",
"^+	c #C0AD6D",
"/+	c #C5C15F",
"(+	c #162631",
"_+	c #7C7348",
":+	c #AFA05E",
"<+	c #786C42",
"[+	c #060B11",
"}+	c #060A10",
"|+	c #020406",
"1+	c #837744",
"2+	c #DDD36B",
"3+	c #DFD174",
"4+	c #EDE684",
"5+	c #9C965E",
"6+	c #928D4F",
"7+	c #C4BD5F",
"8+	c #13242C",
"9+	c #7F7C3B",
"0+	c #DDD469",
"a+	c #D9CF6A",
"b+	c #7C7740",
"c+	c #03060A",
"d+	c #020407",
"e+	c #8F8C41",
"f+	c #B5B155",
"g+	c #E5DE80",
"h+	c #EDD79A",
"i+	c #A68D98",
"j+	c #091B21",
"k+	c #172D35",
"l+	c #676345",
"m+	c #CBB96F",
"n+	c #E5C8A4",
"o+	c #AC87C2",
"p+	c #3F316A",
"q+	c #0B1D1D",
"r+	c #0B1A1E",
"s+	c #7F7254",
"t+	c #DDCC88",
"u+	c #DBD666",
"v+	c #B9B456",
"w+	c #BEB957",
"x+	c #7E7B38",
"y+	c #03070C",
"z+	c #C6B66F",
"A+	c #EACDAB",
"B+	c #B983DE",
"C+	c #846597",
"D+	c #8672A2",
"E+	c #A0889B",
"F+	c #C2AF86",
"G+	c #5B4095",
"H+	c #5C3894",
"I+	c #63399E",
"J+	c #533788",
"K+	c #332457",
"L+	c #7A6F55",
"M+	c #DBD368",
"N+	c #A69B53",
"O+	c #C3B169",
"P+	c #938F58",
"Q+	c #DFC696",
"R+	c #CB9ED8",
"S+	c #ECBAF8",
"T+	c #CE85FD",
"U+	c #F2C7EF",
"V+	c #D9BFAF",
"W+	c #D1C071",
"X+	c #9C8D58",
"Y+	c #807748",
"Z+	c #172F32",
"`+	c #34365D",
" @	c #5E4199",
".@	c #483377",
"+@	c #1D1D39",
"@@	c #0C1921",
"#@	c #7C7346",
"$@	c #AA9A5C",
"%@	c #A49558",
"&@	c #D7C375",
"*@	c #D6C274",
"=@	c #B4A262",
"-@	c #B19F62",
";@	c #D5C373",
">@	c #736C53",
",@	c #595846",
"'@	c #BFB469",
")@	c #E2C9A2",
"!@	c #C074F7",
"~@	c #C68AF7",
"{@	c #DBAFE9",
"]@	c #F9EAA7",
"^@	c #E3DE6C",
"/@	c #87844D",
"(@	c #121E29",
"_@	c #111D27",
":@	c #1B2F38",
"<@	c #192F35",
"[@	c #13252C",
"}@	c #0D1822",
"|@	c #0F1A25",
"1@	c #0D1621",
"2@	c #070D15",
"3@	c #746A3D",
"4@	c #D0BE6F",
"5@	c #998E62",
"6@	c #8E825E",
"7@	c #7D7853",
"8@	c #CCC866",
"9@	c #EAD992",
"0@	c #CDA4DA",
"a@	c #DB9DF7",
"b@	c #B16BF7",
"c@	c #FBDDDF",
"d@	c #D1C96C",
"e@	c #1B2C38",
"f@	c #0F1B25",
"g@	c #101B24",
"h@	c #1E313D",
"i@	c #1D303B",
"j@	c #8B8950",
"k@	c #CAC666",
"l@	c #CAC56B",
"m@	c #938E4A",
"n@	c #0F1B26",
"o@	c #010506",
"p@	c #1F1435",
"q@	c #C0AF72",
"r@	c #B3AA65",
"s@	c #DFC4A0",
"t@	c #C274F7",
"u@	c #C689F7",
"v@	c #DDAEEA",
"w@	c #F3D9AC",
"x@	c #CAB870",
"y@	c #101C26",
"z@	c #0E1822",
"A@	c #14222D",
"B@	c #868548",
"C@	c #E4DE80",
"D@	c #E1D280",
"E@	c #8B8049",
"F@	c #000000",
"G@	c #11091B",
"H@	c #8A6C93",
"I@	c #DFC0AB",
"J@	c #DAC293",
"K@	c #C391DD",
"L@	c #DDA0F7",
"M@	c #B069F7",
"N@	c #F8D5E0",
"O@	c #DBC777",
"P@	c #7C7043",
"Q@	c #040A0F",
"R@	c #0B131A",
"S@	c #837D4B",
"T@	c #DECB7C",
"U@	c #DDC878",
"V@	c #817345",
"W@	c #45246C",
"X@	c #C8ADA1",
"Y@	c #E0C59F",
"Z@	c #D198F7",
"`@	c #C486F7",
" #	c #DDB1E9",
".#	c #F6E4A5",
"+#	c #DBC677",
"@#	c #776E42",
"##	c #18172F",
"$#	c #2F224F",
"%#	c #172830",
"&#	c #A0925B",
"*#	c #DDC978",
"=#	c #827447",
"-#	c #020508",
";#	c #110B1E",
">#	c #B5A367",
",#	c #DFC88E",
"'#	c #E6B0DF",
")#	c #E4B3F7",
"!#	c #AF67F7",
"~#	c #FBDCE1",
"{#	c #C8BE65",
"]#	c #2E2653",
"^#	c #5B3393",
"/#	c #1A1931",
"(#	c #13222C",
"_#	c #7D744A",
":#	c #D3C272",
"<#	c #A09058",
"[#	c #050910",
"}#	c #020306",
"|#	c #C0B75D",
"1#	c #F4E4A0",
"2#	c #E299F7",
"3#	c #F1C6F7",
"4#	c #E3B7EB",
"5#	c #F7E5AF",
"6#	c #D3C976",
"7#	c #3F2768",
"8#	c #25173F",
"9#	c #83813C",
"0#	c #D4CF63",
"a#	c #E1DB6F",
"b#	c #E8E27A",
"c#	c #8F8C49",
"d#	c #000101",
"e#	c #C6BD6F",
"f#	c #ECD89C",
"g#	c #B989E2",
"h#	c #BD75F7",
"i#	c #EABCF7",
"j#	c #C794E3",
"k#	c #D9C576",
"l#	c #6F6440",
"m#	c #7B6F4B",
"n#	c #D1C46A",
"o#	c #DFD76A",
"p#	c #A99D5E",
"q#	c #675E37",
"r#	c #CEBA72",
"s#	c #E9CD9E",
"t#	c #CD82F7",
"u#	c #E2B1F7",
"v#	c #F0C9EA",
"w#	c #D8C0A0",
"x#	c #04080E",
"y#	c #90824D",
"z#	c #D9C379",
"A#	c #827546",
"B#	c #010204",
"C#	c #BCAC64",
"D#	c #E6D183",
"E#	c #DEB7BB",
"F#	c #EBBDF7",
"G#	c #C393E3",
"H#	c #D6D162",
"I#	c #060C13",
"J#	c #8D814E",
"K#	c #E0D56F",
"L#	c #857F3C",
"M#	c #C5C05A",
"N#	c #F5EB7E",
"O#	c #F3E4A3",
"P#	c #E9DD9A",
"Q#	c #E1D878",
"R#	c #706F46",
"S#	c #121F28",
"T#	c #979353",
"U#	c #A4A04B",
"V#	c #524F26",
"W#	c #D5CD65",
"X#	c #D2BF74",
"Y#	c #15232D",
"Z#	c #7C7144",
"`#	c #E5D581",
" $	c #E5DD6D",
".$	c #D6CE66",
"+$	c #E7D27D",
"@$	c #CBBA6E",
"#$	c #101C27",
"$$	c #8D804F",
"%$	c #EFE477",
"&$	c #D8CE6A",
"*$	c #E5DB72",
"=$	c #BFA57A",
"-$	c #DCD76B",
"  . + . @ # $ % & & * = = - ; > , + - @ ' ) ! ; - + ~ > ; { ] ^ / ( _ ) : - - - - - . > < [ } | @ @ : @ 1 ' 2 3 4 2 ] 5 ",
"6 7 = 8 9 - - 9 & & = = 9 = + . = * # 9 . - . + & 0 % + . . # a 8 @ b 8 & > = c 9 c = > ~ d e f . + + . ; + g h i b # # ",
"j ' 9 8 8 = = 9 . . . = c ' k k l { { ' { # > % $ a a a 8 = = = 8 & 0 m n # k k { { o p > a 9 9 8 8 a * & = . c 8 & ' { ",
"' o # ' ' ' j + 9 + + # k ! 5 q q r { s t t ' ' - . o { u 7 = = $ & j @ @ q ! 1 t { t ] ] @ u . @ ' ' u > , % v 6 ^ k k ",
"_ ! w q w k s - . . . 9 - - - . - @ @ - ; { { ! x x 1 @ { @ - - . . - . - . - @ ' - - @ k 1 ! x ! @ k { : 9 9 # b . b k ",
"= 9 . . . + c . = = = = 9 9 + c 7 9 . - - - - - - - - . - - . 8 = 8 7 9 = 8 c 7 # - . . - - . - - . . : . = = = = 7 = > ",
"p ( y @ c z 0 $ > = > % 8 # ' ' { t ' c c . + # @ k @ 7 8 8 7 = * $ 0 v ( # { { k # 7 . c c @ k @ j 7 7 + = 8 = > A ( y ",
"k { t _ 5 B ' j 6 ( z 6 { ] ] _ 5 _ r ' c + . k ] r _ _ k ' j 8 m m f ' ] l 5 5 l k # 9 . @ { ] _ 5 k ' # n 7 7 C ' { l ",
"9 @ ; : ) ; k ] ] ] t ] ] { w ) : : - b - 8 8 b @ : : : w s { ] { t ] { s ) : : : b . c 8 c @ : : : ; s ] ] ] ] ] r 5 ! ",
"+ - - - - - - @ s @ { { k @ - - - - . c 8 8 9 9 - - - . - - s { @ s s k - - - - . 9 + 8 8 9 . . - - - - @ s @ s ' ; : - ",
"D & + - + = = @ @ - - - b - + 9 . - c c 7 8 7 8 . - . . . - @ @ - - - b 9 7 9 b - c C 8 8 + c - - - . . b @ - . - . . 9 ",
"( A D 0 % D 0 E c 9 . c 7 8 # ' { { { t s ^ ^ b . = = 7 8 8 7 9 9 9 c 8 c ' ' { { { { { # c b c = = 7 E $ % & = + 8 c ' ",
"] { ^ ^ o o ' @ # c 9 9 @ { { ] ] _ 5 _ ] s ] ] ' ' ^ s s ' o c 9 9 c s ] { s _ 5 _ l ] ] ] { o o ' k k ^ y > % 0 6 F G ",
"@ ' { { H I ! B @ . . 9 c b b - : ) : ) ; k { ] ] ] _ I ! 1 k - . 9 9 b b b - ) ) : ) @ s { t ] l 5 J ! k @ - . 8 = 6 > ",
"> E > % K + - . 9 = 8 8 + . 9 . . - - - - @ @ @ k w x : . - . 8 8 8 8 c - - . - . . - b @ @ k @ q ) - - - + 8 = 8 = 9 . ",
"7 @ . . . .   . . + + = 8 & > # + 9 . . - - c L M . . . N O . 9 = c E & > b c + . . - - . . - . - - . . . . + + = = 7 c ",
"- - - - - 8 8 c * % % , v n ' { ' # 7 # { ^ c P Q R N + S T U 8 a % D V C ] { o c 7 { o j 7 8 . - . = f 7 + E = 8 7 + . ",
"k k k k ' ' { k j V 6 + ; 5 5 1 k s { { ] ] ] W X Y Z `  ...+.@.@ # w H 5 5 w k { { ] ] ] { @ # # ' ' { k @ @ ' B _ < * ",
"k 1 ! r ] l ! ) ) ! J J ) : - . . . b @ @ { s w #.$.Y %.5 &.*.=.J J ) ; :   - - - @ @ { { k ! 5 l ] _ ! q ) ! J q ) : - ",
"- - : ; @ : : - - - . . + c 7 # b b . - @ @ - - . -.;.>.R ,.*.'.- . . 8 7 7 # b . . b k b - - - ; @ ; - - . - - = * z 8 ",
"b b c c + 9 9 + + + + 7 # ' t t { { # 8 c 9 c @ c ).!.~.{.].^./.c 8 7 ' { ] { { ' 8 + 9 9 # b c . + . 9 + c + > , p C u ",
"{ s b . 9 + + # ' ' ' { ] s t t ] _ 5 @ # ^ { { @ (._.:.<.[.}.|.' { ] ] ] ] ] l _ l u # ' t @ @ . + + + # ' ' ^ o t @ @ ",
"s @ - 9 . . @ t ] ] t t s { k b : : ) x 5 l 1.2.3.4.5.6.7.8.9.0.{ ] s { k @ : ) ) ) 5 1 _ r @ - + 9 - @ { ] ] r ! @ @ k ",
": . 9 9 8 c b k k { k - @ k b c - . . . - a.b.c.d.e.f.g.h.i.j.k.s b b { @ . . . . . - - ) ; . + + = . - k s s w : k @ @ ",
"- 9 = E E 7 9 - - - - 9 c c # b # # ' j l.m.n.o.e.p.q._.^.r.s.- - . 9 c C c b # ^ j # b + . . = 8 a = 9 . - - - 9 = = 6 ",
"t.u.v.~ D % & + - 9 = 8 ^ s l 5 5 ] { ] w.o.;.Y x.y.g.z.A.B.C.. + 8 c { { _ 5 l ] ] ] { u c 7 7 7 7 7 8 8 * E > V 6 o o ",
"g [ D.E.o ^ y 8 - 9 9 b k - - : ; s F.G.H.I.n.f.J.K.K.L.M.g.N.O.. . @ @ - ) ; @ s @ @ ] ] l 1 ! _ t t k = > > P.' _ 5 _ ",
"w ) ) ; ; @ k - . 9 9 7 . - - 9 . Q.R.o.I.S.T.S.U.V.K._.W.X.Y.Z.`.+ + - - c . . b - - @ k ; : ) ) - @ @ . . . + c ) ) . ",
". - - - . + = 9 8 8 8 8 8 7 7 7 j  +.+.+++@+#+$+%+&+x.*+=+-+;+>+,+'+)++ 7 8 # # b . . . . . - b - 9 9 c 9 = 8 = E $ v A ",
"# { ] { ' # > , z > 8 8 # { { r !+~+{+]+^++ c ' /+I.I.(+_+:+<+[+}+|+1+2+{ s ] l ] o 8 7 c # k { k ' # 7 = = E , A A f { ",
"_ 5 ! 1 ! 1 s o 3+n o { ] ] _ 4+5+I.o.6+. 9 # k 7+8+(+f.9+0+a+b+U.c+d+e+f+g+J J w k b . + b s w ! 5 _ { ' o n n ' t ] l ",
"x ; - - - : @ { ] ] ] ] ] k h+i+j+k+l+m++ = = n+o+p+q+r+s+t+s u+v+w+x+y+[+z+- - - 9 . + 8 c - - - - : @ { ] t ] ] ] k ; ",
"@ - - : - - - @ k @ b @ @ b A+B+C+D+E+c 8 E 9 F+G+H+I+J+K+L+M+' b @ N+d+|+O+. - - 9 8 8 8 + 9 - . - . - @ s - @ @ @ @ . ",
"@ 8 g P+E 8 8 . c b . . . Q+R+S+T+U+V+^ ^ W+X+Y+Z+`+ @.@+@@@#@$@%@&@*@=@-@;@c @ @ # ' j 8 7 9 - . . + 9 # - - . - - 9 + ",
">@,@P+'@( p ( ( $ 8 8 + # )@!@~@{@]@l r ^@/@(@_@d.:@<@[@}@|@|@1@2@3@4@# ' ' ] ] s l ] ] ' ' @ 7 7 7 # c 8 7 + + 6 5@6@6@",
"7@8@s ] l _ l s ^ 9 9 . 9@0@a@b@c@I J x d@e@f@g@h@i@j@k@l@m@n@L.o@p@q@k s k k 5 ! ! 5 { ] ] ] { s ] _ l s ' . . 9 v r@2 ",
"@ ] { _ 5 x ) - - 9 9 = s@t@u@v@w@- - - x@y@_.z@A@B@C@J ) D@E@|+F@G@H@I@- . - - - - - b { s s { 5 I ) ) ; - 9 + = + - ; ",
"k @ b : - - - . + 8 = J@K@L@M@N@. . - O@P@Q@R@.+S@T@- - - - U@V@F@F@W@X@+ . c - - - - b @ b @ b : - - - - + = = = + . + ",
"9 . . . - 9 9 c . + 7 Y@Z@`@ #.#c 7 +#@###$#%#e.&#- - . 9 c . *#=#-#;#>#j { # 8 + 9 b b + 7 . - . . . 8 = = = = $ % % m ",
"' c b - . 7 c # 7 8 ,#'#)#!#~#s ] ' {#]#^#/#(#_#:#9 . c c c 7 8 <#[#}#|#l l ] { ' b { { ' # 8 c . # 7 c ( A > 6 ( C k r ",
"y 6 o { { B l 1 B 1 1#2#3#4#5#) - @ 6#7#8#9#0#a#w ' { { r _ w B b#c#d#e#x ! ; ; @ { s ] ] ] w w k t { l _ w w _ 5 I ! x ",
"* * + 1 s 1 ) : - f#g#h#i#j#9 . . k#l#m#n#o#@ ; ) ! s B ! ) - : ) p#}#q#r#+ . - - - - s @ @ ) ) 1 s 1 ) : : : ) : - . c ",
"- . . - b - . . . s#t#u#v#w#j @ ' n#x#y#b b . . . . . - - . . . . z#A#B#C#' ' ' c + . b - . . . - - - - c . . 9 + 8 c o ",
"k ' b 9 + 7 7 + c D#E#F#G#t ] ] ] H#I#J#c c # k u . 9 + + = 7 c c c K#L#M#] ] ] s ^ 7 7 c ' ' # 9 + + 8 7 c c c # ' C 6 ",
"] @ - . + . . ' { ] N#O#P#{ s { Q#R#S#T#k k { s b . c 9 . b { { { ] ] U#V#W#B ! 5 5 H ' t ] @ - + 9 9 . ' { ] ] ] n ( y ",
"k @ . . + . @ ] ] ] ] @ k { @ - X#Y#Z#`#q w 1 w - - + 9 - s ] ] ] { @  $.$+$- - - : q q H w @ - . + - k ] ] ] ] k ' s @ ",
"- . = 8 8 9 - - @ ' b - @ # c . @$#$$$+ - - - - + 8 8 = 9 - b @ @ - b @ c 9 . c 9 + . . - - . = 8 E + - b @ @ - - @ # 9 ",
"* * = $ , 0 & & + . . + c o ' @ %$&$*$' ' # + 9 + E & % 0 = 9 . . 9 7 j @ ' k o { k o @ 9 + . = 8 8 = = . - . . + 8 ^ o ",
"n E V P.n C P.> $ & = c { s w ! ! s s s t t ' y > ( 6 6 7 P.= 9 + c ' s @ ! ! _ s s ] { { ' b c @ o o 7 8 = > , % y C ( ",
"_ I J 5 w t { - . . . - b . - - - k @ - @ s s ! x ! w k ] @ - - . . b - - - - @ k b b s ] 1 J ! ! B s ] b - + * > E # ^ ",
". = . 9 = - - - + + 8 8 9 . + c 9 c - - - b b - - - - . - - . + = 8 = 9 9 7 + c c - - - b : - - - - - - . = + = 8 . 9 = ",
", z a 7 > 8 7 9 + 8 8 8 7 c # ^ ' ' ' c 9 . + b @ @ b c 8 9 + 8 = 8 = c # # ' ' k c c 9 c c b k b c 8 + + = 8 = = + 8 6 ",
"a { ] l _ @ o j 7 8 8 C ' t ] l _ _ k ' c 9 . k ] l 5 l ' j 7 8 f 7 o { ] r _ _ l ' c 9 . @ ] ] _ _ k ^ # f > % * @ { ] ",
"t { ; w q w { t { { t ] ] s w ! ) ) ; b . + 8 b @ : ) ) s { t { { t ] ] s ! ! ) ) b b . 8 c k : ) ) w s s { u # k r l _ ",
"@ @ @ @ @ - - @ ] s { { k @ - - - - . 7 + 8 7 . - . . - - b s s { { s @ - . . . . 9 = 8 8 9 . . . . - - @ ] ] s # = * A ",
"- - . . 9 . - @ k @ - - @ b 9 . - - . 8 8 8 + 8 . - - - . b k @ - b - @ . 9 . - - 7 7 8 8 + 9 - . . 9 . ' { ' a ( z p v ",
"A % =$% > E 8 E = = + 9 = 8 c ^ k { k { { o 7 # . + c + 8 7 + + 8 = & $ 8 j ' { { { { { C c b 9 = 0 0 , , = 9 9 @ { k y ",
"r@7 a 7 o k o i 6 $ = + ' { { ] ] l _ l ] ] t t o j j ' k ^ c 8 0 D , y s ] { l _ _ ] ] ] { { ^ 7 C ' ^ y 6 # @ k ] ] -$",
"] ] k s _ 5 5 r @ . - . . @ @ - ; q ) ) w k t t ] ] l 5 5 _ k - . + 9 b @ - - ) ) ) q k s { ] ] r _ 5 5 s k k @ ' ' { ] ",
"_ _ k - ) : : - . = 8 8 = . . . - - - - - @ k @ s B I ) - : . + = 8 8 9 . - - . - . - b k k k ' q x : : - . 8 8 8 8 b @ "};
