/* XPM */
static char * perso3_xpm[] = {
"60 60 394 2",
"  	c #ECDB88",
". 	c #EFD982",
"+ 	c #E7D081",
"@ 	c #F3E47C",
"# 	c #EBDB7B",
"$ 	c #D0B77D",
"% 	c #CCB37B",
"& 	c #D8BF7F",
"* 	c #DDC580",
"= 	c #E4CD80",
"- 	c #F1DB83",
"; 	c #F4E284",
"> 	c #D3BC7C",
", 	c #C5AC7A",
"' 	c #F1E676",
") 	c #F4E38A",
"! 	c #F8ED8D",
"~ 	c #BBA376",
"{ 	c #F5EC75",
"] 	c #F8F273",
"^ 	c #EADE76",
"/ 	c #B4A070",
"( 	c #D0BD76",
"_ 	c #F9F383",
": 	c #F3DF88",
"< 	c #EEE08C",
"[ 	c #CDCA7A",
"} 	c #6D694D",
"| 	c #878256",
"1 	c #F8EE84",
"2 	c #BDB961",
"3 	c #78794B",
"4 	c #44463D",
"5 	c #FAF38B",
"6 	c #D8C776",
"7 	c #E6D37C",
"8 	c #E2CC7E",
"9 	c #EBD482",
"0 	c #C8AF7B",
"a 	c #DEC97D",
"b 	c #F1DE7E",
"c 	c #E9D57D",
"d 	c #A5916C",
"e 	c #BDA873",
"f 	c #E0CF77",
"g 	c #A59A64",
"h 	c #A6A45B",
"i 	c #D7C973",
"j 	c #E7DA7A",
"k 	c #F5EA7A",
"l 	c #F9F37B",
"m 	c #CDBB75",
"n 	c #E2D575",
"o 	c #EEE376",
"p 	c #D4C475",
"q 	c #F6EA8B",
"r 	c #F7F079",
"s 	c #F9EF76",
"t 	c #F7F173",
"u 	c #EEE17A",
"v 	c #C7B473",
"w 	c #F6EC83",
"x 	c #F7EB90",
"y 	c #DACB75",
"z 	c #CBB577",
"A 	c #C3AD77",
"B 	c #F9EF7C",
"C 	c #E5D975",
"D 	c #C0A57A",
"E 	c #DBC47E",
"F 	c #CCC569",
"G 	c #AEAB5D",
"H 	c #F7F083",
"I 	c #FAF191",
"J 	c #F8EE90",
"K 	c #DCC885",
"L 	c #CFBB79",
"M 	c #E9D381",
"N 	c #E5CF80",
"O 	c #E6CF7F",
"P 	c #908150",
"Q 	c #D8C279",
"R 	c #E4D07A",
"S 	c #A19A4E",
"T 	c #D9CF6A",
"U 	c #E3CC7F",
"V 	c #81764A",
"W 	c #30322D",
"X 	c #9D984E",
"Y 	c #F2EC70",
"Z 	c #A8A44D",
"` 	c #646235",
" .	c #E1DC69",
"..	c #DCCA78",
"+.	c #877D53",
"@.	c #111E29",
"#.	c #C1B962",
"$.	c #666233",
"%.	c #797044",
"&.	c #C9B674",
"*.	c #172732",
"=.	c #8C8050",
"-.	c #B3A363",
";.	c #443E2A",
">.	c #786D46",
",.	c #6E6850",
"'.	c #7C7158",
").	c #A38F6D",
"!.	c #C5B26E",
"~.	c #0E1821",
"{.	c #0E1925",
"].	c #15242F",
"^.	c #16232E",
"/.	c #726845",
"(.	c #D9D37F",
"_.	c #EEE281",
":.	c #F4EE79",
"<.	c #F1E974",
"[.	c #CFC863",
"}.	c #091018",
"|.	c #0E1A24",
"1.	c #5B3B94",
"2.	c #373761",
"3.	c #9879A9",
"4.	c #D5C279",
"5.	c #ECDC85",
"6.	c #E2CF7E",
"7.	c #888258",
"8.	c #565643",
"9.	c #4C4A34",
"0.	c #0F1924",
"a.	c #0E1823",
"b.	c #232D44",
"c.	c #243240",
"d.	c #8D7F5B",
"e.	c #E7D27E",
"f.	c #9D8E55",
"g.	c #212426",
"h.	c #222E35",
"i.	c #1D303B",
"j.	c #1C2F3A",
"k.	c #111D27",
"l.	c #091119",
"m.	c #13202A",
"n.	c #504D39",
"o.	c #D3C471",
"p.	c #C9C062",
"q.	c #0E1922",
"r.	c #162631",
"s.	c #101C27",
"t.	c #131F29",
"u.	c #13202B",
"v.	c #0C151F",
"w.	c #0C151E",
"x.	c #1A1915",
"y.	c #9C8D56",
"z.	c #E0CA7D",
"A.	c #DFD174",
"B.	c #CDC468",
"C.	c #162530",
"D.	c #0B131C",
"E.	c #23251F",
"F.	c #9A9450",
"G.	c #BAB15D",
"H.	c #D3BE78",
"I.	c #736C4B",
"J.	c #2F393C",
"K.	c #373F3E",
"L.	c #30302B",
"M.	c #0F1113",
"N.	c #0A121A",
"O.	c #080E15",
"P.	c #060C11",
"Q.	c #3A391D",
"R.	c #B9B454",
"S.	c #F8EE75",
"T.	c #F2E37C",
"U.	c #D4BD7A",
"V.	c #6B6343",
"W.	c #1A2C37",
"X.	c #373935",
"Y.	c #BFAE6A",
"Z.	c #E4D07D",
"`.	c #D4C073",
" +	c #544D31",
".+	c #14222D",
"++	c #121F29",
"@+	c #020407",
"#+	c #3F3B1F",
"$+	c #625C2F",
"%+	c #C7B46B",
"&+	c #938F58",
"*+	c #CBBA6E",
"=+	c #373730",
"-+	c #3C3C2F",
";+	c #B9A768",
">+	c #C8B76C",
",+	c #13232C",
"'+	c #192A36",
")+	c #1D2328",
"!+	c #776D44",
"~+	c #6D633C",
"{+	c #14181D",
"]+	c #03070C",
"^+	c #37311D",
"/+	c #BDAD65",
"(+	c #D7C474",
"_+	c #736C53",
":+	c #595846",
"<+	c #BFB469",
"[+	c #E1D59B",
"}+	c #59573A",
"|+	c #212D43",
"1+	c #A1967D",
"2+	c #E8D285",
"3+	c #BAA4A4",
"4+	c #34305B",
"5+	c #0F2026",
"6+	c #242521",
"7+	c #BEA977",
"8+	c #D7C575",
"9+	c #998C53",
"0+	c #6B6335",
"a+	c #010305",
"b+	c #05080E",
"c+	c #6D6B34",
"d+	c #F5EF72",
"e+	c #998E62",
"f+	c #8E825E",
"g+	c #7D7853",
"h+	c #CCC866",
"i+	c #E2CEB5",
"j+	c #C896E9",
"k+	c #8863A0",
"l+	c #9A88A0",
"m+	c #E1CFB0",
"n+	c #F6ED75",
"o+	c #B4AF5E",
"p+	c #624797",
"q+	c #61419E",
"r+	c #4B377C",
"s+	c #34275A",
"t+	c #4B3F56",
"u+	c #A99A5F",
"v+	c #CEBE6D",
"w+	c #DBD16C",
"x+	c #B7B055",
"y+	c #B5AD59",
"z+	c #C2B95F",
"A+	c #F9F28A",
"B+	c #B3AA65",
"C+	c #DAABCF",
"D+	c #E7B2F7",
"E+	c #CC86FC",
"F+	c #F7D2E8",
"G+	c #F5EA7C",
"H+	c #B2AD62",
"I+	c #2F2E20",
"J+	c #162D31",
"K+	c #2F3456",
"L+	c #3E356A",
"M+	c #29244A",
"N+	c #111A27",
"O+	c #0E1924",
"P+	c #58513A",
"Q+	c #938552",
"R+	c #D9C576",
"S+	c #EBC6B3",
"T+	c #E9AEF1",
"U+	c #C789F7",
"V+	c #DDACF1",
"W+	c #F1D7A4",
"X+	c #EEDB85",
"Y+	c #766E4A",
"Z+	c #101C26",
"`+	c #1B2F38",
" @	c #3B423C",
".@	c #434133",
"+@	c #423F31",
"@@	c #3C3A2F",
"#@	c #151D25",
"$@	c #5C5333",
"%@	c #817546",
"&@	c #DCCA76",
"*@	c #E5D27F",
"=@	c #F2CEC8",
"-@	c #C88BF7",
";@	c #D7A0F7",
">@	c #F5D0E4",
",@	c #E7D385",
"'@	c #A29357",
")@	c #15242E",
"!@	c #41443E",
"~@	c #67644A",
"{@	c #BEAE6C",
"]@	c #E8D37E",
"^@	c #DCC67C",
"/@	c #C7B470",
"(@	c #534C32",
"_@	c #000001",
":@	c #04070B",
"<@	c #726B40",
"[@	c #D5C077",
"}@	c #F7F078",
"|@	c #EAC7BF",
"1@	c #E2A6F6",
"2@	c #C78BF7",
"3@	c #E4BDE2",
"4@	c #F3E58E",
"5@	c #948551",
"6@	c #0A111A",
"7@	c #070D14",
"8@	c #6D6644",
"9@	c #D5C374",
"0@	c #CDBF6C",
"a@	c #8C8544",
"b@	c #5B5829",
"c@	c #060A11",
"d@	c #8D8945",
"e@	c #EED299",
"f@	c #D991F4",
"g@	c #CA8FF7",
"h@	c #E2BAE1",
"i@	c #F6EA92",
"j@	c #DFD677",
"k@	c #726D39",
"l@	c #050A10",
"m@	c #101C24",
"n@	c #1B2D38",
"o@	c #ABA85F",
"p@	c #E1D780",
"q@	c #736D41",
"r@	c #000000",
"s@	c #423C22",
"t@	c #C1B368",
"u@	c #EED786",
"v@	c #E8B7D0",
"w@	c #D494F6",
"x@	c #C384F7",
"y@	c #F7DBC1",
"z@	c #B5A967",
"A@	c #442E73",
"B@	c #1C1633",
"C@	c #111E27",
"D@	c #6B6841",
"E@	c #DACB7C",
"F@	c #AF9E5E",
"G@	c #2F2B1A",
"H@	c #BFAD67",
"I@	c #F0DA83",
"J@	c #F0DE8A",
"K@	c #BA7CED",
"L@	c #C182F7",
"M@	c #E5BEDC",
"N@	c #F0D992",
"O@	c #5A5231",
"P@	c #33293F",
"Q@	c #BEAC6B",
"R@	c #DCC877",
"S@	c #AB9D5E",
"T@	c #080E11",
"U@	c #534F25",
"V@	c #E8DD71",
"W@	c #E1B2D9",
"X@	c #DCA6F7",
"Y@	c #BF80F7",
"Z@	c #F4DAC8",
"`@	c #C2BA60",
" #	c #0A1119",
".#	c #B9A865",
"+#	c #B1AA53",
"@#	c #AFAB50",
"##	c #E9E36C",
"$#	c #CBA8D1",
"%#	c #EEC3F4",
"&#	c #F5DAD4",
"*#	c #F8EC91",
"=#	c #E0D76B",
"-#	c #373829",
";#	c #534F33",
">#	c #D1BE71",
",#	c #C7C25B",
"'#	c #837E3D",
")#	c #E5DD6D",
"!#	c #F1DA89",
"~#	c #F3D4C6",
"{#	c #F1DB87",
"]#	c #E1D879",
"^#	c #121E28",
"/#	c #B0A060",
"(#	c #B4A363",
"_#	c #CDB973",
":#	c #BFA57A",
"<#	c #DCD76B",
"  . + . @ # $ % & & * = = - ; > , + - @ ' ) ! ; - + ~ > ; { ] ^ / ( _ ) : - - - - - . > < [ } | @ @ : @ 1 ' 2 3 4 2 ] 5 ",
"6 7 = 8 9 - - 9 & & = = 9 = + . = * # 9 . - . + & 0 % + . . # a 8 @ b 8 & > = c 9 c = > ~ d e f . + + . ; + g h i b # # ",
"j ' 9 8 8 = = 9 . . . = c ' k k l { { ' { # > % $ a a a 8 = = = 8 & 0 m n # k k { { o p > a 9 9 8 8 a * & = . c 8 & ' { ",
"' o # ' ' ' j + 9 + + # k ! 5 q q r { s t t ' ' - . o { u 7 = = $ & j @ @ q ! 1 t { t ] ] @ u . @ ' ' u > , % v 6 ^ k k ",
"_ ! w q w k s - . . . 9 - - - . - @ @ - ; { { ! x x 1 @ { @ - - . . - . - . - @ ' - - @ k 1 ! x ! @ k { : 9 9 # b . b k ",
"= 9 . . . + c . = = = = 9 9 + c 7 9 . - - - - - - - - . - - . 8 = 8 7 9 = 8 c 7 # - . . - - . - - . . : . = = = = 7 = > ",
"p ( y @ c z 0 $ > = > % 8 # ' ' { t ' c c . + # @ k @ 7 8 8 7 = * $ 0 v ( # { { k # 7 . c c @ k @ j 7 7 + = 8 = > A ( y ",
"k { t _ 5 B ' j 6 ( z 6 { ] ] _ 5 _ r ' c + . k ] r _ _ k ' j 8 m m f ' ] l 5 5 l k # 9 . @ { ] _ 5 k ' # n 7 7 C ' { l ",
"9 @ ; : ) ; k ] ] ] t ] ] { w ) : : - b - 8 8 b @ : : : w s { ] { t ] { s ) : : : b . c 8 c @ : : : ; s ] ] ] ] ] r 5 ! ",
"+ - - - - - - @ s @ { { k @ - - - - . c 8 8 9 9 - - - . - - s { @ s s k - - - - . 9 + 8 8 9 . . - - - - @ s @ s ' ; : - ",
"D & + - + = = @ @ - - - b - + 9 . - c c 7 8 7 8 . - . . . - @ @ - - - b 9 7 9 b - c C 8 8 + c - - - . . b @ - . - . . 9 ",
"( A D 0 % D 0 E c 9 . c 7 8 # ' { { { t s ^ ^ b . = = 7 8 8 7 9 9 9 c 8 c ' ' { { { { { # c b c = = 7 E $ % & = + 8 c ' ",
"] { ^ ^ o o ' @ # c 9 9 @ { { ] ] _ 5 _ ] s ] ] ' ' ^ s s ' o c 9 9 c s ] { s _ 5 _ l ] ] ] { o o ' k k ^ y > % 0 6 F G ",
"@ ' { { H I ! B @ . . 9 c b b - : ) : ) ; k { ] ] ] _ I ! 1 k - . 9 9 b b b - ) ) : ) @ s { t ] l 5 J ! k @ - . 8 = 6 > ",
"> E > % K + - . 9 = 8 8 + . 9 . . - - - - @ @ @ k w x : . - . 8 8 8 8 c - - . - . . - b @ @ k @ q ) - - - + 8 = 8 = 9 . ",
"7 @ . . . .   . . + + = 8 & > # + 9 . . - - c . - . . . . . . 9 = c E & > b c + . . - - . . - . - - . . . . + + = = 7 c ",
"- - - - - 8 8 c * % % , v n ' { ' # 7 # { ^ c 8 c . - + 8 7 + 8 a % D L C ] { o c 7 { o j 7 8 . - . = f 7 + E = 8 7 + . ",
"k k k k ' ' { k j L 6 + ; 5 5 1 k s { { ] ] ] { # # @ ' k t @ ' @ # w H 5 5 w k { { ] ] ] { @ # # ' ' { k @ @ ' B _ < * ",
"k 1 ! r ] l ! ) ) ! J J ) : - . . . b @ @ { s w ! _ ] ] 5 ! ) q J J ) ; :   - - - @ @ { { k ! 5 l ] _ ! q ) ! J q ) : - ",
"- - : ; @ : : - - - . . + c 7 # b b . - @ @ - - . : ; ; - - - - - . . 8 7 7 # b . . b k b - - - ; @ ; - - . - - = * z 8 ",
"b b c c + 9 9 + + + + 7 # ' t t { { # 8 c 9 c @ c 9 9 M . + + N c 8 7 ' { ] { { ' 8 + 9 9 # b c . + . 9 + c + > , p C u ",
"{ s b . 9 + + # ' ' ' { ] s t t ] _ 5 @ # ^ { { @ . O P Q R b S T { ] ] ] ] ] l _ l u # ' t @ @ . + + + # ' ' ^ o t @ @ ",
"s @ - 9 . . @ t ] ] t t s { k b : : ) x 5 l l s - - U V W X Y Z `  .s { k @ : ) ) ) 5 1 _ r @ - + 9 - @ { ] ] r ! @ @ k ",
": . 9 9 8 c b k k { k - @ k b c - . . . - : ) - 9 c + ..+.@.#.s $.%.b { @ . . . . . - - ) ; . + + = . - k s s w : k @ @ ",
"- 9 = E E 7 9 - - - - 9 c c # b # # ' j # . 9 . 9 8 y = &.*.=.-.;.>.9 c C c b # ^ j # b + . . = 8 a = 9 . - - - 9 = = 6 ",
",.'.).~ D % & + - 9 = 8 ^ s l 5 5 ] { ] ] ' # c c 8 7 7 !.~.{.].^./.c { { _ 5 l ] ] ] { u c 7 7 7 7 7 8 8 * E > L 6 o o ",
"g [ (._.o ^ y 8 - 9 9 b k - - : ; s k @ k ] ] _ q ! :.<.[.}.|.1.2.3.@ @ - ) ; @ s @ @ ] ] l 1 ! _ t t k = > > 4.' _ 5 _ ",
"w ) ) ; ; @ k - . 9 9 7 . - - 9 . - b - - @ @ : 5.6.7.8.9.0.a.b.c.d.+ - - c . . b - - @ k ; : ) ) - @ @ . . . + c ) ) . ",
". - - - . + = 9 8 8 8 8 8 7 7 7 j # b . - - . e.f.g.h.i.j.k.l.m.n.o.= + 7 8 # # b . . . . . - b - 9 9 c 9 = 8 = E $ v A ",
"# { ] { ' # > , z > 8 8 # { { r ] r { c = + c p.q.r.s.t.u.v.w.x.y.z.c ' { s ] l ] o 8 7 c # k { k ' # 7 = = E , A A f { ",
"_ 5 ! 1 ! 1 s o A.n o { ] ] _ 5 J ! B ' . 9 # B.C.C.C.D.}.l.}.E.F.G.{ ] ] 5 J J w k b . + b s w ! 5 _ { ' o n n ' t ] l ",
"x ; - - - : @ { ] ] ] ] ] k ; - - - . . + = H.I.].J.K.L.M.N.O.w.P.Q.R.S.T.: - - - 9 . + 8 c - - - - : @ { ] t ] ] ] k ; ",
"@ - - : - - - @ k @ b @ @ b - - - . . c 8 U.V.W.X.Y.Z.`. +.+].++D.@+#+$+%+. . - - 9 8 8 8 + 9 - . - . - @ s - @ @ @ @ . ",
"@ 8 g &+E 8 8 . c b . . . + 8 c @ @ # ^ ^ *+=+-+;+. 9 . >+,+'+)+!+~+{+]+^+/+(+@ @ # ' j 8 7 9 - . . + 9 # - - . - - 9 + ",
"_+:+&+<+( p ( ( $ 8 8 + # # ' { ] ] l r [+}+|+1+# 8 8 2+3+4+5+6+7+8+9+0+a+b+c+d+s l ] ] ' ' @ 7 7 7 # c 8 7 + + 6 e+f+f+",
"g+h+s ] l _ l s ^ 9 9 . @ { k s 1 I J i+j+k+l+m+] s n+o+p+q+r+s+t+u+v+w+x+y+z+A+! ! 5 { ] ] ] { s ] _ l s ' . . 9 v B+2 ",
"@ ] { _ 5 x ) - - 9 9 = 7 - - - - - - C+D+E+F+G+{ ] H+I+J+K+L+M+N+O+P+Q+R+. - - - - - b { s s { 5 I ) ) ; - 9 + = + - ; ",
"k @ b : - - - . + 8 = 8 8 9 9 9 . . S+T+U+V+W+@ @ X+Y+Z+j.`+ @.@+@@@#@}.$@%@&@- - - - b @ b @ b : - - - - + = = = + . + ",
"9 . . . - 9 9 c . + 7 8 8 7 ^ k c *@=@-@;@>@,@+ . '@)@k.!@~@{@]@^@/@(@a+_@:@<@[@+ 9 b b + 7 . - . . . 8 = = = = $ % % m ",
"' c b - . 7 c # 7 8 f c ^ B l s }@|@1@2@3@4@' c 7 5@6@7@8@9@7 8 8 7 0@a@b@_@c@d@' b { { ' # 8 c . # 7 c ( A > 6 ( C k r ",
"y 6 o { { B l 1 B 1 _ 5 5 x x ) e@f@g@h@i@] ] r j@k@l@m@n@o@w B _ _ 5 p@q@r@s@t@@ { s ] ] ] w w k t { l _ w w _ 5 I ! x ",
"* * + 1 s 1 ) : - ) ) : - . 9 u@v@w@x@y@@ { @ ; z@A@B@C@D@E@- : ) ) : F@@+G@H@I@- - - s @ @ ) ) 1 s 1 ) : : : ) : - . c ",
"- . . - b - . . . . + = 7 7 j J@K@L@M@N@b b . `.O@P@Q@`.R@. . . . + 8 S@T@U@V@' c + . b - . . . - - - - c . . 9 + 8 c o ",
"k ' b 9 + 7 7 + c 7 > ( o t ] W@X@Y@Z@c c c # `@ #.#9 + + = 7 c c c o +#@###t ] s ^ 7 7 c ' ' # 9 + + 8 7 c c c # ' C 6 ",
"] @ - . + . . ' { ] { ] ] { s $#%#&#*#5 k k =#-#;#>#c 9 . b { { { ] ] ,#'#)#B ! 5 5 H ' t ] @ - + 9 9 . ' { ] ] ] n ( y ",
"k @ . . + . @ ] ] ] ] @ k { @ !#~#{#- ) q w ]#^#/#- + 9 - s ] ] ] { @ { { - - - - : q q H w @ - . + - k ] ] ] ] k ' s @ ",
"- . = 8 8 9 - - @ ' b - @ # c . c 9 . + - - e.(#_#8 8 = 9 - b @ @ - b @ c 9 . c 9 + . . - - . = 8 E + - b @ @ - - @ # 9 ",
"* * = $ , 0 & & + . . + c o ' @ k ' k ' ' # + 9 + E & % 0 = 9 . . 9 7 j @ ' k o { k o @ 9 + . = 8 8 = = . - . . + 8 ^ o ",
"n E L 4.n C 4.> $ & = c { s w ! ! s s s t t ' y > ( 6 6 7 4.= 9 + c ' s @ ! ! _ s s ] { { ' b c @ o o 7 8 = > , % y C ( ",
"_ I J 5 w t { - . . . - b . - - - k @ - @ s s ! x ! w k ] @ - - . . b - - - - @ k b b s ] 1 J ! ! B s ] b - + * > E # ^ ",
". = . 9 = - - - + + 8 8 9 . + c 9 c - - - b b - - - - . - - . + = 8 = 9 9 7 + c c - - - b : - - - - - - . = + = 8 . 9 = ",
", z a 7 > 8 7 9 + 8 8 8 7 c # ^ ' ' ' c 9 . + b @ @ b c 8 9 + 8 = 8 = c # # ' ' k c c 9 c c b k b c 8 + + = 8 = = + 8 6 ",
"a { ] l _ @ o j 7 8 8 C ' t ] l _ _ k ' c 9 . k ] l 5 l ' j 7 8 f 7 o { ] r _ _ l ' c 9 . @ ] ] _ _ k ^ # f > % * @ { ] ",
"t { ; w q w { t { { t ] ] s w ! ) ) ; b . + 8 b @ : ) ) s { t { { t ] ] s ! ! ) ) b b . 8 c k : ) ) w s s { u # k r l _ ",
"@ @ @ @ @ - - @ ] s { { k @ - - - - . 7 + 8 7 . - . . - - b s s { { s @ - . . . . 9 = 8 8 9 . . . . - - @ ] ] s # = * A ",
"- - . . 9 . - @ k @ - - @ b 9 . - - . 8 8 8 + 8 . - - - . b k @ - b - @ . 9 . - - 7 7 8 8 + 9 - . . 9 . ' { ' a ( z p v ",
"A % :#% > E 8 E = = + 9 = 8 c ^ k { k { { o 7 # . + c + 8 7 + + 8 = & $ 8 j ' { { { { { C c b 9 = 0 0 , , = 9 9 @ { k y ",
"B+7 a 7 o k o i 6 $ = + ' { { ] ] l _ l ] ] t t o j j ' k ^ c 8 0 D , y s ] { l _ _ ] ] ] { { ^ 7 C ' ^ y 6 # @ k ] ] <#",
"] ] k s _ 5 5 r @ . - . . @ @ - ; q ) ) w k t t ] ] l 5 5 _ k - . + 9 b @ - - ) ) ) q k s { ] ] r _ 5 5 s k k @ ' ' { ] ",
"_ _ k - ) : : - . = 8 8 = . . . - - - - - @ k @ s B I ) - : . + = 8 8 9 . - - . - . - b k k k ' q x : : - . 8 8 8 8 b @ "};
