/* XPM */
static char * perso4_xpm[] = {
"60 60 433 2",
"  	c #ECDB88",
". 	c #EFD982",
"+ 	c #E7D081",
"@ 	c #F3E47C",
"# 	c #EBDB7B",
"$ 	c #D0B77D",
"% 	c #CCB37B",
"& 	c #D8BF7F",
"* 	c #DDC580",
"= 	c #E4CD80",
"- 	c #F1DB83",
"; 	c #F4E284",
"> 	c #D3BC7C",
", 	c #C5AC7A",
"' 	c #F1E676",
") 	c #F4E38A",
"! 	c #F8ED8D",
"~ 	c #BBA376",
"{ 	c #F5EC75",
"] 	c #F8F273",
"^ 	c #EADE76",
"/ 	c #B4A070",
"( 	c #D0BD76",
"_ 	c #F9F383",
": 	c #F3DF88",
"< 	c #EEE08C",
"[ 	c #CDCA7A",
"} 	c #6D694D",
"| 	c #878256",
"1 	c #F8EE84",
"2 	c #BDB961",
"3 	c #78794B",
"4 	c #44463D",
"5 	c #FAF38B",
"6 	c #D8C776",
"7 	c #E6D37C",
"8 	c #E2CC7E",
"9 	c #EBD482",
"0 	c #C8AF7B",
"a 	c #DEC97D",
"b 	c #F1DE7E",
"c 	c #E9D57D",
"d 	c #A5916C",
"e 	c #BDA873",
"f 	c #E0CF77",
"g 	c #A59A64",
"h 	c #A6A45B",
"i 	c #D7C973",
"j 	c #E7DA7A",
"k 	c #F5EA7A",
"l 	c #F9F37B",
"m 	c #CDBB75",
"n 	c #E2D575",
"o 	c #EEE376",
"p 	c #D4C475",
"q 	c #F6EA8B",
"r 	c #F7F079",
"s 	c #F9EF76",
"t 	c #F7F173",
"u 	c #EEE17A",
"v 	c #C7B473",
"w 	c #F6EC83",
"x 	c #F7EB90",
"y 	c #DACB75",
"z 	c #CBB577",
"A 	c #C3AD77",
"B 	c #F9EF7C",
"C 	c #E5D975",
"D 	c #C0A57A",
"E 	c #DBC47E",
"F 	c #CCC569",
"G 	c #AEAB5D",
"H 	c #F7F083",
"I 	c #FAF191",
"J 	c #F8EE90",
"K 	c #DCC885",
"L 	c #CFBB79",
"M 	c #BCAF62",
"N 	c #DACB72",
"O 	c #DED46E",
"P 	c #CBC65E",
"Q 	c #9B955A",
"R 	c #737142",
"S 	c #9A974B",
"T 	c #F5EF72",
"U 	c #D4CE75",
"V 	c #4C492E",
"W 	c #CEC075",
"X 	c #E4CF7D",
"Y 	c #7F7752",
"Z 	c #111D28",
"` 	c #928852",
" .	c #EED982",
"..	c #AE9E5E",
"+.	c #3E3B2B",
"@.	c #D4C174",
"#.	c #585644",
"$.	c #706744",
"%.	c #ECD681",
"&.	c #A7965D",
"*.	c #0D141E",
"=.	c #C5B26F",
"-.	c #EBD680",
";.	c #5B5743",
">.	c #645C40",
",.	c #AA9A63",
"'.	c #101923",
").	c #635C39",
"!.	c #D9CF6B",
"~.	c #CBB86E",
"{.	c #474332",
"].	c #101D27",
"^.	c #1A2F37",
"/.	c #14252E",
"(.	c #C1BD5A",
"_.	c #786D3F",
":.	c #0C1720",
"<.	c #20223F",
"[.	c #4B3B7E",
"}.	c #383362",
"|.	c #C7B98B",
"1.	c #CFBC75",
"2.	c #93895A",
"3.	c #94895C",
"4.	c #494432",
"5.	c #0D1822",
"6.	c #1C2038",
"7.	c #3D3869",
"8.	c #2E2F53",
"9.	c #C0AC7E",
"0.	c #6E6850",
"a.	c #7C7158",
"b.	c #A38F6D",
"c.	c #D8CE6A",
"d.	c #5F5B3B",
"e.	c #172833",
"f.	c #1D303B",
"g.	c #192A35",
"h.	c #0A111A",
"i.	c #0F1C26",
"j.	c #1A2E36",
"k.	c #8B8055",
"l.	c #DFC97C",
"m.	c #D9D37F",
"n.	c #EEE281",
"o.	c #E6DC73",
"p.	c #5E5F39",
"q.	c #192B36",
"r.	c #14212C",
"s.	c #172631",
"t.	c #121F2A",
"u.	c #0D1620",
"v.	c #070D15",
"w.	c #0B131B",
"x.	c #A79A5A",
"y.	c #D5C279",
"z.	c #E0CC7A",
"A.	c #CCBA72",
"B.	c #2D3535",
"C.	c #121F2B",
"D.	c #0C151E",
"E.	c #0B131C",
"F.	c #091018",
"G.	c #0C1620",
"H.	c #968A4F",
"I.	c #E9D47F",
"J.	c #D6C672",
"K.	c #5B563E",
"L.	c #1D2932",
"M.	c #1C2831",
"N.	c #15242F",
"O.	c #080E16",
"P.	c #0D1720",
"Q.	c #0A121B",
"R.	c #9B8C56",
"S.	c #DBC57A",
"T.	c #89864B",
"U.	c #1B2C37",
"V.	c #454234",
"W.	c #9F9260",
"X.	c #A2965F",
"Y.	c #A9A258",
"Z.	c #6B6A38",
"`.	c #0F1A22",
" +	c #0F1A25",
".+	c #56553B",
"++	c #8D814D",
"@+	c #04080C",
"#+	c #020306",
"$+	c #958651",
"%+	c #B5A363",
"&+	c #DEC87C",
"*+	c #DFD174",
"=+	c #CFC676",
"-+	c #595836",
";+	c #373E39",
">+	c #BEAD69",
",+	c #EAD382",
"'+	c #9A9650",
")+	c #162631",
"!+	c #52543B",
"~+	c #B5B154",
"{+	c #958F46",
"]+	c #070C13",
"^+	c #05090E",
"/+	c #272613",
"(+	c #ABA352",
"_+	c #F3EA74",
":+	c #CBB86F",
"<+	c #56523D",
"[+	c #182934",
"}+	c #4F4C3A",
"|+	c #E0C97D",
"1+	c #978B5A",
"2+	c #182833",
"3+	c #13202A",
"4+	c #5C5535",
"5+	c #D6C274",
"6+	c #E8D976",
"7+	c #918C48",
"8+	c #16160A",
"9+	c #393819",
"0+	c #8C8841",
"a+	c #BFB85C",
"b+	c #E2C3B1",
"c+	c #73588D",
"d+	c #1F2D37",
"e+	c #353D48",
"f+	c #C7B66D",
"g+	c #CCAEB6",
"h+	c #8E58D1",
"i+	c #2C214B",
"j+	c #1B2637",
"k+	c #35313B",
"l+	c #AF9A81",
"m+	c #F0DA83",
"n+	c #EEE471",
"o+	c #DCD26C",
"p+	c #D7C670",
"q+	c #4D4824",
"r+	c #04070C",
"s+	c #988E4C",
"t+	c #938F58",
"u+	c #E2CC7F",
"v+	c #E6C6BF",
"w+	c #D79DED",
"x+	c #D3A1E3",
"y+	c #B283D9",
"z+	c #E0D18B",
"A+	c #E3D07A",
"B+	c #D8C378",
"C+	c #9E9262",
"D+	c #2B334F",
"E+	c #6C41AD",
"F+	c #7D46C6",
"G+	c #3F2969",
"H+	c #1E222E",
"I+	c #A29459",
"J+	c #E7D579",
"K+	c #E5D07C",
"L+	c #EAD47F",
"M+	c #796D40",
"N+	c #554C2B",
"O+	c #A29158",
"P+	c #736C53",
"Q+	c #595846",
"R+	c #BFB469",
"S+	c #E4D19E",
"T+	c #C281F4",
"U+	c #CD92F7",
"V+	c #DDAFEB",
"W+	c #F9EBA2",
"X+	c #F6F072",
"Y+	c #C2BB60",
"Z+	c #323327",
"`+	c #2B302B",
" @	c #203140",
".@	c #202F3F",
"+@	c #111B29",
"@@	c #0E1924",
"#@	c #272A29",
"$@	c #333026",
"%@	c #342F1F",
"&@	c #C1AE6A",
"*@	c #E2CF7A",
"=@	c #E5D27B",
"-@	c #E9D97A",
";@	c #998E62",
">@	c #8E825E",
",@	c #7D7853",
"'@	c #CCC866",
")@	c #F2E97C",
"!@	c #DEBFC4",
"~@	c #CB83F7",
"{@	c #C78AF7",
"]@	c #FCE8C1",
"^@	c #E7DE75",
"/@	c #333E3C",
"(@	c #121F29",
"_@	c #14222C",
":@	c #1E313C",
"<@	c #2E3A3C",
"[@	c #949151",
"}@	c #9E9B51",
"|@	c #85834A",
"1@	c #433A3A",
"2@	c #E5CF7D",
"3@	c #B3AA65",
"4@	c #EBD198",
"5@	c #C17AF4",
"6@	c #CB90F7",
"7@	c #DEB0E4",
"8@	c #F4DAA2",
"9@	c #E0CC7B",
"0@	c #2E322E",
"a@	c #090F18",
"b@	c #0F1A24",
"c@	c #162530",
"d@	c #A5A254",
"e@	c #F4ED88",
"f@	c #E4D481",
"g@	c #867D4D",
"h@	c #030508",
"i@	c #000000",
"j@	c #3B2D43",
"k@	c #C1A1B1",
"l@	c #E3CC83",
"m@	c #E0CA83",
"n@	c #CB9FD2",
"o@	c #D799F6",
"p@	c #BD7CF7",
"q@	c #F7D8CA",
"r@	c #EDD781",
"s@	c #9C8E54",
"t@	c #171815",
"u@	c #0B141C",
"v@	c #A29957",
"w@	c #EBD884",
"x@	c #817543",
"y@	c #06030A",
"z@	c #825F9D",
"A@	c #DFC981",
"B@	c #E2CA8B",
"C@	c #D9A7EE",
"D@	c #C283F7",
"E@	c #E7C1E0",
"F@	c #EBD593",
"G@	c #EDD881",
"H@	c #958953",
"I@	c #292830",
"J@	c #322354",
"K@	c #182933",
"L@	c #C7B56E",
"M@	c #04060C",
"N@	c #5B5037",
"O@	c #DEC97C",
"P@	c #E9D57E",
"Q@	c #E3AED9",
"R@	c #EAB9F6",
"S@	c #BB79F7",
"T@	c #F9DED0",
"U@	c #E8DC75",
"V@	c #6D6849",
"W@	c #63379E",
"X@	c #2B292C",
"Y@	c #3F4131",
"Z@	c #A89A5C",
"`@	c #E3D07B",
" #	c #8E804F",
".#	c #04080D",
"+#	c #59512C",
"@#	c #E7D879",
"##	c #F2E79C",
"$#	c #D89CEA",
"%#	c #F0C1F7",
"&#	c #E7BFE6",
"*#	c #F4E291",
"=#	c #746767",
"-#	c #625D39",
";#	c #9E9B48",
">#	c #F1EB70",
",#	c #F4ED77",
"'#	c #F2E979",
")#	c #706E38",
"!#	c #545229",
"~#	c #E9E281",
"{#	c #C897DD",
"]#	c #BA75F7",
"^#	c #E9BCF5",
"/#	c #C89ED0",
"(#	c #897C49",
"_#	c #413B25",
":#	c #E9DA77",
"<#	c #F4EB74",
"[#	c #A19559",
"}#	c #16150F",
"|#	c #817647",
"1#	c #E1B5BF",
"2#	c #F0C3F2",
"3#	c #D9A8EC",
"4#	c #E6D881",
"5#	c #817544",
"6#	c #3F3A27",
"7#	c #E9D77A",
"8#	c #ECD680",
"9#	c #978852",
"0#	c #776B40",
"a#	c #D0BD77",
"b#	c #EFD8B7",
"c#	c #DAC4BA",
"d#	c #F7F077",
"e#	c #D3CE63",
"f#	c #5A5837",
"g#	c #443F2B",
"h#	c #E2CE79",
"i#	c #DBC875",
"j#	c #5C582C",
"k#	c #CAC360",
"l#	c #A6A362",
"m#	c #101C25",
"n#	c #C4BF6D",
"o#	c #F3E879",
"p#	c #F3ED71",
"q#	c #CDC85F",
"r#	c #DBD665",
"s#	c #A4955C",
"t#	c #323129",
"u#	c #E3D381",
"v#	c #E3CD7E",
"w#	c #E1CD7B",
"x#	c #E5CE80",
"y#	c #BFA57A",
"z#	c #DCD76B",
"  . + . @ # $ % & & * = = - ; > , + - @ ' ) ! ; - + ~ > ; { ] ^ / ( _ ) : - - - - - . > < [ } | @ @ : @ 1 ' 2 3 4 2 ] 5 ",
"6 7 = 8 9 - - 9 & & = = 9 = + . = * # 9 . - . + & 0 % + . . # a 8 @ b 8 & > = c 9 c = > ~ d e f . + + . ; + g h i b # # ",
"j ' 9 8 8 = = 9 . . . = c ' k k l { { ' { # > % $ a a a 8 = = = 8 & 0 m n # k k { { o p > a 9 9 8 8 a * & = . c 8 & ' { ",
"' o # ' ' ' j + 9 + + # k ! 5 q q r { s t t ' ' - . o { u 7 = = $ & j @ @ q ! 1 t { t ] ] @ u . @ ' ' u > , % v 6 ^ k k ",
"_ ! w q w k s - . . . 9 - - - . - @ @ - ; { { ! x x 1 @ { @ - - . . - . - . - @ ' - - @ k 1 ! x ! @ k { : 9 9 # b . b k ",
"= 9 . . . + c . = = = = 9 9 + c 7 9 . - - - - - - - - . - - . 8 = 8 7 9 = 8 c 7 # - . . - - . - - . . : . = = = = 7 = > ",
"p ( y @ c z 0 $ > = > % 8 # ' ' { t ' c c . + # @ k @ 7 8 8 7 = * $ 0 v ( # { { k # 7 . c c @ k @ j 7 7 + = 8 = > A ( y ",
"k { t _ 5 B ' j 6 ( z 6 { ] ] _ 5 _ r ' c + . k ] r _ _ k ' j 8 m m f ' ] l 5 5 l k # 9 . @ { ] _ 5 k ' # n 7 7 C ' { l ",
"9 @ ; : ) ; k ] ] ] t ] ] { w ) : : - b - 8 8 b @ : : : w s { ] { t ] { s ) : : : b . c 8 c @ : : : ; s ] ] ] ] ] r 5 ! ",
"+ - - - - - - @ s @ { { k @ - - - - . c 8 8 9 9 - - - . - - s { @ s s k - - - - . 9 + 8 8 9 . . - - - - @ s @ s ' ; : - ",
"D & + - + = = @ @ - - - b - + 9 . - c c 7 8 7 8 . - . . . - @ @ - - - b 9 7 9 b - c C 8 8 + c - - - . . b @ - . - . . 9 ",
"( A D 0 % D 0 E c 9 . c 7 8 # ' { { { t s ^ ^ b . = = 7 8 8 7 9 9 9 c 8 c ' ' { { { { { # c b c = = 7 E $ % & = + 8 c ' ",
"] { ^ ^ o o ' @ # c 9 9 @ { { ] ] _ 5 _ ] s ] ] ' ' ^ s s ' o c 9 9 c s ] { s _ 5 _ l ] ] ] { o o ' k k ^ y > % 0 6 F G ",
"@ ' { { H I ! B @ . . 9 c b b - : ) : ) ; k { ] ] ] _ I ! 1 k - . 9 9 b b b - ) ) : ) @ s { t ] l 5 J ! k @ - . 8 = 6 > ",
"> E > % K + - . 9 = 8 8 + . 9 . . - - - - @ @ @ k w x : . - . 8 8 8 8 c - - . - . . - b @ @ k @ q ) - - - + 8 = 8 = 9 . ",
"7 @ . . . .   . . + + = 8 & > # + 9 . . - - c . - . . . . . . 9 = c E & > b c + . . - - . . - . - - . . . . + + = = 7 c ",
"- - - - - 8 8 c * % % , v n ' { ' # 7 # { ^ c 8 c . - + 8 7 + 8 a % D L C ] { o c 7 { o j 7 8 . - . = f 7 + E = 8 7 + . ",
"k k k k ' ' { k j L 6 + ; 5 5 1 k s { { ] ] ] { M N @ ' O P @ ' @ # w H 5 5 w k { { ] ] ] { @ # # ' ' { k @ @ ' B _ < * ",
"k 1 ! r ] l ! ) ) ! J J ) : - . . . b @ @ { s w Q R S T U V W q J J ) ; :   - - - @ @ { { k ! 5 l ] _ ! q ) ! J q ) : - ",
"- - : ; @ : : - - - . . + c 7 # b b . - @ @ - - X Y Z `  ...+.@.- . . 8 7 7 # b . . b k b - - - ; @ ; - - . - - = * z 8 ",
"b b c c + 9 9 + + + + 7 # ' t t { { # 8 c 9 c @ c 8 #.$.%.&.*.=.c 8 7 ' { ] { { ' 8 + 9 9 # b c . + . 9 + c + > , p C u ",
"{ s b . 9 + + # ' ' ' { ] s t t ] _ 5 @ # ^ { { @ -.;.>.,.'.).!.' { ] ] ] ] ] l _ l u # ' t @ @ . + + + # ' ' ^ o t @ @ ",
"s @ - 9 . . @ t ] ] t t s { k b : : ) x 5 l l s - ~.{.].^./.(.] { ] s { k @ : ) ) ) 5 1 _ r @ - + 9 - @ { ] ] r ! @ @ k ",
": . 9 9 8 c b k k { k - @ k b c - . . . - : ) - 9 _.:.<.[.}.|.s s b b { @ . . . . . - - ) ; . + + = . - k s s w : k @ @ ",
"- 9 = E E 7 9 - - - - 9 c c # b # # ' j # . 1.2.3.4.5.6.7.8.9.- - . 9 c C c b # ^ j # b + . . = 8 a = 9 . - - - 9 = = 6 ",
"0.a.b.~ D % & + - 9 = 8 ^ s l 5 5 ] { ] ] c.d.e.f.g.h.i.j.k.l.. + 8 c { { _ 5 l ] ] ] { u c 7 7 7 7 7 8 8 * E > L 6 o o ",
"g [ m.n.o ^ y 8 - 9 9 b k - - : ; s k @ o.p.q.r.s.t.u.v.w.x.. . . . @ @ - ) ; @ s @ @ ] ] l 1 ! _ t t k = > > y.' _ 5 _ ",
"w ) ) ; ; @ k - . 9 9 7 . - - 9 . - b z.A.B.C.D.E.F.D.G.D.H.I.9 . + + - - c . . b - - @ k ; : ) ) - @ @ . . . + c ) ) . ",
". - - - . + = 9 8 8 8 8 8 7 7 7 j # J.K.L.M.f.N.v.F.O.F.P.Q.R.S.8 y = + 7 8 # # b . . . . . - b - 9 9 c 9 = 8 = E $ v A ",
"# { ] { ' # > , z > 8 8 # { { r ] r T.U.V.W.X.Y.Z.`. +.+++@+#+$+%+&+c ' { s ] l ] o 8 7 c # k { k ' # 7 = = E , A A f { ",
"_ 5 ! 1 ! 1 s o *+n o { ] ] _ 5 J =+-+;+>+,+# k '+N.)+!+~+{+]+^+/+(+_+] ] 5 J J w k b . + b s w ! 5 _ { ' o n n ' t ] l ",
"x ; - - - : @ { ] ] ] ] ] k ; - :+<+[+}+|+= = . 1+2+3+4+5+6+7+O.8+9+0+a+@ : - - - 9 . + 8 c - - - - : @ { ] t ] ] ] k ; ",
"@ - - : - - - @ k @ b @ @ b - b+c+d+e+f+8 E 9 g+h+i+j+k+l+m+n+o+p+q+r+s+- . . - - 9 8 8 8 + 9 - . - . - @ s - @ @ @ @ . ",
"@ 8 g t+E 8 8 . c b . . . + u+v+w+x+y+z+^ A+B+C+D+E+F+G+H+I+J+K+L+M+N+O++ 7 c @ @ # ' j 8 7 9 - . . + 9 # - - . - - 9 + ",
"P+Q+t+R+( p ( ( $ 8 8 + # # S+T+U+V+W+r X+Y+Z+`+f. @.@+@@@#@$@%@&@*@=@-@' ' ] ] s l ] ] ' ' @ 7 7 7 # c 8 7 + + 6 ;@>@>@",
",@'@s ] l _ l s ^ 9 9 . @ )@!@~@{@]@J x ^@/@(@_@:@<@[@}@|@ +D.^+1@2@b k s k k 5 ! ! 5 { ] ] ] { s ] _ l s ' . . 9 v 3@2 ",
"@ ] { _ 5 x ) - - 9 9 = 7 4@5@6@7@8@- - 9@0@a@b@c@d@e@J f@g@h@i@j@k@l@9 - . - - - - - b { s s { 5 I ) ) ; - 9 + = + - ; ",
"k @ b : - - - . + 8 = 8 m@n@o@p@q@. - r@s@t@u@2+v@w@- - - z.x@i@y@z@A@9 + . c - - - - b @ b @ b : - - - - + = = = + . + ",
"9 . . . - 9 9 c . + 7 8 B@C@D@E@F@7 G@H@I@J@K@2+L@- - . 9 c z.M+M@N@O@8 j { # 8 + 9 b b + 7 . - . . . 8 = = = = $ % % m ",
"' c b - . 7 c # 7 8 f P@Q@R@S@T@] ' U@V@W@X@Y@Z@`@9 . c c c 7  #.#+#@#' l l ] { ' b { { ' # 8 c . # 7 c ( A > 6 ( C k r ",
"y 6 o { { B l 1 B 1 _ ##$#%#&#*#- @ o.=#-#;#>#,#w ' { { r _ w '#)#!#~#! x ! ; ; @ { s ] ] ] w w k t { l _ w w _ 5 I ! x ",
"* * + 1 s 1 ) : - ) ) {#]#^#/#. . . (#_#:#<#@ ; ) ! s B ! ) - : [#}#|#. 9 + . - - - - s @ @ ) ) 1 s 1 ) : : : ) : - . c ",
"- . . - b - . . . . + 1#2#3#4#@ ' @ 5#6#7#b . . . . . - - . . . 8#9#0#c c ' ' ' c + . b - . . . - - - - c . . 9 + 8 c o ",
"k ' b 9 + 7 7 + c 7 > a#b#c#d#] ] e#f#g#h#c # k u . 9 + + = 7 c c i#j#k#] ] ] ] s ^ 7 7 c ' ' # 9 + + 8 7 c c c # ' C 6 ",
"] @ - . + . . ' { ] { ] ] { s { 1 l#m#n#o#k { s b . c 9 . b { { { p#q#r#{ { B ! 5 5 H ' t ] @ - + 9 9 . ' { ] ] ] n ( y ",
"k @ . . + . @ ] ] ] ] @ k { @ - - s#t#u#q w 1 w - - + 9 - s ] ] ] { @ { { - - - - : q q H w @ - . + - k ] ] ] ] k ' s @ ",
"- . = 8 8 9 - - @ ' b - @ # c . c v#w#x#- - - - + 8 8 = 9 - b @ @ - b @ c 9 . c 9 + . . - - . = 8 E + - b @ @ - - @ # 9 ",
"* * = $ , 0 & & + . . + c o ' @ k ' k ' ' # + 9 + E & % 0 = 9 . . 9 7 j @ ' k o { k o @ 9 + . = 8 8 = = . - . . + 8 ^ o ",
"n E L y.n C y.> $ & = c { s w ! ! s s s t t ' y > ( 6 6 7 y.= 9 + c ' s @ ! ! _ s s ] { { ' b c @ o o 7 8 = > , % y C ( ",
"_ I J 5 w t { - . . . - b . - - - k @ - @ s s ! x ! w k ] @ - - . . b - - - - @ k b b s ] 1 J ! ! B s ] b - + * > E # ^ ",
". = . 9 = - - - + + 8 8 9 . + c 9 c - - - b b - - - - . - - . + = 8 = 9 9 7 + c c - - - b : - - - - - - . = + = 8 . 9 = ",
", z a 7 > 8 7 9 + 8 8 8 7 c # ^ ' ' ' c 9 . + b @ @ b c 8 9 + 8 = 8 = c # # ' ' k c c 9 c c b k b c 8 + + = 8 = = + 8 6 ",
"a { ] l _ @ o j 7 8 8 C ' t ] l _ _ k ' c 9 . k ] l 5 l ' j 7 8 f 7 o { ] r _ _ l ' c 9 . @ ] ] _ _ k ^ # f > % * @ { ] ",
"t { ; w q w { t { { t ] ] s w ! ) ) ; b . + 8 b @ : ) ) s { t { { t ] ] s ! ! ) ) b b . 8 c k : ) ) w s s { u # k r l _ ",
"@ @ @ @ @ - - @ ] s { { k @ - - - - . 7 + 8 7 . - . . - - b s s { { s @ - . . . . 9 = 8 8 9 . . . . - - @ ] ] s # = * A ",
"- - . . 9 . - @ k @ - - @ b 9 . - - . 8 8 8 + 8 . - - - . b k @ - b - @ . 9 . - - 7 7 8 8 + 9 - . . 9 . ' { ' a ( z p v ",
"A % y#% > E 8 E = = + 9 = 8 c ^ k { k { { o 7 # . + c + 8 7 + + 8 = & $ 8 j ' { { { { { C c b 9 = 0 0 , , = 9 9 @ { k y ",
"3@7 a 7 o k o i 6 $ = + ' { { ] ] l _ l ] ] t t o j j ' k ^ c 8 0 D , y s ] { l _ _ ] ] ] { { ^ 7 C ' ^ y 6 # @ k ] ] z#",
"] ] k s _ 5 5 r @ . - . . @ @ - ; q ) ) w k t t ] ] l 5 5 _ k - . + 9 b @ - - ) ) ) q k s { ] ] r _ 5 5 s k k @ ' ' { ] ",
"_ _ k - ) : : - . = 8 8 = . . . - - - - - @ k @ s B I ) - : . + = 8 8 9 . - - . - . - b k k k ' q x : : - . 8 8 8 8 b @ "};
