/* XPM */
static char * perso1_xpm[] = {
"60 60 436 2",
"  	c #ECDB88",
". 	c #EFD982",
"+ 	c #E7D081",
"@ 	c #F3E47C",
"# 	c #EBDB7B",
"$ 	c #D0B77D",
"% 	c #CCB37B",
"& 	c #D8BF7F",
"* 	c #DDC580",
"= 	c #E4CD80",
"- 	c #F1DB83",
"; 	c #F4E284",
"> 	c #D3BC7C",
", 	c #C5AC7A",
"' 	c #F1E676",
") 	c #F4E38A",
"! 	c #F8ED8D",
"~ 	c #BBA376",
"{ 	c #F5EC75",
"] 	c #F8F273",
"^ 	c #EADE76",
"/ 	c #B4A070",
"( 	c #D0BD76",
"_ 	c #F9F383",
": 	c #F3DF88",
"< 	c #EEE08C",
"[ 	c #CDCA7A",
"} 	c #6D694D",
"| 	c #878256",
"1 	c #F8EE84",
"2 	c #BDB961",
"3 	c #78794B",
"4 	c #44463D",
"5 	c #FAF38B",
"6 	c #D8C776",
"7 	c #E6D37C",
"8 	c #E2CC7E",
"9 	c #EBD482",
"0 	c #C8AF7B",
"a 	c #DEC97D",
"b 	c #F1DE7E",
"c 	c #E9D57D",
"d 	c #A5916C",
"e 	c #BDA873",
"f 	c #E0CF77",
"g 	c #A59A64",
"h 	c #A6A45B",
"i 	c #D7C973",
"j 	c #E7DA7A",
"k 	c #F5EA7A",
"l 	c #F9F37B",
"m 	c #CDBB75",
"n 	c #E2D575",
"o 	c #EEE376",
"p 	c #D4C475",
"q 	c #F6EA8B",
"r 	c #F7F079",
"s 	c #F9EF76",
"t 	c #F7F173",
"u 	c #EEE17A",
"v 	c #C7B473",
"w 	c #F6EC83",
"x 	c #F7EB90",
"y 	c #DACB75",
"z 	c #CBB577",
"A 	c #C3AD77",
"B 	c #F9EF7C",
"C 	c #E5D975",
"D 	c #C0A57A",
"E 	c #DBC47E",
"F 	c #CCC569",
"G 	c #AEAB5D",
"H 	c #F7F083",
"I 	c #FAF191",
"J 	c #F8EE90",
"K 	c #DCC885",
"L 	c #CFBB79",
"M 	c #A9A253",
"N 	c #ECE66E",
"O 	c #DACD6F",
"P 	c #B0A45B",
"Q 	c #7C7948",
"R 	c #6C6943",
"S 	c #8D8453",
"T 	c #F3E789",
"U 	c #D8CF7D",
"V 	c #353424",
"W 	c #BBAF6B",
"X 	c #E4CF7C",
"Y 	c #6B6549",
"Z 	c #1D2329",
"` 	c #8C8050",
" .	c #F0DA83",
"..	c #B9A864",
"+.	c #15191F",
"@.	c #B5A467",
"#.	c #DAC57B",
"$.	c #41443E",
"%.	c #685F41",
"&.	c #DFCC78",
"*.	c #AF9E62",
"=.	c #0D131D",
"-.	c #B9B15C",
";.	c #E2CF7A",
">.	c #4B4B3A",
",.	c #1C2326",
"'.	c #35372B",
").	c #2D3026",
"!.	c #0D161F",
"~.	c #BEBA59",
"{.	c #EEE571",
"].	c #4A4824",
"^.	c #0D1822",
"/.	c #1E223B",
"(.	c #35375E",
"_.	c #292D4C",
":.	c #BFB76F",
"<.	c #CABA70",
"[.	c #C6B56F",
"}.	c #C2B766",
"|.	c #3C3B25",
"1.	c #0D1922",
"2.	c #2C264F",
"3.	c #533E89",
"4.	c #3F356C",
"5.	c #C8B995",
"6.	c #BDB066",
"7.	c #5E5841",
"8.	c #1C2E39",
"9.	c #1C2F3A",
"0.	c #15232E",
"a.	c #0B131C",
"b.	c #12202A",
"c.	c #1B3139",
"d.	c #706949",
"e.	c #CFBE6F",
"f.	c #6E6850",
"g.	c #7C7158",
"h.	c #A38F6D",
"i.	c #C3B06D",
"j.	c #635D41",
"k.	c #162631",
"l.	c #162530",
"m.	c #1B2E39",
"n.	c #0A111A",
"o.	c #0A121A",
"p.	c #111E27",
"q.	c #A5985D",
"r.	c #D9D37F",
"s.	c #EEE281",
"t.	c #B0A968",
"u.	c #15242F",
"v.	c #14222D",
"w.	c #0A121B",
"x.	c #111E28",
"y.	c #091119",
"z.	c #0E1923",
"A.	c #091019",
"B.	c #ABA157",
"C.	c #D5C279",
"D.	c #D4C377",
"E.	c #878054",
"F.	c #615D44",
"G.	c #182934",
"H.	c #0E1822",
"I.	c #080E16",
"J.	c #070D15",
"K.	c #0E1823",
"L.	c #524C35",
"M.	c #CBB96F",
"N.	c #D7C477",
"O.	c #5B5946",
"P.	c #2B3132",
"Q.	c #3A403D",
"R.	c #28363C",
"S.	c #111E29",
"T.	c #060B12",
"U.	c #070E15",
"V.	c #0C1620",
"W.	c #1E2124",
"X.	c #262720",
"Y.	c #04080D",
"Z.	c #4B4329",
"`.	c #C4B469",
" +	c #E1CB7E",
".+	c #C4B46A",
"++	c #222D32",
"@+	c #B8B458",
"#+	c #ECE277",
"$+	c #89834C",
"%+	c #182833",
"&+	c #111D27",
"*+	c #15242E",
"=+	c #7C7045",
"-+	c #B5A366",
";+	c #211F17",
">+	c #020508",
",+	c #4E4B22",
"'+	c #625E2A",
")+	c #DED966",
"!+	c #DFD174",
"~+	c #CDB972",
"{+	c #403F30",
"]+	c #A8A358",
"^+	c #F5EE88",
"/+	c #73723D",
"(+	c #121F2A",
"_+	c #202423",
":+	c #99924B",
"<+	c #BFB85A",
"[+	c #323321",
"}+	c #0F110E",
"|+	c #4F4B2B",
"1+	c #DED580",
"2+	c #EBE17D",
"3+	c #EFD884",
"4+	c #CCB688",
"5+	c #3B3A30",
"6+	c #192D37",
"7+	c #3E4138",
"8+	c #BBAA67",
"9+	c #EBD39F",
"0+	c #73696C",
"a+	c #192733",
"b+	c #0E1C23",
"c+	c #696733",
"d+	c #E7E075",
"e+	c #BFB75C",
"f+	c #6D6739",
"g+	c #73693E",
"h+	c #35301C",
"i+	c #292619",
"j+	c #685F3C",
"k+	c #E8D180",
"l+	c #E6D08B",
"m+	c #AD76DD",
"n+	c #4F4365",
"o+	c #52516F",
"p+	c #9B8D76",
"q+	c #A787B4",
"r+	c #7946C0",
"s+	c #3C2463",
"t+	c #3D3469",
"u+	c #2B224C",
"v+	c #7E6F6A",
"w+	c #E1D373",
"x+	c #71663B",
"y+	c #030509",
"z+	c #5D5430",
"A+	c #938F58",
"B+	c #EADA7D",
"C+	c #D7BFB2",
"D+	c #F1C3F3",
"E+	c #D38BFA",
"F+	c #E8B8F3",
"G+	c #CDADBD",
"H+	c #D9C577",
"I+	c #C1AE6B",
"J+	c #6F6948",
"K+	c #1D303B",
"L+	c #6843A7",
"M+	c #6C42AD",
"N+	c #35255B",
"O+	c #7E7349",
"P+	c #C8B66D",
"Q+	c #C0AD69",
"R+	c #D9C479",
"S+	c #A99A5A",
"T+	c #998F4C",
"U+	c #A99F55",
"V+	c #E9D97A",
"W+	c #736C53",
"X+	c #595846",
"Y+	c #BFB469",
"Z+	c #F8F081",
"`+	c #C387EC",
" @	c #CB8FF7",
".@	c #CF9BF0",
"+@	c #F3DDB8",
"@@	c #776F4D",
"#@	c #0D1720",
"$@	c #172731",
"%@	c #192F36",
"&@	c #172C33",
"*@	c #0D1A23",
"=@	c #0E1A24",
"-@	c #0F1A25",
";@	c #070C13",
">@	c #968F48",
",@	c #E5DB70",
"'@	c #998E62",
")@	c #8E825E",
"!@	c #7D7853",
"~@	c #CCC866",
"{@	c #D6BDC8",
"]@	c #E3A9F3",
"^@	c #AC63F7",
"/@	c #F6D4E5",
"(@	c #BFBC5F",
"_@	c #192B36",
":@	c #1D313C",
"<@	c #3F473F",
"[@	c #B7B15D",
"}@	c #BBAC63",
"|@	c #9D8E59",
"1@	c #0F1A26",
"2@	c #0B141D",
"3@	c #020608",
"4@	c #201437",
"5@	c #D7CC72",
"6@	c #B3AA65",
"7@	c #CE90E6",
"8@	c #C180F7",
"9@	c #D9A6F0",
"0@	c #F3DCAF",
"a@	c #BCB65D",
"b@	c #091018",
"c@	c #111D28",
"d@	c #2B3131",
"e@	c #C2B571",
"f@	c #EFDC7D",
"g@	c #E3CD7E",
"h@	c #988956",
"i@	c #020407",
"j@	c #000000",
"k@	c #130A1F",
"l@	c #A080A7",
"m@	c #EBD198",
"n@	c #CAA4CB",
"o@	c #E2AAF4",
"p@	c #AE66F7",
"q@	c #F1C9EC",
"r@	c #F3E482",
"s@	c #D6C96D",
"t@	c #605A32",
"u@	c #050910",
"v@	c #1E2D36",
"w@	c #C0AF6A",
"x@	c #EED982",
"y@	c #DFC97C",
"z@	c #948651",
"A@	c #4F2C79",
"B@	c #D9C38B",
"C@	c #E5BCDF",
"D@	c #BC7BF7",
"E@	c #DFAEF2",
"F@	c #F3DEA3",
"G@	c #CFBE70",
"H@	c #554F38",
"I@	c #291E47",
"J@	c #2C274E",
"K@	c #192D36",
"L@	c #313533",
"M@	c #D7C277",
"N@	c #DCC77B",
"O@	c #8F814F",
"P@	c #03070B",
"Q@	c #141115",
"R@	c #D6C770",
"S@	c #E8C1CB",
"T@	c #F0BEF6",
"U@	c #B774F7",
"V@	c #ECC3EC",
"W@	c #F6EB82",
"X@	c #D2C867",
"Y@	c #3E2C6A",
"Z@	c #512C81",
"`@	c #353328",
" #	c #434133",
".#	c #C2B169",
"+#	c #E8D47D",
"@#	c #B0A855",
"##	c #04080E",
"$#	c #010203",
"%#	c #E2DC68",
"&#	c #F1DF90",
"*#	c #DAA2DB",
"=#	c #ECB8F7",
"-#	c #E9BDF4",
";#	c #F6E798",
">#	c #CDC76C",
",#	c #473959",
"'#	c #575431",
")#	c #BCB35B",
"!#	c #F0E873",
"~#	c #F3EA74",
"{#	c #F7EC8D",
"]#	c #979056",
"^#	c #000102",
"/#	c #DECE78",
"(#	c #CEA5CC",
"_#	c #AE64F7",
":#	c #E5B4F7",
"<#	c #C48FE8",
"[#	c #EAD293",
"}#	c #E0D86B",
"|#	c #05090F",
"1#	c #998D52",
"2#	c #F7EC8C",
"3#	c #958753",
"4#	c #D9C576",
"5#	c #E9C6B9",
"6#	c #EFBDF0",
"7#	c #E4B4F7",
"8#	c #E6CD9F",
"9#	c #EEDC7D",
"0#	c #BFB063",
"a#	c #413B26",
"b#	c #B6A562",
"c#	c #B2A566",
"d#	c #413F20",
"e#	c #DBD16B",
"f#	c #F8E5B8",
"g#	c #D0ADD5",
"h#	c #E5D78E",
"i#	c #E8D47C",
"j#	c #B8A964",
"k#	c #141B20",
"l#	c #847B47",
"m#	c #8B883E",
"n#	c #B4B052",
"o#	c #F4EE71",
"p#	c #F3EC87",
"q#	c #4A4B37",
"r#	c #4E4E32",
"s#	c #C4BD5D",
"t#	c #ADA655",
"u#	c #F0E588",
"v#	c #EDDC86",
"w#	c #454738",
"x#	c #767140",
"y#	c #E5CE80",
"z#	c #C9B76E",
"A#	c #CFBD72",
"B#	c #BFA57A",
"C#	c #DCD76B",
"  . + . @ # $ % & & * = = - ; > , + - @ ' ) ! ; - + ~ > ; { ] ^ / ( _ ) : - - - - - . > < [ } | @ @ : @ 1 ' 2 3 4 2 ] 5 ",
"6 7 = 8 9 - - 9 & & = = 9 = + . = * # 9 . - . + & 0 % + . . # a 8 @ b 8 & > = c 9 c = > ~ d e f . + + . ; + g h i b # # ",
"j ' 9 8 8 = = 9 . . . = c ' k k l { { ' { # > % $ a a a 8 = = = 8 & 0 m n # k k { { o p > a 9 9 8 8 a * & = . c 8 & ' { ",
"' o # ' ' ' j + 9 + + # k ! 5 q q r { s t t ' ' - . o { u 7 = = $ & j @ @ q ! 1 t { t ] ] @ u . @ ' ' u > , % v 6 ^ k k ",
"_ ! w q w k s - . . . 9 - - - . - @ @ - ; { { ! x x 1 @ { @ - - . . - . - . - @ ' - - @ k 1 ! x ! @ k { : 9 9 # b . b k ",
"= 9 . . . + c . = = = = 9 9 + c 7 9 . - - - - - - - - . - - . 8 = 8 7 9 = 8 c 7 # - . . - - . - - . . : . = = = = 7 = > ",
"p ( y @ c z 0 $ > = > % 8 # ' ' { t ' c c . + # @ k @ 7 8 8 7 = * $ 0 v ( # { { k # 7 . c c @ k @ j 7 7 + = 8 = > A ( y ",
"k { t _ 5 B ' j 6 ( z 6 { ] ] _ 5 _ r ' c + . k ] r _ _ k ' j 8 m m f ' ] l 5 5 l k # 9 . @ { ] _ 5 k ' # n 7 7 C ' { l ",
"9 @ ; : ) ; k ] ] ] t ] ] { w ) : : - b - 8 8 b @ : : : w s { ] { t ] { s ) : : : b . c 8 c @ : : : ; s ] ] ] ] ] r 5 ! ",
"+ - - - - - - @ s @ { { k @ - - - - . c 8 8 9 9 - - - . - - s { @ s s k - - - - . 9 + 8 8 9 . . - - - - @ s @ s ' ; : - ",
"D & + - + = = @ @ - - - b - + 9 . - c c 7 8 7 8 . - . . . - @ @ - - - b 9 7 9 b - c C 8 8 + c - - - . . b @ - . - . . 9 ",
"( A D 0 % D 0 E c 9 . c 7 8 # ' { { { t s ^ ^ b . = = 7 8 8 7 9 9 9 c 8 c ' ' { { { { { # c b c = = 7 E $ % & = + 8 c ' ",
"] { ^ ^ o o ' @ # c 9 9 @ { { ] ] _ 5 _ ] s ] ] ' ' ^ s s ' o c 9 9 c s ] { s _ 5 _ l ] ] ] { o o ' k k ^ y > % 0 6 F G ",
"@ ' { { H I ! B @ . . 9 c b b - : ) : ) ; k { ] ] ] _ I ! 1 k - . 9 9 b b b - ) ) : ) @ s { t ] l 5 J ! k @ - . 8 = 6 > ",
"> E > % K + - . 9 = 8 8 + . 9 . . - - - - @ @ @ k w x : . - . 8 8 8 8 c - - . - . . - b @ @ k @ q ) - - - + 8 = 8 = 9 . ",
"7 @ . . . .   . . + + = 8 & > # + 9 . . - - c . - . . . . . . 9 = c E & > b c + . . - - . . - . - - . . . . + + = = 7 c ",
"- - - - - 8 8 c * % % , v n ' { ' # 7 # { ^ c 8 c . - + 8 7 + 8 a % D L C ] { o c 7 { o j 7 8 . - . = f 7 + E = 8 7 + . ",
"k k k k ' ' { k j L 6 + ; 5 5 1 k s { { ] ] ] { # # @ ' M N @ ' O P w H 5 5 w k { { ] ] ] { @ # # ' ' { k @ @ ' B _ < * ",
"k 1 ! r ] l ! ) ) ! J J ) : - . . . b @ @ { s w ! _ ] ] Q R S T U V W ; :   - - - @ @ { { k ! 5 l ] _ ! q ) ! J q ) : - ",
"- - : ; @ : : - - - . . + c 7 # b b . - @ @ - - . : ; ; X Y Z `  ...+.@.7 7 # b . . b k b - - - ; @ ; - - . - - = * z 8 ",
"b b c c + 9 9 + + + + 7 # ' t t { { # 8 c 9 c @ c 9 9 9 . #.$.%.&.*.=.-.{ ] { { ' 8 + 9 9 # b c . + . 9 + c + > , p C u ",
"{ s b . 9 + + # ' ' ' { ] s t t ] _ 5 @ # ^ { { @ . 9 + = ;.>.,.'.).!.~.] ] ] l _ l u # ' t @ @ . + + + # ' ' ^ o t @ @ ",
"s @ - 9 . . @ t ] ] t t s { k b : : ) x 5 l l s - - + . b {.].^./.(._.:.k @ : ) ) ) 5 1 _ r @ - + 9 - @ { ] ] r ! @ @ k ",
": . 9 9 8 c b k k { k - @ k b c - . . . - : ) - 9 c + <.[.}.|.1.2.3.4.5.@ . . . . . - - ) ; . + + = . - k s s w : k @ @ ",
"- 9 = E E 7 9 - - - - 9 c c # b # # ' j # . 9 . 9 8 6.7.8.9.0.a.b.c.d.e.C c b # ^ j # b + . . = 8 a = 9 . - - - 9 = = 6 ",
"f.g.h.~ D % & + - 9 = 8 ^ s l 5 5 ] { ] ] ' # c c i.j.k.l.m.0.n.o.p.q.{ { _ 5 l ] ] ] { u c 7 7 7 7 7 8 8 * E > L 6 o o ",
"g [ r.s.o ^ y 8 - 9 9 b k - - : ; s k @ k ] ] _ q t.u.v.w.x.y.z.a.A.B.@ - ) ; @ s @ @ ] ] l 1 ! _ t t k = > > C.' _ 5 _ ",
"w ) ) ; ; @ k - . 9 9 7 . - - 9 . - b - - @ @ D.E.F.l.G.H.I.a.J.n.K.L.M.- c . . b - - @ k ; : ) ) - @ @ . . . + c ) ) . ",
". - - - . + = 9 8 8 8 8 8 7 7 7 j # b . - - N.O.l.P.Q.R.S.T.U.V.W.X.Y.Z.`. +# # b . . . . . - b - 9 9 c 9 = 8 = E $ v A ",
"# { ] { ' # > , z > 8 8 # { { r ] r { c = + .+u.++@+#+$+%+%+&+*+=+-+;+>+,+'+)+l ] o 8 7 c # k { k ' # 7 = = E , A A f { ",
"_ 5 ! 1 ! 1 s o !+n o { ] ] _ 5 J ! B ' . ~+{+v.]+1 ! ^+/+(+%+_+:+' <+[+I.}+|+1+2+k b . + b s w ! 5 _ { ' o n n ' t ] l ",
"x ; - - - : @ { ] ] ] ] ] k ; - - - . 3+4+5+6+7+8+- - 9+0+a+b+c+d+] t e+f+g+h+i+j+k+. + 8 c - - - - : @ { ] t ] ] ] k ; ",
"@ - - : - - - @ k @ b @ @ b - - - . . l+m+n+o+p+. - - q+r+s+t+u+v+w+@ @ - . x+y+z+k+8 8 8 + 9 - . - . - @ s - @ @ @ @ . ",
"@ 8 g A+E 8 8 . c b . . . + 8 c @ @ B+C+D+E+F+G+9 H+I+J+K+L+M+N+z.O+P+Q+R+7 S+T+U+V+' j 8 7 9 - . . + 9 # - - . - - 9 + ",
"W+X+A+Y+( p ( ( $ 8 8 + # # ' { ] ] Z+`+ @.@+@k i @@#@$@K+%@&@*@=@-@V.;@>@,@] ] s l ] ] ' ' @ 7 7 7 # c 8 7 + + 6 '@)@)@",
"!@~@s ] l _ l s ^ 9 9 . @ { k s 1 I {@]@^@/@] ] (@_@#@$@:@<@[@}@|@1@2@3@4@5@k 5 ! ! 5 { ] ] ] { s ] _ l s ' . . 9 v 6@2 ",
"@ ] { _ 5 x ) - - 9 9 = 7 - - - - - 7@8@9@0@s k a@#@b@c@d@e@f@. g@h@i@j@k@l@m@- - - - b { s s { 5 I ) ) ; - 9 + = + - ; ",
"k @ b : - - - . + 8 = 8 8 9 9 9 . n@o@p@q@r@- s@t@u@p.v@w@x@. 8 8 y@z@j@j@A@B@- - - - b @ b @ b : - - - - + = = = + . + ",
"9 . . . - 9 9 c . + 7 8 8 7 ^ k c C@D@E@F@c G@H@I@J@K@L@M@c . . = 8 N@O@P@Q@R@8 + 9 b b + 7 . - . . . 8 = = = = $ % % m ",
"' c b - . 7 c # 7 8 f c ^ B l s S@T@U@V@W@' X@Y@Z@`@ #.#+#c 7 8 8 7 # @###$#%#{ ' b { { ' # 8 c . # 7 c ( A > 6 ( C k r ",
"y 6 o { { B l 1 B 1 _ 5 5 x x &#*#=#-#;#{ ] >#,#'#)#!#~#r _ w B _ _ 5 {#]#^#/#; @ { s ] ] ] w w k t { l _ w w _ 5 I ! x ",
"* * + 1 s 1 ) : - ) ) : - . 9 (#_#:#<#[#@ }#|#1#) 2#s B ! ) - : ) ) : . 3#|#4#- - - - s @ @ ) ) 1 s 1 ) : : : ) : - . c ",
"- . . - b - . . . . + = 7 7 j 5#6#7#8#. 9#0#a#b#. . . - - . . . . + 8 c c#d#e#' c + . b - . . . - - - - c . . 9 + 8 c o ",
"k ' b 9 + 7 7 + c 7 > ( o t ] ] f#g#h#i#j#k#l#k u . 9 + + = 7 c c c o { ] m#n#o#s ^ 7 7 c ' ' # 9 + + 8 7 c c c # ' C 6 ",
"] @ - . + . . ' { ] { ] ] { s { 1 5 ! p#q#r#s#s b . c 9 . b { { { ] ] ] { s#t#u#5 5 H ' t ] @ - + 9 9 . ' { ] ] ] n ( y ",
"k @ . . + . @ ] ] ] ] @ k { @ - - - - v#w#x#1 w - - + 9 - s ] ] ] { @ { { - - - - : q q H w @ - . + - k ] ] ] ] k ' s @ ",
"- . = 8 8 9 - - @ ' b - @ # c . c 9 . y#z#A#- - + 8 8 = 9 - b @ @ - b @ c 9 . c 9 + . . - - . = 8 E + - b @ @ - - @ # 9 ",
"* * = $ , 0 & & + . . + c o ' @ k ' k ' ' # + 9 + E & % 0 = 9 . . 9 7 j @ ' k o { k o @ 9 + . = 8 8 = = . - . . + 8 ^ o ",
"n E L C.n C C.> $ & = c { s w ! ! s s s t t ' y > ( 6 6 7 C.= 9 + c ' s @ ! ! _ s s ] { { ' b c @ o o 7 8 = > , % y C ( ",
"_ I J 5 w t { - . . . - b . - - - k @ - @ s s ! x ! w k ] @ - - . . b - - - - @ k b b s ] 1 J ! ! B s ] b - + * > E # ^ ",
". = . 9 = - - - + + 8 8 9 . + c 9 c - - - b b - - - - . - - . + = 8 = 9 9 7 + c c - - - b : - - - - - - . = + = 8 . 9 = ",
", z a 7 > 8 7 9 + 8 8 8 7 c # ^ ' ' ' c 9 . + b @ @ b c 8 9 + 8 = 8 = c # # ' ' k c c 9 c c b k b c 8 + + = 8 = = + 8 6 ",
"a { ] l _ @ o j 7 8 8 C ' t ] l _ _ k ' c 9 . k ] l 5 l ' j 7 8 f 7 o { ] r _ _ l ' c 9 . @ ] ] _ _ k ^ # f > % * @ { ] ",
"t { ; w q w { t { { t ] ] s w ! ) ) ; b . + 8 b @ : ) ) s { t { { t ] ] s ! ! ) ) b b . 8 c k : ) ) w s s { u # k r l _ ",
"@ @ @ @ @ - - @ ] s { { k @ - - - - . 7 + 8 7 . - . . - - b s s { { s @ - . . . . 9 = 8 8 9 . . . . - - @ ] ] s # = * A ",
"- - . . 9 . - @ k @ - - @ b 9 . - - . 8 8 8 + 8 . - - - . b k @ - b - @ . 9 . - - 7 7 8 8 + 9 - . . 9 . ' { ' a ( z p v ",
"A % B#% > E 8 E = = + 9 = 8 c ^ k { k { { o 7 # . + c + 8 7 + + 8 = & $ 8 j ' { { { { { C c b 9 = 0 0 , , = 9 9 @ { k y ",
"6@7 a 7 o k o i 6 $ = + ' { { ] ] l _ l ] ] t t o j j ' k ^ c 8 0 D , y s ] { l _ _ ] ] ] { { ^ 7 C ' ^ y 6 # @ k ] ] C#",
"] ] k s _ 5 5 r @ . - . . @ @ - ; q ) ) w k t t ] ] l 5 5 _ k - . + 9 b @ - - ) ) ) q k s { ] ] r _ 5 5 s k k @ ' ' { ] ",
"_ _ k - ) : : - . = 8 8 = . . . - - - - - @ k @ s B I ) - : . + = 8 8 9 . - - . - . - b k k k ' q x : : - . 8 8 8 8 b @ "};
