/* XPM */
static char *result[] = {
/* columns rows colors chars-per-pixel */
"60 60 152 2 ",
"   c #040404",
".  c #070708",
"X  c #070808",
"o  c #0B0B0C",
"O  c #0E0F10",
"+  c #0F1011",
"@  c #121315",
"#  c #151619",
"$  c #17181A",
"%  c #191B1D",
"&  c #1D1E21",
"*  c #1F2023",
"=  c #212326",
"-  c #24262A",
";  c #26282C",
":  c #282A2F",
">  c #2C2D32",
",  c #2E3035",
"<  c #303237",
"1  c #33353A",
"2  c #36393E",
"3  c #44463D",
"4  c #373A40",
"5  c #3A3D43",
"6  c #3D4047",
"7  c #3F4148",
"8  c #42454C",
"9  c #45484F",
"0  c #464951",
"q  c #4A4D55",
"w  c #4C4F58",
"e  c #4D5057",
"r  c #4E5159",
"t  c #52555D",
"y  c #54585F",
"u  c #6D694D",
"i  c #78794B",
"p  c #535760",
"a  c #565963",
"s  c #595D65",
"d  c #5B5F68",
"f  c #5D616B",
"g  c #61656E",
"h  c #636770",
"j  c #666A74",
"k  c #696D76",
"l  c #6B6F79",
"z  c #6E7177",
"x  c #6E727C",
"c  c #71747E",
"v  c #878256",
"b  c #A6A45B",
"n  c #AEAB5D",
"m  c #A38F6D",
"M  c #A49B61",
"N  c #BDBA61",
"B  c #B9A375",
"V  c #BDA873",
"C  c #BFA57A",
"Z  c #C2AA77",
"A  c #C5AB7A",
"S  c #C8AF7A",
"D  c #CDB976",
"F  c #CCB47B",
"G  c #D0BE76",
"H  c #D3BC7C",
"J  c #D8BF7F",
"K  c #CCC569",
"L  c #D5C675",
"P  c #D8C776",
"I  c #D7C973",
"U  c #DACA75",
"Y  c #D7C27B",
"T  c #DBC37E",
"R  c #DEC97D",
"E  c #E2CC7E",
"W  c #E5D876",
"Q  c #EBDE77",
"!  c #E6D37C",
"~  c #E9D57D",
"^  c #E7DB7B",
"/  c #EBDB7B",
"(  c #F1DE7E",
")  c #EEE376",
"_  c #EFE279",
"`  c #F0E676",
"'  c #F5EC75",
"]  c #F3E37C",
"[  c #F5EA7A",
"{  c #F7F173",
"}  c #F8F273",
"|  c #F7F179",
" . c #F9F37B",
".. c #737780",
"X. c #767A84",
"o. c #797D86",
"O. c #777C88",
"+. c #7A7E88",
"@. c #7D818B",
"#. c #80858E",
"$. c #828691",
"%. c #858993",
"&. c #898C96",
"*. c #8A8E99",
"=. c #8E919B",
"-. c #91959E",
";. c #95989E",
":. c #9397A1",
">. c #969AA3",
",. c #9A9DA6",
"<. c #9B9EA8",
"1. c #9EA2AB",
"2. c #A2A5AE",
"3. c #A7A9AF",
"4. c #A4A7B0",
"5. c #A6A9B2",
"6. c #AAADB5",
"7. c #AEB1B8",
"8. c #B3B5BC",
"9. c #B5B8BF",
"0. c #DEC580",
"q. c #E5CD80",
"w. c #E7D080",
"e. c #EBD482",
"r. c #EFD982",
"t. c #ECDB88",
"y. c #F1DB83",
"u. c #F3DF88",
"i. c #EEE581",
"p. c #F4E283",
"a. c #F6EC83",
"s. c #F8EE82",
"d. c #F4E38A",
"f. c #F6EA8B",
"g. c #F8EE8D",
"h. c #F9F383",
"j. c #FAF38B",
"k. c #F5E890",
"l. c #F8EE90",
"z. c #FAF290",
"x. c #B7BAC1",
"c. c #B9BCC2",
"v. c #BEC0C6",
"b. c #C0C2C7",
"n. c #C2C4CA",
"m. c #C6C8CE",
"M. c #CBCDD2",
"N. c #CED0D5",
"B. c #D5D7DA",
"V. c #D7D8DC",
"C. c #DADBDF",
"Z. c #E4E5E8",
/* pixels */
"t.r.w.r.] / H F J J 0.q.q.y.u.G A q.y.w d c l 8 t s 2 w c ;.:.c q 5 a t 8 k c g r y.r.H d.L u v [ i.r.p.a.' N i 3 D { h.",
"P ! R q.e.y.y.w.J J 0.w.e.w.! r.q.q...j l ;.:.s y g q 8 4 X.X.4 8 0 j t a :.<.c j c E H B m V R r.w.w.r.d.! M b I Q Q Q ",
"^ ` e.q.E q.w.e.r.r.r.! ~ ` [ a.l &.4.*.g 2.m.X.a c a 8 5 a s 4 9 t c a +.m.9.c =.3.&.l F E e.e.E R R 0.Y w.r.w.E J ` } ",
"` ) Q ` ` ` ~ w.e.e.q./ [ w d &.4.8.V.M.+.#.6.l t o.a s 4 t y 4 s s +.t l 6.-.+.M.B.8.2.*.l e r.] ' ` _ H A F S P Q ] ' ",
"h.g.f.a.a.[ ' y.y.2 r.r.d +.:.8.n.B.Z.M.$.8 t 2 e ;.a t t a t w t s -.q 2 t 5 h M.Z.B.n.8.2.o.s l.[ 1 ' r.e.r./ ( y.( [ ",
"q.e.r.y.e.e.e.r.0 @.t q %.1.5.m.C.x.*.d 8 $ # @ 7 g 0 t h ....h t q g 8 @ # # 1 d =.x.C.m.8.2.%.q t #.t r.w.w.0.E E q.H ",
"L G R ) ^ F S z 8.x.x w k 6.b.8.&.s 5 = # % * * & $ $ $ & = = & % $ % * * * $ $ * 4 s &.8.n.3.l q c 9.n.x ! q.0.H A H U ",
"' ' | h.j.[ o.c.n.+.l x w o.&.f 5 - # % ; = # + o X j.h.` ) Q E D D o + @ $ * ; & $ ; 5 s +.X.w x x @.9.n.X.! ! W ) }  .",
"e.] y.u.d.c 2.8.8.o.s o.l , ; ; # # = * % # o ( p.p.u.d.a.' } } } } } } ] @ # $ = & # @ : > < l o.s o.5.8.2.c { } | j.f.",
"e.y.y.y.@.,.%.;.;.@.s k #.0   o $ $ # O o   e.e.y.y.r.r.r.y.' ' ] ' ' [ ( y.y.@ @ $ $ $ +   8 #.j s @.,.>.@.,.@.' p.u.y.",
"Z J e.r.k c s r 8 t f g j , o @ @ o # ~ ! E ! E e.y.y.r.y.y.] ] y.y.y.( e.~ e.y.y.- @ @ @ o < h g g t 7 r s c j y.r.e.r.",
"D Z Z S 2 8 f g t r f X.1 o @ o o 1 t { } Q ~ ( r.q.q.! E E w.e.e.e.~ E / Q ` } } c 8 + o @ + 1 X.f r r g g 8 5 w.! ! ] ",
"' ' Q f c y q j o.h a 1 O @ o O : r j h.} } } } ` ` ` ' ' ' ` ~ e.e.( ` } } ' h.j.#.s 1 @ X + + 1 a g @.j w t X.h Y K n ",
"] ] ' X.3.8.<.0 9 s = o O   # 4 ; > j u.p.[ } } } } h.z.g.s.] y.y.e.e.( ( y.y.d.d.%.4 1 q > o o @ & s t 0 ,.8.5.o.E P G ",
"H R a &.2.m.N.s & @ @ @ o , r 5 $ 1 k y.y.( ] ] ] a.k.u.r.y.r.E E E E ~ r.y.r.r.y.#.8 - r d 4 o + @ @ $ s N.m.2.*.g r.r.",
"! ] x -.2.M.6.q & @ O X 4 h 0 ; = 8 k r.( r.e.( y.r.r.y.r.r.r.e.E e.T J H ( ~ w.r.#.0 - < w l 5 o o @ $ q 6.N.2.,.#.E / ",
"y.y.$.<.n.V.@.> @ @ . # h w = & , s c / ' / ~ E ! r.y.~ E E ~ E E D Z D W { ' ) ^ +.g < ; ; w l # X @ @ > @.V.m.1.=.f r.",
"] s +.4.V.8.t # O O   1 h 2 1 8 8 g l } } } { ' / ( ] ` ' [ ] ` ] ~ p.j.j.j.a.[ ' c l 0 w 0 8 X.8   + @ # t 8.V.4.%.f 0.",
"[ d ..4.<.X.> O # o + r h w w 5 q g d ( [ } [ a.f.h.} } j.f.d.f.l.g.k.u.u.u.r.e.y.g l y 0 0 a %.f + X @ + : O.,.6.&.a r.",
"8 f ;.8.c 2 @ O O o = s s 1 = & 9 r f y.] ] y.r.r.u.p.p.u.y.y.y.y.y.e.! ! ! / ( y.g a q > 4 8 %.c - o @ + @ 4 x x.8.f 8 ",
"s O.=.=.t ; @ o . o 1 s w = ; < 1 r h ~ w.e.~ ] ~ ~ e.e.e.e.q.w.! E ! ` ' ' } ' ` h t 5 t w 4 o.#.1 + X o + ; r =.,.@.s ",
"3.v.n.2.k w 4 - O + 4 f 8 $ ; w 5 8 h ] / Q ' } ] r.e.e.! ~ ( ` ` ' } } } } }  .h.k 8 w ..t 2 l #.1 $ o - 6 e k 1.v.x.4.",
"&.2.5.&.h t 1 & o + > 0 1 $ & 0 5 s f f.h.h. .[ y.r.e.e.y.} } } } } ' ' [ ] p.d.d.g a t ..q > f f 1 $ o $ 1 t f %.3.5.&.",
"r g l j s 8 > O o & 1 ; ; $ % < y j r.r.y.u.d.y.e.~ q.w.( ] ] } [ ] ( ' ] r.e.r.a w g h a 5 < 0 8 8 > + @ < 8 s k c f t ",
"k -.7.8.,.x 9 +   $ 1 $ $ $ & > d r Q / ( ( e.e.e.E R E ! r.y.y.y.r.r.^ / / 0 j :.@.q j 8 5 1 5 > t 6 o % g c ;.7.7.=.j ",
"q s =.,.g 9 5 @   @ 5 % $ $ - > d ' } } } ` ^ / w.! ! ! E E w.r.w.w.! ` ' s.p -.9.>.p z e 0 1 5 1 c 2   % f e g ,.=.d 8 ",
"8 2 g z 8 , 7 @   o 1 $ $ # 1 4 r ' [ ] ` } } j.f.g. .} ' ] r.e.e.y.` ] y.p...7.7.%.j a r q 1 6 > f 2   % g 6 7 x g 4 4 ",
"t 5 f k 7 0 8 @   @ 1 @ $ > > < r.( ( y.y.] ] p.u.d.u.y.] ( r.e.e.q.e.r.y.a X.=.4.8.>.0 8 7 8 2 - f 1   * f e 8 j f 5 0 ",
"9 2 0 t 2 r 0 %   o ; @ & > & 1 / / ( r.r.r.r.r.y.( r.w.r.r.w.E E R ! e.! p j O.1.x X.e a 8 r 5 = e -   % 7 8 1 r r 4 w ",
"#.;.2.,.o.d r 1 $ + - @ ; > & 2 '  .' / q.e.~ ] } ' [ ] / E E E E E ! ` ' { f j e * > 2 j e t e , 9 , O 1 e g @.5.7.2.%.",
"-.7.c.6.@.d 5 > = + * $ ; * * > g.g.[ ] ~ e.r.[ ' a.g.j.' } ` ` ) ) { | | h.k h = > 2 t f 8 7 8 > , - $ , 2 f @.6.x.7.-.",
"2 q t 0 2 ; $ + o o ; > - & < 1 y.y.r.r.e.E E y.y.y.y.u.y.] ' } { } { ' ] u.a r e f z g a f 2 9 9 - @ X O % ; 1 0 r r 5 ",
"2 g c s 5 * X .   O > 5 ; & 4 4 y.y.r.! E E e.w.r.y.y.y.y.y.' [ ( ] ( ] y.y.5 5 l g t 1 t j 2 0 a > # o   X & 5 f ..f 4 ",
"s =.5.2.l 4 O X   O = 8 = @ < < ( ] ( Q Q E ! ! r.r.e.e.e.~ ( y.y.y.y.~ E ! 0 8 q : = = r f > 8 f ; $ # X + 4 x 1.x.:.p ",
"t -.c.8.x 4 O .   O = 8 - ; > : } }  .} } ' ` ` ( ! q./ / ! E E e.~ ~ ( ` ' w w 8 = = > q q 8 8 f > $ # X + 4 c x.M.=.p ",
"y &.8.9.l 4 + o . o ; 9 : = $ ; a.z.l.f.| } } { } ' [  .h.} ' ( e.~ ( [ [ [ ] s 8 ; ; < 0 > 8 q j ; % $ o + 1 x 8.n.*.p ",
"w %.<.6.j < # o . O ; 0 > @ $ > > y.y.y.u.] ' ' ' ' l.l.d.d.( y.e.q.w.e.y.y.r.0 t q > 7 r 2 1 r j = & % X # 1 j 6.7.=.r ",
"w %.>.*.s , @ o o O ; 0 > $ & $ < > y.y.y.] y.] ] u.y.y.y.y.e.E q.w.E ~ e.e.r.r.7 8 5 r : < < r j ; & * o + , s *.>.@.w ",
"w +.:.+.d 1 @ O O o = 5 - $ & o = 6 2 ~ ( ~ E e.r.y.y.r.e.e.e.e.q.E E E ~ ' / ! e.7 f 8 & > > 0 f - * * + @ 1 f +.=.@.e ",
"q $.>.*.d 4 $ O O o & 5 & $ 1 > & 1 8 ` } ' ` / ! e.( ! ~ / ! ! E ! ~ ` }  .} ' ` s s 4 r t > 6 f * & * + # 1 f *.<.@.e ",
"0 $.4.:.d 4 @ O . . & 4 & O & = > = ; ' } } '  .a.] ' }  .h.s.s.h.h.j.g.l.k.p.] ] 1 1 r 8 2 $ 5 s * % & + @ 1 f >.6.$.q ",
"5 O.4.>.d 1 @ X     $ 1 & X . . ; 8 < y.] ' ] p.d.f.| [ f.d.y.u.d.d.u.r.e.e.r.y.r.2 f q $ $ & 8 s & @ $ o + 1 f >.8.@.7 ",
"5 +.5.<.d , O X @ = 1 - & 1 5 & $ > < e.y.y.y.r.r.r.y.y.y.y.e.e.r.e.E ! / Q ` ] ~ 5 0 1 < t t 8 7 ; * & o + , f ,.x.@.7 ",
"5 O.5.<.a > O O $ , 5 @ @ & > = % $ - / ! ! ( ' ( ( e.E e.q.! ! / ! ` ' } } } } | 1 1 1 8 a 5 > , f 0 ; o + , p >.x.O.5 ",
"5 ..<.:.p : O .   & t $ O & = & $ & ; j.[ ' } ' ( r.w.e.r.( ' } ' } } } ' ' | g.l.1 1 1 6 2 1 < 1 @.5 @ . O ; t :.7...4 ",
"1 j >.%.q & X X   & q $ $ & & = = = 4 d.f.f.s.p.( r.e.e.y.' } } } ' ] ' [ y.y.y.y.8 7 5 6 5 5 1 2 @.1 + . o * q $.4.x 1 ",
"> f *.+.5 & X X   & 8 @ @ $ @ O $ < 7 e.y.r.y.y.w.E E E r.y.( ( ] y.y.` / e.r.e.r.9 q ; = ; < 1 , k 1 O X X & 7 +.>.g > ",
"w ..-.+.7 & O O   & 5 O $ O O . & 8 1 ` ` ( w.e.w.E J S S q.r.r.r.e.E / ` ] ] ` ' 5 f 5 $ $ ; 1 , f , O O o & 7 @.1.c r ",
"l 4.c.6.g > $ O . $ < @ & $ $ & < 0 , } { ' ` U H H L P ! Y q.e.w.! ` ' [ f.l.s.} 2 g t 5 , < 4 < a < # @ @ > d 5.v.4.x ",
"> p +...5 & X O @ > 8 $ > q 8 2 8 8 1 y.] } } g.g.g.a.' } ] y.r.y.r.( y.y.y.y.] ] 2 g c d g c t 2 d 7 = + o * 5 ..$.s , ",
"s p p r 9 9 q 1 & $ = & > 1 8 q 8 < 1 y.y.( y.y.y.y.y.y.( y.e.q.q.q.q.e.e.! e.e.r.5 r h o.X.s q 1 = * % 1 0 0 8 r s p f ",
"1.:.*.>.:.$.+.s 5 & + % 5 q 6 , > > : ~ e.e.e.( ( ] ( ! ! e.e.E q.E E ~ ~ / ' ` ` 1 w w y d c c 5 $ = 1 f @.$.;.:.=.:.1.",
"@.+.@.+.j d a w 2 % + > 4 < > > ; > & ` ~ e.r.' }  .h.s.` / ! E E ! Q { {  .h.h. .> 0 9 q e t f w % $ > q s d j @.$.@.@.",
"O.<.1.O.d t a 8 1 & @ : > > - $ @ $ @ ( r.w.E ( ] u.d.k.' } } } { { } } ' g.k.f.u.= 1 > < 6 e e 8 # & > 8 y r d O.:.>.O.",
"O.>.4.%.f q 8 4 ; @ o = ; & @ $ @ r.r.w.q.E ! r.y.r.r.y.r.y.' } ' { } [ ( y.( y.y.e.& > > > 1 8 4 @ @ * 1 0 w d @.<.>.X.",
"..+.+.l p 5 4 > & O + $ @ O @ e.r.r.r.E E q.w.q.r.y.y.y.y.( ] ( y.( y.( e.e.e.y.r.w.! E = > > , > + + # > 5 7 r x O.O.X.",
"j ..h d 7 4 , & @ o O + @ E ! Q ` ' ' ' } Q ~ ~ r.~ ! w.E w.w.q.E q.J F E Q Q } ' ' ' ' ~ ~ * > = O . o = < 1 9 f f x j ",
"t w r 7 4 - & O o o O + ) ' } } } h.h. .} } } } ` ~ / ` ` ` / q.A C Z E ' } }  .h.h.} } } { ' Q $ O o o @ % - 1 9 e e e ",
"0 7 5 < : - & - - & y.r.y.] ( p.p.k.d.k.] [ } } } }  .j.j.s.[ y.e.e.e.( ( ( u.u.k.u.f.] { } } }  .h.% = = = = : 1 1 8 9 ",
"0 5 7 5 < < 4 > r.q.q.R E r.y.e.y.y.y.y.y.] [ ] | [ l.d.u.y.r.e.w.E E E y.y.y.y.y.y.y.( ' ] [ ` f.k.u.u.: < 1 1 5 7 7 9 "
};
