/* XPM */
static char *result[] = {
/* columns rows colors chars-per-pixel */
"60 60 200 2 ",
"   c #040404",
".  c #070708",
"X  c #070809",
"o  c #0A0B0C",
"O  c #0E0F10",
"+  c #0F1012",
"@  c #121214",
"#  c #151619",
"$  c #17181B",
"%  c #191B1D",
"&  c #1D1E21",
"*  c #1F2024",
"=  c #212226",
"-  c #2E2D25",
";  c #24262A",
":  c #27282D",
">  c #282A2E",
",  c #2B2D32",
"<  c #2F3136",
"1  c #303237",
"2  c #33353B",
"3  c #36383E",
"4  c #3C3D3E",
"5  c #474424",
"6  c #49493C",
"7  c #585436",
"8  c #767038",
"9  c #373A40",
"0  c #3A3D43",
"q  c #3E4047",
"w  c #3F4248",
"e  c #494946",
"r  c #42454C",
"t  c #45484F",
"y  c #545347",
"u  c #464951",
"i  c #4A4D55",
"p  c #4C4F58",
"a  c #4E5157",
"s  c #4E515A",
"d  c #51555D",
"f  c #56585C",
"g  c #5F5F58",
"h  c #6A6748",
"j  c #717153",
"k  c #7C7558",
"l  c #545760",
"z  c #565962",
"x  c #595D66",
"c  c #5B5F68",
"v  c #5E6064",
"b  c #5E616B",
"n  c #61656E",
"m  c #696969",
"M  c #6F706E",
"N  c #727268",
"B  c #636771",
"V  c #656973",
"C  c #696D76",
"Z  c #6A6E79",
"A  c #6D7076",
"S  c #6E727C",
"D  c #797977",
"F  c #71757E",
"G  c #857D2F",
"H  c #897B59",
"J  c #937F5C",
"K  c #837D6E",
"L  c #918932",
"P  c #9C943D",
"I  c #8D8747",
"U  c #999449",
"Y  c #8C8458",
"T  c #948657",
"R  c #978E5B",
"E  c #9A945B",
"W  c #A7995A",
"Q  c #ADA359",
"!  c #AAA55A",
"~  c #B4AE56",
"^  c #B2AA58",
"/  c #B8B356",
"(  c #B8B45B",
")  c #86826A",
"_  c #95896A",
"`  c #95926B",
"'  c #9B9868",
"]  c #828176",
"[  c #918976",
"{  c #989478",
"}  c #A38F6D",
"|  c #A59866",
" . c #A9A66C",
".. c #B3A668",
"X. c #B9B662",
"o. c #BDBA61",
"O. c #ADA973",
"+. c #B9A473",
"@. c #BBAB72",
"#. c #C7B36F",
"$. c #C1AD74",
"%. c #C5AB7A",
"&. c #C5B776",
"*. c #CEBA76",
"=. c #CCB47A",
"-. c #D3BF78",
";. c #D4BC7C",
":. c #CDC56D",
">. c #D1C473",
",. c #D7C677",
"<. c #D3CA71",
"1. c #DBCB76",
"2. c #DAC37D",
"3. c #DEC97B",
"4. c #E2CC7F",
"5. c #E6D47C",
"6. c #E8D97A",
"7. c #ECDC7B",
"8. c #F0DE7E",
"9. c #EDE76F",
"0. c #ECE374",
"q. c #EFE278",
"w. c #F0E676",
"e. c #F4EB76",
"r. c #F3E37D",
"t. c #F5EA7A",
"y. c #F7F173",
"u. c #F8F373",
"i. c #F9F37A",
"p. c #737781",
"a. c #767A84",
"s. c #797C86",
"d. c #7A7E89",
"f. c #7E8083",
"g. c #7D818B",
"h. c #8A8B87",
"j. c #82858E",
"k. c #979482",
"l. c #828691",
"z. c #868A94",
"x. c #8A8D96",
"c. c #8A8E99",
"v. c #8E9095",
"b. c #8E929B",
"n. c #91949E",
"m. c #9B9C9B",
"M. c #A7A388",
"N. c #AAA995",
"B. c #B1AE91",
"V. c #9397A0",
"C. c #9699A3",
"Z. c #9A9DA5",
"A. c #9B9FA8",
"S. c #9EA1AA",
"D. c #A2A5AD",
"F. c #A7A9AB",
"G. c #B1B2AF",
"H. c #A4A7B0",
"J. c #A6A9B1",
"K. c #AAADB4",
"L. c #ADB0B7",
"P. c #AEB1B9",
"I. c #BABAB7",
"U. c #B3B5BC",
"Y. c #B9BABE",
"T. c #DEC680",
"R. c #DFCE81",
"E. c #E5CE80",
"W. c #E5D180",
"Q. c #EBD482",
"!. c #EEDA83",
"~. c #EBDD88",
"^. c #F1DA83",
"/. c #F3DF88",
"(. c #EFE584",
"). c #F3E183",
"_. c #F6EA83",
"`. c #F4E48B",
"'. c #F6EA8B",
"]. c #F8EC89",
"[. c #FAF383",
"{. c #FAF38B",
"}. c #F7EC91",
"|. c #B7BAC0",
" X c #BABCC3",
".X c #BEC1C6",
"XX c #BFC2C8",
"oX c #C3C5CA",
"OX c #C7C8C8",
"+X c #C7C9CE",
"@X c #CBCDD1",
"#X c #CFD1D5",
"$X c #D2D3D4",
"%X c #D4D6DA",
"&X c #D6D8DC",
"*X c #D9DADE",
"=X c #DDDEE1",
"-X c #E3E3E6",
";X c #E9EAEC",
":X c #EDEEF0",
/* pixels */
"~.!.Q.!.r.7.;.=.;.2.T.E.E.^.`.-.%.W.^._.r.'.].| C a.S d.b.n.n.z.d.s.s.n @.^.!.^.^.!.!.-.`.<.h Y r.r.^.).t.e.o.j 6 ( u.{.",
",.5.4.4.Q.^.^.Q.T.;.E.E.Q.E.W.Q.E.3.5.#.@.@.@.k b u d V V.K.J.x.V d p x H } +.@.-.5.E.;.+.} @.R.!.W.Q.!.`.W.! ! 1.8.7.!.",
"6.q.5.4.4.4.E.Q.!.Q.Q.W.Q.w.e._.t.:.' M a.c.C r n d r r b b.l.l t r x x t a.c.a.N  .:.>.*.4.Q.W.E.3.3.2.;.E.!.W.4.-.w.u.",
"e.q.7.w.e.w.6.W.Q.Q.Q.7.t.{.(.>.{ x.x.c s.U.V.d V b s 3 0 B c 3 0 p C c c J.U.l.A b.h. .<.0.(.~.q.t.t.7.;.%.=.&.1.7.t.e.",
"[.}._._._.e.e.^.^.^.!.5.3.@.{ x.S. XoXg.s.|.K.z Z C z p 0 b d 0 d z p.c C |.U.x.n.oXU.C.h.{ &.(.'._.e.e./.Q.Q.7.8.8.8.t.",
"E.Q.^.^.Q.Q.Q.5.*.2.2.+.D s.S.U. X=X;XL.B C p.0 S d.s s 0 s t r l z x.x r d.B c  X;X%X XU.A.g.) *.5.4.3.Q.Q.E.E.4.4.E.;.",
">.-.4.q.5.*.$._ m H H a.n.D.|.%X&XoXZ.F 9 = = & C F d x V p.F B z d j.d % ; & < a.J.+X*X#XU.D.b.D _ k N | 3.4.4.;.%.*.1.",
"e.y.e.[.[.6.` n.P.B u s.D.Y.oXY.z.b 9 = % $ % = < > ; , 9 r w 2 , : > , % % $ $ ; r V n. XoXY.S.C u a.|.n.| 1.5.6.0.y.i.",
"Q.r.^.).W.k. X@Xz.F n a c.J.j.z 9 = # & = & # # # ; > 2 1 % & 2 q 2 $ @ # $ = = & $ : 0 n z.D.s.i Z F m.@XJ.O.9.y.u.{.}.",
"Q.^.^.3.{ K. XK.S b g.n w 0 9 * @ # ; = % % , s F b.D.Z.D s d j.A.V.p.f 0 ; $ % ; & # # : 0 0 r Z d.x d.F.|.D.O.6.r./.^.",
"%.;.;.k.n.b.D.J.d.z Z g.u X O + % & # % , d s.n.A.J. XK.p.V V g.U.|.D.Z.x.Z u , & $ & # @ O O x d.V l x.J.S.n.n.M.5.^.Q.",
"*.%.[ z.s.b f s b b b S w X O # @ & 3 l F b.V.S.U.oX%XD.g.d.g.g.Y.%X XL.A.V.c.a.x 9 & @ @ O O d S c n x a x n j.f.$.5.w.",
"y.e...e a b l i p b a.w @ + + # 0 Z z.C.S.S.l.g.b.c.g.c.A.d.l.S.l.j.n.c.d.c.H.S.V.l.V 2 @ O @ $ d a.l p u x c i e ..:.^ ",
"r.6.` b t d S a.c x w @ o @ > v z.n.A.S.V.a.d x V S V C. Xl.V. Xl.V Z n l l d.V.A.Z.n.d.l & O O % s z n p.Z i i V [ -.*.",
";.+.x.D.J.a.r z x = @ + + < S c.n.x.p.p.a.d < , ; t p.S.XXC.H.XXb.V 3 ; < 3 c s.p.a.c.n.z.V : o O @ , V x u x.J.F.j.%.7.",
"1.[ m.K.%XY.t % # @ o @ q F l.c.a.n n p 0 , < 3 3 z p.C.XXV.S. Xz.Z u 3 3 , , 9 d n n l.c.l.C , O O @ $ & x @X@XH.n.[ 5.",
"@.l.C.P.%XV.0 & + O + w a.z.z.d.p l w & = 1 3 3 d Z C S.Y.z.C.|.n.S C u 3 3 2 ; = i d d j.x.l.p.1 o O + % p P.#XH.C.c.@.",
"] V.J.@X+XB : @ + X , p.c.b.p.w 1 : > : , t w z p.F x.U.|.c.C.|.U.x.F F i q r > : : > 2 i d.c.z.x @ . @ @ 1 d.%X+XD.V.K ",
"Z c.|.=XC.w # O o O u d.Z.b.w 2 0 t c V i t Z Z F C.D.D.P.l.b.U.D.A.c.Z S n 0 r n z r 4 1 0 j.V.S 2 . + @ % s P.=XK.z.Z ",
"B c.J.V.c & + @ X * V z.z.B b Z n l z V S s d f.D.j.x x.A.a.j.D.a.z n.D.F i z F C d l V C l C c.d.z # o @ O , Z C.H.m.B ",
"p.L.A.z > O O O O 0 a.b.C b B s 0 9 , , 9 l p.D.g.i i c.J.a.l.J.s.u p c.A.V l 0 > 1 9 r d n n p.c.p.2 O O O O 2 B K.|.a.",
"z.C.d.w * @ O   $ x z.c.d i < 2 9 p d 3 2 s i b p.B l n.L.a.x.P.l.z C p.x p p 0 r d u 3 1 > r n V.g.p O   O # : p x.C.c.",
"+X Xn.b i 9 & o * V c.a.u * : 9 2 s C b B Z i w z p.d.A.H.p.d.P.b.a.p.l 0 z Z C C n t 3 3 = ; d d.z.z @ O ; 0 s Z S. X+X",
"Z.c.Z l w > # O * s B B w + : 2 < t p.b.l.V d r w Z l.C.A.n p.H.V.l.c 0 u z C j.x.C 9 2 1 > % d B B t $ X $ < t z p.c.C.",
"d.s.a.n i , o O : < q i 9 @ > 2 2 2 u x B B b S l.J.S.l.p.z b a.x.S.D.d.A b V B z r < 2 2 : & w i 9 < & O # 0 p Z d.j.d.",
"m.U.J.l.x 3 o . * < 2 0 , $ , < 3 1 w x B V z.C.d.d.p.p.a.g.g.a.S p.d.g.Z.g.m n z 9 2 3 < < & < 0 , < & X & c C c.K.K.n.",
"V V.d.u 0 2 o   * 3 1 0 : # , 2 9 i > * r v.S.b d a.x.J.XX=X%X XD.z.S i F S.z.a ; < i 9 1 , & < 9 , 9 #   & c t d c.c.c ",
"i V x 9 0 3 .   & < < 0 : # * , b a < a v.n.b s d.b.S.@X=X:X;X%XXXC.b.S i Z A.C.t < x p : : & < 0 , < #   & B r 0 b B r ",
"0 C d 0 d 9 o   & : < 0 : # 1 v a < 0 b b w a z.D.Z.D.%X=X;X;X-X.XC.Z.D.s.r u c l 2 1 z l , & < 0 : : #   & c s 9 z n 3 ",
"s n d u s t %   # * < q , , b s > < a l w 2 a. XoXU.J.J.oX=X%X XF.G. X.XP.n 1 0 z t < < c b 2 1 0 : ; +   * 0 t i c B z ",
" XoXJ.d.c r 1 & & * 1 0 u C B < , 3 p.z 2 < v ] G.OX$XI.D.D.D.D..X$XOXm.A d , 2 V C < : 9 V B t 0 , & @ $ 3 i V x.|.@XXX",
"x.x.F z w : & # + * w 0 u l q * < < a.s : > 6 7 H ` M.I.Y.x.n.OXI.B.' h 6 4 ; , B V > < ; t z u 0 0 & o O & , t c a.z.x.",
"i u 3 : @ . .   @ 9 l 2 0 w & = u q V 3 * 2 g h G L L k.F.Z.m.F.' U L 8 h f > * t b q w & # 0 0 0 d < o   X X & : 0 p i ",
"c.Z.p.i ; . X   $ u x 2 0 9 & = n s V 1 = e a.{ E P L ) D v.h.D T P U ` h.A 3 * 0 V l s * # , 3 0 b 0 O   X o , l d.A.b.",
"D.|.Z.n : o X   & l x 2 , $ & ; V d n w > = y K { M.N.m.D z x h.N.B.M.[ M 4 & : t b v d * & $ < 0 b p O   X O 9 Z H.oXH.",
"J.oXZ.x : o X   ; x z 9 , O < t s 2 z l 1 = 2 e y N D f.f u r m D D j e e < * > z a 0 a u < & 1 0 c p O   X O 1 V P.@XH.",
"V.U.C.l : O o   : B b 0 > 1 d 0 w % i z w * * * - y C n f Z b x B B q = = = * q z q * w q z 9 < u B z &   . @ 2 B H.|.C.",
"b.A.l.p : @ o X > V V t 0 w 9 * = ; 0 x d 1 & & % 9 x x S j.a.C x s 2 % = & 0 d l 2 * ; * q q 0 u p.c & X O @ , z n.D.V.",
"V.c.p.p : O O o , B B u w 0 * & w r ; r x s < % 1 r q d d.l.j.a.a w w ; % 4 f z 0 > u 0 & * 9 w i V x & X O @ < l d.b.c.",
"c.V.a.s , O O X : b b u 0 ; @ 0 0 % # % 3 d s 1 ; 3 r i b n V z u u 1 ; 3 d s q $ # & w < + * w u n z $ o O @ 9 z g.V.b.",
"C.D.d.p > + O   ; c z 0 < O & 0 w > = % # 1 s s p u w 0 2 p i 1 t u i p d i : & % ; , u 9 @ @ 9 w c l # X O @ 2 x z.J.V.",
"n.P.d.d > O o   & c l 9 , X O > p i s u w < ; 2 z S p.V r , 1 i V p.Z p , : 2 0 u a p u & O + 1 0 c l @   X @ 1 x c.|.n.",
"b.|.g.d : o o + , p p < 0 & O X & ; : 1 r s r , ; w F x.n ; < S n.S 9 & < u p t 1 > ; # X O * 0 2 s p & O X O < z b.|.n.",
"b.K.d.i & o + & 0 9 9 : 0 w 9 9 3 & O O # 2 p c s < & t d ; 1 l 0 ; 9 z z u , & + + * 0 9 9 0 9 < < 0 2 & O O : l b. Xn.",
"z.|.p.0 &     o 9 0 , & > 9 0 u B n , % 1 2 3 r V a.s u z > 2 z 0 d d.c 0 9 9 2 & 0 V c t 0 2 * : , t : O   o ; s c.|.z.",
"d.D.p.0 & X   X 9 0 > & ; * & < 1 w w 2 0 = > = ; b i t x < 0 c 0 s l & : > & 9 1 t 0 < , & * * & : t ; o X X & u d.J.g.",
"d.b.b 9 O   X X , 9 & & : 9 9 0 0 = 0 0 0 1 2 , * 0 2 r l > 2 l 0 9 1 ; , 0 > 1 0 0 * t 0 0 0 ; & * 0 ; O   X & 9 p.S.a.",
"d.V.b 9 & o o X > , & ; < 9 < * ; > 0 0 u 2 > = : r 0 0 u u i r 3 0 9 : & , 0 w 2 0 * : & 1 2 , ; & 9 ; X O o & 0 p.D.g.",
"|.|.c.u & O O O ; > ; , 0 & * , , > % % , w 0 > ; p 0 u S i z C 0 w r ; < 9 0 1 $ * , , , = = 0 > * , = O + @ > z A. XL.",
"p.d.c < & o O & 2 , ; 1 r ; # % % O o O # & & : i p d d.Z r p p.a.l s r ; & & $ O o + % % @ ; r , = 2 , % + o % 0 V l.Z ",
"s x s p p p < & $ # , 0 c V n V d ; ; 0 i p i l x B j.B V A a.v S j.x x l u s p 3 & 1 c n B V z 0 : % $ & 3 s i i l c z ",
"c.b.V.c.d.p.l 9 & & 0 t i p s l i i s i t u r p V z.V i V C F x u Z l.b i t u u i s u i z s a u w 2 $ & 2 c s.j.b.V.n.n.",
"g.d.p.b c l u 9 % > p Z S V Z Z S Z S Z Z p.S a.s.n p p d c n i s s V d.p.S p.S Z S S S Z C V S V r ; % < u z x B p.l.g.",
"P.b.p.x d p 0 > & > r s i i d x x i l x l p p x z r c B B d z n Z c r c l i s z x d i c z d s a s 0 : & , r l s b a.V.D.",
"S.V.p.l u 0 < & # ; 9 0 2 3 w f r 0 u s w w w p i w i l n q i B s u r i i w r 0 s r 0 i d 0 3 2 0 2 * @ * 2 w u x d.b.Z.",
"d.p.b u 0 < : & O & > < > > < 3 3 3 2 2 2 2 3 0 i s 9 r i 9 w u w w l t 9 3 2 1 2 2 3 2 3 , > , < , % o # > 2 0 p B S s.",
"B b l 0 , : % o   @ % & % % & = ; : = ; ; = = ; 0 2 : , , > , , , , 9 2 = = ; ; ; ; > ; * & % % & % +   o & , < w l b B ",
"w w 9 > & # @ @ 7 T | W Q ~ / / / #.X.( / / / / ^ W Q ~ ~ Q W W J H H W ~ / / ( X.X.( / / / ~ Q W W Q 5 + + # * , 9 w r ",
"q 9 9 > , < h U <.^.^.^.^.r.8.8./.}.`.`._.e.y.y.u.u.i.{.{.i.t.^.Q.Q.Q.8.8.8.8.}.`.`.'.t.y.u.u.u.i.[.[.:.I 7 < > , 3 0 w ",
"E ' R Y R W >.!.7.4.4.4.4.^.^.^.^.^.^.^.^.r.e.t.e.t.}.}./.^.^.Q.E.E.4.W.^.^.^.^.^.^.^.^.e.r.e.w.'.}./.!.5.#.T H H Y R R "
};
