/* XPM */
static char *result[] = {
/* columns rows colors chars-per-pixel */
"60 60 99 2 ",
"   c #44463D",
".  c #595846",
"X  c #6D694D",
"o  c #78794B",
"O  c #6E6850",
"+  c #736C53",
"@  c #7D7853",
"#  c #7C7158",
"$  c #878256",
"%  c #8E825E",
"&  c #938F58",
"*  c #A6A45B",
"=  c #ABA65E",
"-  c #AEAB5D",
";  c #998E62",
":  c #9F9264",
">  c #A38F6D",
",  c #A59A64",
"<  c #A5916C",
"1  c #A2A162",
"2  c #B3AA65",
"3  c #B9B166",
"4  c #BDB961",
"5  c #BFB469",
"6  c #B4A070",
"7  c #BBA376",
"8  c #BDA873",
"9  c #BFA57A",
"0  c #C3AD77",
"q  c #C0A57A",
"w  c #C5AC7A",
"e  c #C8AF7B",
"r  c #C7B473",
"t  c #CBB577",
"y  c #CDBB75",
"u  c #CCB37B",
"i  c #CFBB79",
"p  c #D0BD76",
"a  c #D0B77D",
"s  c #D3BC7C",
"d  c #D8BF7F",
"f  c #CCC866",
"g  c #CCC569",
"h  c #DCD76B",
"j  c #CDCA7A",
"k  c #D4C475",
"l  c #D8C776",
"z  c #D7C973",
"x  c #DACB75",
"c  c #D5C279",
"v  c #DBC47E",
"b  c #DEC97D",
"n  c #DFD174",
"m  c #D9D37F",
"M  c #E0CF77",
"N  c #E2CC7E",
"B  c #E2D575",
"V  c #E5D975",
"C  c #EADE76",
"Z  c #E6D37C",
"A  c #E9D57D",
"S  c #E7DA7A",
"D  c #EBDB7B",
"F  c #F1DE7E",
"G  c #EEE376",
"H  c #EEE17A",
"J  c #F1E676",
"K  c #F5EC75",
"L  c #F9EF76",
"P  c #F3E47C",
"I  c #F5EA7A",
"U  c #F9EF7C",
"Y  c #F7F173",
"T  c #F8F273",
"R  c #F7F079",
"E  c #F9F37B",
"W  c #DDC580",
"Q  c #DCC885",
"!  c #E4CD80",
"~  c #E7D081",
"^  c #EBD482",
"/  c #EFD982",
"(  c #ECDB88",
")  c #F1DB83",
"_  c #F3DF88",
"`  c #EEE281",
"'  c #EEE08C",
"]  c #F4E284",
"[  c #F6EC83",
"{  c #F8EE84",
"}  c #F4E38A",
"|  c #F6EA8B",
" . c #F8ED8D",
".. c #F7F083",
"X. c #F9F383",
"o. c #FAF38B",
"O. c #F7EB90",
"+. c #F8EE90",
"@. c #FAF191",
/* pixels */
"( / ~ / P D a u d d W ! ! ) ] s w ~ ) P J }  .] ) ~ 7 s ] K T C 6 p X.} _ ) ) ) ) ) / s ' j X $ P P _ P { J 4 o   4 T o.",
"l Z ! N ^ ) ) ^ d d ! ! ^ ! ~ / ! W D ^ / ) / ~ d e u ~ / / D b N P F N d s ! A ^ A ! s 7 < 8 M / ~ ~ / ] ~ , * z F D D ",
"S J ^ N N ! ! ^ / / / ! A J I I E K K J K D s u a b b b N ! ! ! N d e y B D I I K K G k s b ^ ^ N N b W d ! / A N d J K ",
"J G D J J J S ~ ^ ~ ~ D I  .o.| | R K L Y Y J J ) / G K H Z ! ! a d S P P |  .{ Y K Y T T P H / P J J H s w u r l C I I ",
"X. .[ | [ I L ) / / / ^ ) ) ) / ) P P ) ] K K  .O.O.{ P K P ) ) / / ) / ) / ) P J ) ) P I {  .O. .P I K _ ^ ^ D F / F I ",
"! ^ / / / ~ A / ! ! ! ! ^ ^ ~ A Z ^ / ) ) ) ) ) ) ) ) / ) ) / N ! N Z ^ ! N A Z D ) / / ) ) / ) ) / / _ / ! ! ! ! Z ! s ",
"k p x P A t e a s ! s u N D J J K Y J A A / ~ D P I P Z N N Z ! W a e r p D K K I D Z / A A P I P S Z Z ~ ! N ! s 0 p x ",
"I K Y X.o.U J S l p t l K T T X.o.X.R J A ~ / I T R X.X.I J S N y y M J T E o.o.E I D ^ / P K T X.o.I J D B Z Z V J K E ",
"^ P ] _ } ] I T T T Y T T K [ } _ _ ) F ) N N F P _ _ _ [ L K T K Y T K L } _ _ _ F / A N A P _ _ _ ] L T T T T T R o. .",
"~ ) ) ) ) ) ) P L P K K I P ) ) ) ) / A N N ^ ^ ) ) ) / ) ) L K P L L I ) ) ) ) / ^ ~ N N ^ / / ) ) ) ) P L P L J ] _ ) ",
"q d ~ ) ~ ! ! P P ) ) ) F ) ~ ^ / ) A A Z N Z N / ) / / / ) P P ) ) ) F ^ Z ^ F ) A V N N ~ A ) ) ) / / F P ) / ) / / ^ ",
"p 0 q e u q e v A ^ / A Z N D J K K K Y L C C F / ! ! Z N N Z ^ ^ ^ A N A J J K K K K K D A F A ! ! Z v a u d ! ~ N A J ",
"T K C C G G J P D A ^ ^ P K K T T X.o.X.T L T T J J C L L J G A ^ ^ A L T K L X.o.X.E T T T K G G J I I C x s u e l g - ",
"P J K K ..@. .U P / / ^ A F F ) _ } _ } ] I K T T T X.@. .{ I ) / ^ ^ F F F ) } } _ } P L K Y T E o.+. .I P ) / N ! l s ",
"s v s u Q ~ ) / ^ ! N N ~ / ^ / / ) ) ) ) P P P I [ O._ / ) / N N N N A ) ) / ) / / ) F P P I P | } ) ) ) ~ N ! N ! ^ / ",
"Z P / / / / ( / / ~ ~ ! N d s D ~ ^ / / ) ) A / ) / / / / / / ^ ! A v d s F A ~ / / ) ) / / ) / ) ) / / / / ~ ~ ! ! Z A ",
") ) ) ) ) N N A W u u w r B J K J D Z D K C A N A / ) ~ N Z ~ N b u q i V T K G A Z K G S Z N / ) / ! M Z ~ v ! N Z ~ / ",
"I I I I J J K I S i l ~ ] o.o.{ I L K K T T T K D D P J I Y P J P D [ ..o.o.[ I K K T T T K P D D J J K I P P J U X.' W ",
"I {  .R T E  .} }  .+.+.} _ ) / / / F P P K L [  .X.T T o. .} | +.+.} ] _ ( ) ) ) P P K K I  .o.E T X. .| }  .+.| } _ ) ",
") ) _ ] P _ _ ) ) ) / / ~ A Z D F F / ) P P ) ) / _ ] ] ) ) ) ) ) / / N Z Z D F / / F I F ) ) ) ] P ] ) ) / ) ) ! W t N ",
"F F A A ~ ^ ^ ~ ~ ~ ~ Z D J Y Y K K D N A ^ A P A ^ ^ ^ / ~ ~ ~ A N Z J K T K K J N ~ ^ ^ D F A / ~ / ^ ~ A ~ s w k V H ",
"K L F / ^ ~ ~ D J J J K T L Y Y T X.o.P D C K K P / ^ ~ ! A F J J K T T T T T E X.E H D J Y P P / ~ ~ ~ D J J C G Y P P ",
"L P ) ^ / / P Y T T Y Y L K I F _ _ } O.o.E E L ) ) ~ / F K T T K T L K I P _ } } } o.{ X.R P ) ~ ^ ) P K T T R  .P P I ",
"_ / ^ ^ N A F I I K I ) P I F A ) / / / ) _ } ) ^ A ~ Z ) P I L L F F K P / / / / / ) ) } ] / ~ ~ ! / ) I L L [ _ I P P ",
") ^ ! v v Z ^ ) ) ) ) ^ A A D F D D J S D / ^ / ^ N x ! ~ / ) ) ) / ^ A V A F D C S D F ~ / / ! N b ! ^ / ) ) ) ^ ! ! l ",
"O # > 7 q u d ~ ) ^ ! N C L E o.o.T K T T J D A A N Z Z N N ~ / ~ N A K K X.o.E T T T K H A Z Z Z Z Z N N W v s i l G G ",
", j m ` G C x N ) ^ ^ F I ) ) _ ] L I P I T T X.|  .E K K F / / / / P P ) } ] P L P P T T E {  .X.Y Y I ! s s c J X.o.X.",
"[ } } ] ] P I ) / ^ ^ Z / ) ) ^ / ) F ) ) P P _ } _ } F P F / ^ / ~ ~ ) ) A / / F ) ) P I ] _ } } ) P P / / / ~ A } } / ",
"/ ) ) ) / ~ ! ^ N N N N N Z Z Z S D F / ) ) / / ) ) / ~ / A ^ N N x ! ~ Z N D D F / / / / / ) F ) ^ ^ A ^ ! N ! v a r 0 ",
"D K T K J D s w t s N N D K K R T R K A ! ~ A J Y Y I H A Z N N N N A J K L T E T G N Z A D I K I J D Z ! ! v w 0 0 M K ",
"X.o. .{  .{ L G n B G K T T X.o.+. .U J / ^ D I K {  .o.Y K J J G J K T T o.+.+.[ I F / ~ F L [  .o.X.K J G B B J Y T E ",
"O.] ) ) ) _ P K T T T T T I ] ) ) ) / / ~ ! ! / ) ) ) _ ) P L T T T Y L P _ ) ) ) ^ / ~ N A ) ) ) ) _ P K T Y T T T I ] ",
"P ) ) _ ) ) ) P I P F P P F ) ) ) / / A N v ^ A / ) ) ) ) ) L J F P P P ) / / ) ) ^ N N N ~ ^ ) / ) / ) P L ) P P P P / ",
"P N , & v N N / A F / / / ~ N A P P D C C Z N Z ^ / ^ / A A F ) ) ) ) ^ ~ Z A P P D J S N Z ^ ) / / ~ ^ D ) ) / ) ) ^ ~ ",
"+ . & 5 p k p p a N N ~ D D J K T T E R T K J I D N N A S A N N ^ Z A D J J T T L E T T J J P Z Z Z D A N Z ~ ~ l ; % % ",
"@ f L T E X.E L C ^ ^ / P K I L { @.+.O.U T T T T L L E X.L K F ^ / F I L I I o. . .o.K T T T K L T X.E L J / / ^ r 2 4 ",
"P T K X.o.O.} ) ) ^ ^ ! Z ) ) ) ) ) ) ) ) P L I K T o.+.} } F / ^ ! ! ^ ) / ) ) ) ) ) F K L L K o.@.} } ] ) ^ ~ ! ~ ) ] ",
"I P F _ ) ) ) / ~ N ! N N ^ ^ ^ / / ) ) ) P ) P P _ ) ) ) ) / N N ~ N ^ ~ / A ) ) ) ) F P F P F _ ) ) ) ) ~ ! ! ! ~ / ~ ",
"^ / / / ) ^ ^ A / ~ Z N N Z C I A Z / A P A Z ~ / ) ) / ^ A / / ! N N N S K D N ~ ^ F F ~ Z / ) / / / N ! ! ! ! a u u y ",
"J A F ) / Z A D Z N M A C U E L T J C J K J J A Z ^ / A A A Z N N Z D J E E T K J F K K J D N A / D Z A p 0 s l p V I R ",
"x l G K K U E { U { X.o.o.O.O.} ) P I L K T T R [ J K K R X.[ U X.X.o. .O. .] ] P K L T T T [ [ I Y K E X.[ [ X.o.@. .O.",
"W W ~ { L { } _ ) } } _ ) / ^ / / / ) ) P K P ] }  .L U  .} ) _ } } _ / ^ ~ / ) ) ) ) L P P } } { L { } _ _ _ } _ ) / A ",
") / / ) F ) / / / / ~ ! Z Z S P J P A / F F / / / / / ) ) / / / / ~ N A A J J J A ~ / F ) / / / ) ) ) ) A / / ^ ~ N A G ",
"I J F ^ ~ Z Z ~ A Z s p G Y T T T T G A A A D I H / ^ ~ ~ ! Z A A A G K T T T T L C Z Z A J J D ^ ~ ~ N Z A A A D J V l ",
"T P ) / ~ / / J K T K T T K L K { o. .o.I I K L F / A ^ / F K K K T T T K K U  .o.o...J Y T P ) ~ ^ ^ / J K T T T B p x ",
"I P / / ~ / P T T T T P I K P ) ) ) ) } | [ { [ ) ) ~ ^ ) L T T T K P K K ) ) ) ) _ | | ..[ P ) / ~ ) I T T T T I J L P ",
") / ! N N ^ ) ) P J F ) P D A / A ^ / ~ ) ) ) ) ~ N N ! ^ ) F P P ) F P A ^ / A ^ ~ / / ) ) / ! N v ~ ) F P P ) ) P D ^ ",
"W W ! a w e d d ~ / / ~ A G J P I J I J J D ~ ^ ~ v d u e ! ^ / / ^ Z S P J I G K I G P ^ ~ / ! N N ! ! / ) / / ~ N C G ",
"B v i c B V c s a d ! A K L [  . .L L L Y Y J x s p l l Z c ! ^ ~ A J L P  . .X.L L T K K J F A P G G Z N ! s w u x V p ",
"X.@.+.o.[ Y K ) / / / ) F / ) ) ) I P ) P L L  .O. .[ I T P ) ) / / F ) ) ) ) P I F F L T { +. . .U L T F ) ~ W s v D C ",
"/ ! / ^ ! ) ) ) ~ ~ N N ^ / ~ A ^ A ) ) ) F F ) ) ) ) / ) ) / ~ ! N ! ^ ^ Z ~ A A ) ) ) F _ ) ) ) ) ) ) / ! ~ ! N / ^ ! ",
"w t b Z s N Z ^ ~ N N N Z A D C J J J A ^ / ~ F P P F A N ^ ~ N ! N ! A D D J J I A A ^ A A F I F A N ~ ~ ! N ! ! ~ N l ",
"b K T E X.P G S Z N N V J Y T E X.X.I J A ^ / I T E o.E J S Z N M Z G K T R X.X.E J A ^ / P T T X.X.I C D M s u W P K T ",
"Y K ] [ | [ K Y K K Y T T L [  .} } ] F / ~ N F P _ } } L K Y K K Y T T L  . .} } F F / N A I _ } } [ L L K H D I R E X.",
"P P P P P ) ) P T L K K I P ) ) ) ) / Z ~ N Z / ) / / ) ) F L L K K L P ) / / / / ^ ! N N ^ / / / / ) ) P T T L D ! W 0 ",
") ) / / ^ / ) P I P ) ) P F ^ / ) ) / N N N ~ N / ) ) ) / F I P ) F ) P / ^ / ) ) Z Z N N ~ ^ ) / / ^ / J K J b p t k r ",
"0 u 9 u s v N v ! ! ~ ^ ! N A C I K I K K G Z D / ~ A ~ N Z ~ ~ N ! d a N S J K K K K K V A F ^ ! e e w w ! ^ ^ P K I x ",
"2 Z b Z G I G z l a ! ~ J K K T T E X.E T T Y Y G S S J I C A N e q w x L T K E X.X.T T T K K C Z V J C x l D P I T T h ",
"T T I L X.o.o.R P / ) / / P P ) ] | } } [ I Y Y T T E o.o.X.I ) / ~ ^ F P ) ) } } } | I L K T T R X.o.o.L I I P J J K T ",
"X.X.I ) } _ _ ) / ! N N ! / / / ) ) ) ) ) P I P L U @.} ) _ / ~ ! N N ^ / ) ) / ) / ) F I I I J | O._ _ ) / N N N N F P "
};
